<?xml version="1.0" encoding="UTF-8" standalone="no"?>
<svg width="497px" height="79px" viewBox="0 0 497 79" version="1.1" xmlns="http://www.w3.org/2000/svg" xmlns:xlink="http://www.w3.org/1999/xlink" xmlns:sketch="http://www.bohemiancoding.com/sketch/ns">
    <!-- Generator: Sketch 3.1 (8751) - http://www.bohemiancoding.com/sketch -->
    <title>vi-light</title>
    <desc>Created with Sketch.</desc>
    <defs></defs>
    <g id="Page-1" stroke="none" stroke-width="1" fill="none" fill-rule="evenodd" sketch:type="MSPage">
        <g id="Imported-Layers" sketch:type="MSLayerGroup">
            <path d="M123.396,30.555 C129.855,31.385 128.723,30.22 128.723,40.384 C128.723,42.599 128.92,45.941 128.692,48.021 C128.449,50.202 126.057,50.038 123.306,50.283 L123.296,54.021 L145.089,54.027 L145.079,50.283 C143.548,50.155 140.842,50.251 140.026,49.09 C139.481,48.32 139.506,44.327 139.713,43.203 L156.28,43.19 C156.458,44.249 156.467,48.203 156.012,48.964 C155.254,50.251 152.471,50.181 150.912,50.269 L150.904,54.027 L172.695,54.021 L172.686,50.289 C171.572,50.181 170.47,50.053 169.355,49.909 C168.182,49.767 167.496,49.324 167.312,48.176 L167.284,32.886 C167.522,30.524 169.542,30.986 172.592,30.549 C172.82,29.759 172.741,27.729 172.656,26.838 L150.94,26.829 C150.869,27.742 150.77,29.747 151.015,30.559 C152.653,30.749 155.287,30.671 155.983,31.839 C156.558,32.803 156.352,36.285 156.33,37.62 L139.659,37.665 C139.506,30.249 139.35,31.262 144.972,30.555 C145.213,29.768 145.125,27.719 145.043,26.831 L123.333,26.829 C123.262,27.75 123.162,29.729 123.396,30.555" id="Fill-1" fill="#FFFFFF" sketch:type="MSShapeGroup"></path>
            <path d="M219.415,30.555 C219.565,29.705 219.543,28.613 219.415,26.829 L201.145,26.829 C200.897,29.238 201.06,30.339 201.145,30.555 L203.09,30.555 C204.899,30.555 205.813,30.825 206.362,31.343 C206.902,31.867 207.176,32.967 207.176,34.607 L207.176,45.617 C207.176,47.505 206.706,47.549 205.784,48.468 C204.65,49.593 202.357,50.17 199.65,50.17 L199.282,50.17 C196.378,50.17 194.273,49.732 192.981,48.865 C191.696,48.004 191.048,47.956 191.048,46.004 L191.048,34.859 C191.048,33.127 191.341,31.975 191.924,31.405 C192.507,30.842 194.532,30.555 196.665,30.555 L197.758,30.555 C197.955,29.872 197.919,28.282 197.758,26.829 L173.977,26.829 C173.815,28.748 173.848,30.246 173.977,30.555 C176.625,30.555 178.624,30.728 179.237,31.084 C179.855,31.434 180.159,32.337 180.159,33.793 L180.159,46.509 C180.159,49.642 181.488,51.057 184.881,52.589 C187.83,53.915 191.827,54.575 196.88,54.575 C201.806,54.575 205.701,53.951 208.57,52.711 C212.007,51.227 213.719,49.887 213.719,46.836 L213.719,34.201 C213.719,32.902 213.982,31.997 214.508,31.487 C215.151,30.864 216.262,30.555 217.839,30.555 L219.415,30.555" id="Fill-2" fill="#FFFFFF" sketch:type="MSShapeGroup"></path>
            <path d="M237.24,47.514 C237.24,48.674 236.975,49.222 236.458,49.593 C235.94,49.958 235.076,50.051 233.878,50.143 L230.519,50.413 L230.519,54.027 L255.34,54.027 L255.34,50.337 L252.102,50.143 C250.905,50.143 250.064,49.986 249.587,49.669 C248.949,49.248 248.628,48.674 248.628,47.514 L248.628,42.801 L257.62,33.683 C258.699,32.555 259.783,31.773 260.857,31.351 C261.934,30.931 263.493,30.651 265.536,30.524 C265.652,29.819 265.617,28.364 265.536,26.829 L247.624,26.829 C247.471,28.192 247.454,29.471 247.624,30.524 C250.582,30.524 252.005,30.838 252.005,31.469 C252.005,31.813 251.925,31.99 251.036,32.905 L245.72,38.389 L240.231,32.748 C239.764,32.265 239.533,31.871 239.533,31.56 C239.533,31.048 240.007,30.747 240.939,30.657 C241.875,30.574 242.865,30.524 243.784,30.524 C243.933,29.515 243.873,28.192 243.784,26.829 L220.807,26.829 C220.625,28.253 220.625,29.613 220.807,30.524 C222.687,30.524 224.165,30.783 225.246,31.312 C226.048,31.706 227.007,32.5 228.126,33.683 L237.24,42.801 L237.24,47.514" id="Fill-3" fill="#FFFFFF" sketch:type="MSShapeGroup"></path>
            <path d="M267.297,30.555 C273.759,31.385 272.619,30.22 272.619,40.384 C272.619,42.599 272.817,45.945 272.582,48.021 C272.347,50.202 269.959,50.038 267.208,50.283 L267.199,54.021 L288.986,54.027 L288.978,50.283 C287.451,50.155 284.743,50.251 283.921,49.09 C283.381,48.32 283.403,44.327 283.611,43.203 L300.176,43.19 C300.355,44.249 300.365,48.203 299.914,48.964 C299.151,50.251 296.373,50.181 294.814,50.269 L294.806,54.027 L316.598,54.021 L316.588,50.289 C315.47,50.181 314.372,50.053 313.251,49.909 C312.082,49.767 311.393,49.324 311.209,48.176 L311.186,32.886 C311.424,30.524 313.435,30.986 316.492,30.549 C316.723,29.759 316.639,27.729 316.554,26.838 L294.844,26.829 C294.762,27.742 294.671,29.747 294.913,30.559 C296.543,30.749 299.186,30.671 299.888,31.839 C300.46,32.803 300.245,36.285 300.226,37.62 L283.558,37.665 C283.403,30.249 283.249,31.262 288.874,30.555 C289.116,29.768 289.026,27.719 288.948,26.831 L267.23,26.829 C267.155,27.75 267.064,29.729 267.297,30.555" id="Fill-4" fill="#FFFFFF" sketch:type="MSShapeGroup"></path>
            <path d="M410.358,50.344 L410.349,53.964 L427.76,54.027 L427.743,50.288 C422.39,49.85 422.325,50.278 422.325,44.88 C422.325,41.681 422.06,37.141 422.354,34.103 C426.736,39.583 431.467,46.08 435.809,51.789 C437.019,53.379 437.238,54.036 440.015,54.027 C444.228,54.019 448.449,54.027 452.669,54.027 C452.651,52.183 452.513,33.58 452.743,32.531 C452.982,31.464 453.557,31.133 454.7,30.979 C455.788,30.833 456.881,30.728 457.989,30.596 C458.238,29.811 458.149,27.761 458.066,26.867 L440.71,26.87 C440.673,27.52 440.69,28.14 440.685,28.758 C440.685,29.067 440.666,29.436 440.676,29.729 C440.678,29.893 440.685,30.011 440.71,30.173 C440.908,31.363 443.65,30.3 445.269,31.329 C446.523,32.123 446.139,34.485 446.139,35.94 C446.139,39.279 446.371,43.545 446.1,46.768 C445.662,46.465 434.734,31.887 434.077,31.021 C430.386,26.213 431.923,26.87 424.359,26.87 C422.001,26.87 411.818,26.752 410.371,26.912 L410.332,29.899 C410.349,30.638 410.205,30.438 410.662,30.623 C412.885,31.505 415.796,29.501 415.779,34.183 L415.783,47.112 C415.761,50.838 413.361,49.651 410.358,50.344" id="Fill-5" fill="#FFFFFF" sketch:type="MSShapeGroup"></path>
            <path d="M496.241,26.828 L472.214,26.877 C472.214,26.877 456.7,26.902 456.7,40.574 C456.703,54.24 472.527,54.027 472.527,54.027 L496.241,54.027 L496.238,38.652 L476.192,38.652 C476.052,40.33 475.852,41.043 476.192,43.025 C477.984,43.27 480.148,43.27 483.944,43.361 C484.808,43.392 485.521,43.647 485.521,44.369 L485.525,47.765 C485.525,48.597 484.769,49.067 483.912,49.205 C483.057,49.351 476.604,49.28 476.358,49.28 C470.49,49.28 469.14,44.811 469.14,40.297 C469.14,35.872 470.631,31.556 476.425,31.556 L483.827,31.561 C484.366,31.561 485.517,32.069 485.517,33.333 C485.517,34.596 485.521,36.426 485.521,36.426 L496.238,36.411 C496.238,33.216 496.238,30.021 496.241,26.828" id="Fill-6" fill="#FFFFFF" sketch:type="MSShapeGroup"></path>
            <path d="M338.06,30.412 C336.554,30.412 335.067,30.628 334.065,31.03 C333.386,31.303 332.804,31.594 332.227,31.997 C331.832,32.27 331.429,32.59 331.017,33.001 C329.967,34.055 329.342,35.255 328.914,36.502 C328.508,37.688 328.337,38.853 328.337,40.299 C328.334,41.636 328.511,42.677 328.784,43.619 C329.18,44.956 329.823,46.081 330.908,47.473 C331.429,48.145 332.109,48.625 332.781,49.081 C332.906,49.166 333.05,49.239 333.187,49.317 C333.399,49.439 333.619,49.542 333.838,49.643 C335.136,50.236 336.528,50.427 338.157,50.427 C340.005,50.427 341.67,49.999 343.132,49.189 C343.682,48.88 344.207,48.535 344.689,48.102 C344.941,47.88 345.2,47.638 345.411,47.36 C346.684,45.708 347.298,44.601 347.532,42.958 C347.743,41.464 347.728,41.442 347.807,39.982 C347.859,39.155 347.796,38.47 347.699,37.858 C347.579,37.074 347.388,36.402 347.142,35.756 C346.771,34.798 346.259,33.848 345.139,32.74 C344.327,31.943 343.296,31.424 342.02,30.993 C340.772,30.566 339.331,30.412 338.06,30.412 M338.167,26.276 C341.977,26.235 346.777,26.765 350.396,27.993 C352.226,28.613 355.336,30.001 357.412,32.33 C359.614,34.798 360.267,37.514 360.364,39.351 C360.484,41.839 360.267,43.591 359.216,45.731 C357.458,49.292 353.804,51.895 348.845,53.223 C344.8,54.3 341.871,54.663 338.076,54.565 C337.353,54.549 336.607,54.57 335.854,54.549 C334.035,54.485 332.145,54.323 330.148,53.974 C328.642,53.71 327.127,53.349 325.435,52.727 C323.563,52.047 320.595,50.74 318.185,47.724 C316.276,45.34 315.775,42.67 315.772,40.076 C315.772,38.845 316.081,36.754 316.913,35.059 C317.853,33.148 318.942,31.919 320.362,30.783 C321.985,29.483 323.925,28.557 325.971,27.884 C328.49,27.058 331.21,26.624 333.812,26.427 C335.323,26.311 336.796,26.288 338.167,26.276" id="Fill-7" fill="#FFFFFF" sketch:type="MSShapeGroup"></path>
            <path d="M381.56,17.351 L389.06,27.454 L405.614,27.454 L393.505,35.038 L402.67,45.82 C384.974,29.457 360.577,27.229 360.577,27.229 L375.095,27.267 L381.56,17.351" id="Fill-8" fill="#AB2430" sketch:type="MSShapeGroup"></path>
            <path d="M403.603,46.994 C387.378,30.419 355.339,26.741 355.339,26.741 L374.663,26.479 L381.517,15.965 L389.459,26.661 L407.523,26.661 L394.703,35.224 L403.603,46.994 L403.603,46.994 Z M366.449,27.724 C373.735,29.239 388.217,33.947 397.105,40.177 L392.308,34.854 L402.856,28.246 L388.662,28.246 L381.603,18.737 L375.527,27.949 L366.449,27.724 L366.449,27.724 Z" id="Fill-9" fill="#FFFFFF" sketch:type="MSShapeGroup"></path>
            <path d="M408.225,50.556 C408.225,50.556 402.744,50.036 401.606,48.76 C401.606,48.76 394.08,40.589 383.614,36.098 C388.163,39.681 389.901,44.682 389.96,47.223 C389.991,48.566 389.007,49.882 387.574,50.249 C387.049,50.385 385.55,50.213 384.682,50.273 L384.672,54.027 L408.225,54.019 L408.225,50.556" id="Fill-10" fill="#FFFFFF" sketch:type="MSShapeGroup"></path>
            <path d="M372.871,43.244 L378.49,34.104 C377.035,33.63 374.056,32.436 372.351,32.09 C371.444,33.667 362.298,48.936 361.663,49.425 C360.782,50.111 358.201,50.205 356.864,50.264 L356.85,54.027 L374.263,54.019 L374.26,50.269 C368.865,50.038 370.407,47.004 372.871,43.244" id="Fill-11" fill="#FFFFFF" sketch:type="MSShapeGroup"></path>
            <path d="M123.394,64.357 L125.646,64.357 L129.725,71.523 L129.725,64.357 L131.727,64.357 L131.727,74.634 L129.579,74.634 L125.395,67.343 L125.395,74.634 L123.394,74.634 L123.394,64.357" id="Fill-12" fill="#FFFFFF" sketch:type="MSShapeGroup"></path>
            <path d="M133.729,74.636 L133.729,64.357 L135.863,64.357 L135.863,68.274 L139.858,68.274 L139.858,64.357 L141.992,64.357 L141.992,74.636 L139.858,74.636 L139.858,70.046 L135.863,70.046 L135.863,74.636 L133.729,74.636" id="Fill-13" fill="#FFFFFF" sketch:type="MSShapeGroup"></path>
            <path d="M146.854,70.751 L149.485,70.751 L148.186,66.706 L146.854,70.751 L146.854,70.751 Z M149.377,63.536 L147.94,63.536 L145.828,61.448 L148.038,61.448 L149.377,63.536 L149.377,63.536 Z M146.995,64.357 L149.424,64.357 L153.061,74.634 L150.731,74.634 L150.055,72.521 L146.268,72.521 L145.572,74.634 L143.327,74.634 L146.995,64.357 L146.995,64.357 Z" id="Fill-14" fill="#FFFFFF" sketch:type="MSShapeGroup"></path>
            <path d="M159.884,71.462 C159.95,71.932 160.081,72.283 160.275,72.516 C160.634,72.938 161.242,73.149 162.106,73.149 C162.624,73.149 163.042,73.095 163.367,72.984 C163.977,72.767 164.283,72.368 164.283,71.792 C164.283,71.45 164.135,71.187 163.834,71.004 C163.535,70.82 163.059,70.661 162.407,70.521 L161.295,70.278 C160.202,70.035 159.449,69.772 159.04,69.488 C158.348,69.015 158.001,68.274 158.001,67.267 C158.001,66.344 158.34,65.58 159.018,64.97 C159.695,64.36 160.69,64.058 162.005,64.058 C163.101,64.058 164.037,64.343 164.81,64.917 C165.584,65.49 165.99,66.327 166.027,67.417 L163.962,67.417 C163.926,66.801 163.647,66.361 163.134,66.101 C162.791,65.928 162.362,65.84 161.855,65.84 C161.289,65.84 160.837,65.954 160.497,66.177 C160.157,66.401 159.99,66.71 159.99,67.11 C159.99,67.478 160.157,67.754 160.491,67.935 C160.703,68.055 161.158,68.198 161.855,68.357 L163.658,68.785 C164.45,68.971 165.041,69.22 165.434,69.529 C166.05,70.015 166.354,70.714 166.354,71.629 C166.354,72.566 165.991,73.35 165.266,73.967 C164.539,74.591 163.513,74.901 162.192,74.901 C160.837,74.901 159.773,74.594 158.998,73.983 C158.222,73.373 157.836,72.53 157.836,71.462 L159.884,71.462" id="Fill-15" fill="#FFFFFF" sketch:type="MSShapeGroup"></path>
            <path d="M172.177,62.028 C172.128,61.985 172.076,61.955 172.025,61.933 C171.972,61.913 171.873,61.899 171.726,61.894 L171.354,61.889 L171.328,61.34 C171.429,61.324 171.543,61.311 171.666,61.302 C171.789,61.294 171.897,61.29 171.989,61.29 C172.227,61.29 172.456,61.327 172.68,61.404 C172.904,61.481 173.091,61.628 173.246,61.847 C173.288,61.905 173.322,61.985 173.353,62.084 C173.383,62.182 173.397,62.284 173.397,62.396 C173.397,62.49 173.385,62.586 173.357,62.682 C173.328,62.78 173.282,62.872 173.208,62.96 C173.14,63.044 173.046,63.12 172.928,63.184 C172.809,63.25 172.663,63.302 172.483,63.339 L172.387,63.644 L171.423,63.644 L171.474,63.116 C171.859,63.088 172.106,63.01 172.215,62.879 C172.326,62.748 172.38,62.608 172.38,62.451 C172.38,62.373 172.365,62.298 172.332,62.226 C172.299,62.153 172.248,62.089 172.177,62.028 L172.177,62.028 Z M170.659,70.751 L173.291,70.751 L171.992,66.706 L170.659,70.751 L170.659,70.751 Z M170.8,64.357 L173.232,64.357 L176.867,74.634 L174.539,74.634 L173.86,72.521 L170.075,72.521 L169.377,74.634 L167.133,74.634 L170.8,64.357 L170.8,64.357 Z" id="Fill-16" fill="#FFFFFF" sketch:type="MSShapeGroup"></path>
            <path d="M178.141,64.357 L180.39,64.357 L184.471,71.523 L184.471,64.357 L186.472,64.357 L186.472,74.634 L184.323,74.634 L180.142,67.343 L180.142,74.634 L178.141,74.634 L178.141,64.357" id="Fill-17" fill="#FFFFFF" sketch:type="MSShapeGroup"></path>
            <path d="M194.098,74.636 L191.603,74.636 L194.906,69.398 L191.759,64.357 L194.328,64.357 L196.16,67.705 L198.045,64.357 L200.526,64.357 L197.381,69.315 L200.723,74.636 L198.114,74.636 L196.16,71.13 L194.098,74.636" id="Fill-18" fill="#FFFFFF" sketch:type="MSShapeGroup"></path>
            <path d="M201.98,64.357 L204.163,64.357 L204.163,70.671 C204.163,71.375 204.248,71.891 204.413,72.216 C204.673,72.793 205.236,73.081 206.109,73.081 C206.973,73.081 207.538,72.793 207.797,72.216 C207.965,71.891 208.046,71.375 208.046,70.671 L208.046,64.357 L210.229,64.357 L210.229,70.673 C210.229,71.765 210.06,72.618 209.723,73.227 C209.088,74.343 207.887,74.899 206.109,74.899 C204.331,74.899 203.124,74.343 202.488,73.227 C202.15,72.618 201.98,71.765 201.98,70.673 L201.98,64.357" id="Fill-19" fill="#FFFFFF" sketch:type="MSShapeGroup"></path>
            <path d="M221.254,60.117 L219.134,62.202 L217.696,62.202 L219.035,60.117 L221.254,60.117 L221.254,60.117 Z M215.092,70.751 L217.723,70.751 L216.424,66.706 L215.092,70.751 L215.092,70.751 Z M219.022,63.5 L217.407,63.5 L216.499,62.328 L215.584,63.5 L213.967,63.5 L215.605,61.414 L217.391,61.414 L219.022,63.5 L219.022,63.5 Z M215.232,64.357 L217.662,64.357 L221.299,74.634 L218.971,74.634 L218.292,72.521 L214.506,72.521 L213.81,74.634 L211.564,74.634 L215.232,64.357 L215.232,64.357 Z" id="Fill-20" fill="#FFFFFF" sketch:type="MSShapeGroup"></path>
            <path d="M230.159,64.357 L230.159,66.177 L227.085,66.177 L227.085,74.634 L224.92,74.634 L224.92,66.177 L221.832,66.177 L221.832,64.357 L230.159,64.357" id="Fill-21" fill="#FFFFFF" sketch:type="MSShapeGroup"></path>
            <path d="M235.416,64.357 L237.527,64.357 L237.527,68.59 L241.501,64.357 L244.275,64.357 L240.057,68.583 L244.492,74.634 L241.731,74.634 L238.564,70.147 L237.527,71.199 L237.527,74.634 L235.416,74.634 L235.416,64.357" id="Fill-22" fill="#FFFFFF" sketch:type="MSShapeGroup"></path>
            <path d="M245.681,74.636 L245.681,64.357 L247.813,64.357 L247.813,68.274 L251.81,68.274 L251.81,64.357 L253.942,64.357 L253.942,74.636 L251.81,74.636 L251.81,70.046 L247.813,70.046 L247.813,74.636 L245.681,74.636" id="Fill-23" fill="#FFFFFF" sketch:type="MSShapeGroup"></path>
            <path d="M262.932,61.138 L260.81,63.219 L259.376,63.219 L260.716,61.138 L262.932,61.138 L262.932,61.138 Z M262.581,72.159 C263.078,71.532 263.33,70.641 263.33,69.48 C263.33,68.328 263.078,67.438 262.581,66.808 C262.08,66.179 261.405,65.863 260.556,65.863 C259.707,65.863 259.023,66.179 258.519,66.805 C258.011,67.432 257.761,68.326 257.761,69.48 C257.761,70.641 258.011,71.532 258.519,72.159 C259.023,72.788 259.707,73.101 260.556,73.101 C261.405,73.101 262.08,72.788 262.581,72.159 L262.581,72.159 Z M263.922,73.721 C263.147,74.521 262.024,74.921 260.556,74.921 C259.086,74.921 257.967,74.521 257.186,73.721 C256.145,72.741 255.624,71.326 255.624,69.48 C255.624,67.6 256.145,66.186 257.186,65.243 C257.967,64.444 259.086,64.044 260.556,64.044 C262.024,64.044 263.147,64.444 263.922,65.243 C264.959,66.186 265.478,67.6 265.478,69.48 C265.478,71.326 264.959,72.741 263.922,73.721 L263.922,73.721 Z" id="Fill-24" fill="#FFFFFF" sketch:type="MSShapeGroup"></path>
            <path d="M269.912,70.751 L272.546,70.751 L271.247,66.706 L269.912,70.751 L269.912,70.751 Z M270.056,64.357 L272.485,64.357 L276.122,74.634 L273.796,74.634 L273.112,72.521 L269.329,72.521 L268.634,74.634 L266.388,74.634 L270.056,64.357 L270.056,64.357 Z" id="Fill-25" fill="#FFFFFF" sketch:type="MSShapeGroup"></path>
            <path d="M281.855,65.432 C282.682,64.586 283.736,64.162 285.014,64.162 C286.728,64.162 287.975,64.728 288.767,65.863 C289.204,66.5 289.441,67.138 289.471,67.78 L287.322,67.78 C287.187,67.287 287.012,66.915 286.797,66.665 C286.415,66.218 285.848,65.994 285.097,65.994 C284.332,65.994 283.728,66.31 283.286,66.939 C282.848,67.572 282.623,68.461 282.623,69.616 C282.623,70.767 282.857,71.632 283.323,72.206 C283.785,72.778 284.379,73.065 285.1,73.065 C285.838,73.065 286.397,72.82 286.782,72.326 C286.997,72.061 287.173,71.663 287.315,71.133 L289.451,71.133 C289.268,72.256 288.797,73.165 288.039,73.867 C287.283,74.571 286.312,74.92 285.134,74.92 C283.668,74.92 282.521,74.447 281.683,73.497 C280.846,72.546 280.427,71.239 280.427,69.58 C280.427,67.785 280.904,66.403 281.855,65.432" id="Fill-26" fill="#FFFFFF" sketch:type="MSShapeGroup"></path>
            <path d="M291.175,74.636 L291.175,64.357 L293.305,64.357 L293.305,68.274 L297.301,68.274 L297.301,64.357 L299.434,64.357 L299.434,74.636 L297.301,74.636 L297.301,70.046 L293.305,70.046 L293.305,74.636 L291.175,74.636" id="Fill-27" fill="#FFFFFF" sketch:type="MSShapeGroup"></path>
            <path d="M301.501,64.357 L303.682,64.357 L303.682,70.671 C303.682,71.375 303.766,71.891 303.932,72.216 C304.193,72.793 304.756,73.081 305.628,73.081 C306.495,73.081 307.058,72.793 307.315,72.216 C307.483,71.891 307.568,71.375 307.568,70.671 L307.568,64.357 L309.749,64.357 L309.749,70.673 C309.749,71.765 309.579,72.618 309.239,73.227 C308.612,74.343 307.407,74.899 305.628,74.899 C303.851,74.899 302.644,74.343 302.007,73.227 C301.67,72.618 301.501,71.765 301.501,70.673 L301.501,64.357" id="Fill-28" fill="#FFFFFF" sketch:type="MSShapeGroup"></path>
            <path d="M317.678,64.357 L320.112,64.357 L316.675,70.779 L316.675,74.634 L314.526,74.634 L314.526,70.779 L310.97,64.357 L313.502,64.357 L315.635,68.833 L317.678,64.357" id="Fill-29" fill="#FFFFFF" sketch:type="MSShapeGroup"></path>
            <path d="M327.748,63.536 L326.129,63.536 L325.222,62.362 L324.31,63.536 L322.691,63.536 L324.33,61.448 L326.114,61.448 L327.748,63.536 L327.748,63.536 Z M328.938,66.177 L323.499,66.177 L323.499,68.357 L328.493,68.357 L328.493,70.144 L323.499,70.144 L323.499,72.788 L329.19,72.788 L329.19,74.636 L321.399,74.636 L321.399,64.357 L328.938,64.357 L328.938,66.177 L328.938,66.177 Z" id="Fill-30" fill="#FFFFFF" sketch:type="MSShapeGroup"></path>
            <path d="M330.83,64.357 L333.079,64.357 L337.16,71.523 L337.16,64.357 L339.161,64.357 L339.161,74.634 L337.014,74.634 L332.828,67.343 L332.828,74.634 L330.83,74.634 L330.83,64.357" id="Fill-31" fill="#FFFFFF" sketch:type="MSShapeGroup"></path>
            <path d="M345.109,64.357 L347.359,64.357 L351.441,71.523 L351.441,64.357 L353.441,64.357 L353.441,74.634 L351.293,74.634 L347.111,67.343 L347.111,74.634 L345.109,74.634 L345.109,64.357" id="Fill-32" fill="#FFFFFF" sketch:type="MSShapeGroup"></path>
            <path d="M362.369,67.565 C362.206,66.861 361.808,66.373 361.174,66.095 C360.822,65.938 360.429,65.862 359.996,65.862 C359.169,65.862 358.489,66.174 357.959,66.798 C357.426,67.425 357.16,68.362 357.16,69.614 C357.16,70.876 357.446,71.77 358.024,72.295 C358.602,72.819 359.257,73.081 359.99,73.081 C360.709,73.081 361.302,72.874 361.761,72.462 C362.223,72.047 362.506,71.505 362.613,70.836 L360.232,70.836 L360.232,69.118 L364.516,69.118 L364.516,74.634 L363.093,74.634 L362.878,73.353 C362.462,73.839 362.091,74.179 361.761,74.377 C361.195,74.726 360.497,74.899 359.67,74.899 C358.309,74.899 357.191,74.429 356.323,73.485 C355.417,72.538 354.964,71.241 354.964,69.599 C354.964,67.932 355.421,66.602 356.336,65.596 C357.253,64.595 358.463,64.09 359.971,64.09 C361.276,64.09 362.325,64.423 363.118,65.086 C363.909,65.75 364.364,66.575 364.479,67.565 L362.369,67.565" id="Fill-33" fill="#FFFFFF" sketch:type="MSShapeGroup"></path>
            <path d="M366.552,74.636 L366.552,64.357 L368.685,64.357 L368.685,68.274 L372.681,68.274 L372.681,64.357 L374.813,64.357 L374.813,74.636 L372.681,74.636 L372.681,70.046 L368.685,70.046 L368.685,74.636 L366.552,74.636" id="Fill-34" fill="#FFFFFF" sketch:type="MSShapeGroup"></path>
            <path d="M376.702,64.357 L378.837,64.357 L378.837,74.635 L376.702,74.635 L376.702,64.357 Z" id="Fill-35" fill="#FFFFFF" sketch:type="MSShapeGroup"></path>
            <path d="M383.893,76.922 L385.714,76.922 L385.714,75.271 L383.893,75.271 L383.893,76.922 Z M380.909,64.355 L380.909,74.636 L388.696,74.636 L388.696,72.786 L383.008,72.786 L383.008,70.142 L388,70.142 L388,68.358 L383.008,68.358 L383.008,66.177 L388.449,66.177 L388.449,64.355 L380.909,64.355 L380.909,64.355 Z M383.946,61.324 L382.309,63.409 L383.927,63.409 L384.841,62.238 L385.75,63.409 L387.364,63.409 L385.733,61.324 L383.946,61.324 L383.946,61.324 Z" id="Fill-36" fill="#FFFFFF" sketch:type="MSShapeGroup"></path>
            <path d="M395.634,66.484 C395.362,66.255 394.981,66.141 394.49,66.141 L392.554,66.141 L392.554,69.168 L394.49,69.168 C394.981,69.168 395.362,69.044 395.634,68.801 C395.908,68.553 396.042,68.162 396.042,67.627 C396.042,67.092 395.908,66.71 395.634,66.484 M397.272,70.186 C396.671,70.689 395.812,70.938 394.696,70.938 L392.554,70.938 L392.554,74.634 L390.422,74.634 L390.422,64.357 L394.835,64.357 C395.852,64.357 396.663,64.622 397.268,65.152 C397.873,65.681 398.175,66.504 398.175,67.611 C398.175,68.826 397.874,69.685 397.272,70.186" id="Fill-37" fill="#FFFFFF" sketch:type="MSShapeGroup"></path>
            <path d="M411.082,64.357 L411.082,66.177 L408.007,66.177 L408.007,74.634 L405.846,74.634 L405.846,66.177 L402.754,66.177 L402.754,64.357 L411.082,64.357" id="Fill-38" fill="#FFFFFF" sketch:type="MSShapeGroup"></path>
            <path d="M417.741,63.576 L416.304,63.576 L414.191,61.491 L416.401,61.491 L417.741,63.576 L417.741,63.576 Z M412.336,64.357 L414.518,64.357 L414.518,70.673 C414.518,71.381 414.601,71.897 414.769,72.222 C415.03,72.801 415.596,73.087 416.47,73.087 C417.343,73.087 417.908,72.801 418.165,72.222 C418.333,71.897 418.417,71.381 418.417,70.673 L418.417,64.357 L420.598,64.357 L420.598,66.177 L420.642,66.177 C420.959,66.21 421.335,66.12 421.756,65.91 L421.149,64.864 L422.949,63.827 L424.022,65.688 L422.467,66.587 C422.191,66.746 421.886,66.876 421.546,66.978 C421.227,67.072 420.912,67.089 420.598,67.025 L420.598,70.673 C420.598,71.765 420.426,72.618 420.089,73.227 C419.458,74.343 418.252,74.899 416.47,74.899 C414.69,74.899 413.483,74.343 412.845,73.227 C412.505,72.618 412.336,71.765 412.336,70.673 L412.336,64.357 L412.336,64.357 Z" id="Fill-39" fill="#FFFFFF" sketch:type="MSShapeGroup"></path>
            <path d="M429.378,64.357 L431.63,64.357 L435.708,71.523 L435.708,64.357 L437.712,64.357 L437.712,74.634 L435.563,74.634 L431.38,67.343 L431.38,74.634 L429.378,74.634 L429.378,64.357" id="Fill-40" fill="#FFFFFF" sketch:type="MSShapeGroup"></path>
            <path d="M442.521,70.751 L445.157,70.751 L443.858,66.706 L442.521,70.751 L442.521,70.751 Z M445.672,62.796 C445.26,63.136 444.696,63.305 443.98,63.305 C443.262,63.305 442.699,63.136 442.284,62.796 C441.873,62.459 441.632,61.933 441.575,61.22 L442.516,61.22 C442.58,61.645 442.805,61.94 443.185,62.092 C443.398,62.177 443.663,62.224 443.98,62.224 C444.293,62.224 444.56,62.177 444.775,62.092 C445.157,61.94 445.381,61.645 445.444,61.22 L446.384,61.22 C446.325,61.933 446.09,62.459 445.672,62.796 L445.672,62.796 Z M442.665,64.357 L445.096,64.357 L448.732,74.634 L446.405,74.634 L445.724,72.521 L441.937,72.521 L441.243,74.634 L438.996,74.634 L442.665,64.357 L442.665,64.357 Z" id="Fill-41" fill="#FFFFFF" sketch:type="MSShapeGroup"></path>
            <path d="M456.857,64.357 L459.949,64.357 L459.949,74.634 L457.947,74.634 L457.947,67.684 C457.947,67.482 457.95,67.203 457.954,66.844 C457.959,66.482 457.96,66.207 457.96,66.011 L456.013,74.634 L453.926,74.634 L451.991,66.011 C451.991,66.207 451.996,66.482 451.997,66.844 C452.004,67.203 452.009,67.482 452.009,67.684 L452.009,74.634 L450.005,74.634 L450.005,64.357 L453.132,64.357 L455.003,72.438 L456.857,64.357" id="Fill-42" fill="#FFFFFF" sketch:type="MSShapeGroup"></path>
            <path d="M465.805,67.661 L465.805,66.31 C466.433,66.28 466.872,66.24 467.12,66.184 C467.519,66.096 467.844,65.918 468.095,65.653 C468.266,65.473 468.396,65.231 468.484,64.928 C468.535,64.747 468.56,64.613 468.56,64.522 L470.22,64.522 L470.22,74.636 L468.185,74.636 L468.185,67.661 L465.805,67.661" id="Fill-43" fill="#FFFFFF" sketch:type="MSShapeGroup"></path>
            <path d="M477.466,69.462 C477.915,69.175 478.141,68.673 478.141,67.961 C478.141,67.391 478.009,66.936 477.742,66.602 C477.476,66.268 477.106,66.1 476.64,66.1 C476.304,66.1 476.014,66.196 475.769,66.388 C475.391,66.683 475.199,67.188 475.199,67.9 C475.199,68.499 475.319,68.946 475.565,69.249 C475.809,69.547 476.182,69.699 476.692,69.699 C476.965,69.699 477.224,69.619 477.466,69.462 M474.121,65.449 C474.747,64.776 475.56,64.441 476.559,64.441 C478.097,64.441 479.15,65.121 479.725,66.484 C480.05,67.257 480.213,68.269 480.213,69.529 C480.213,70.753 480.06,71.774 479.746,72.593 C479.15,74.149 478.058,74.928 476.468,74.928 C475.71,74.928 475.03,74.705 474.425,74.255 C473.821,73.807 473.476,73.151 473.386,72.293 L475.368,72.293 C475.412,72.589 475.539,72.833 475.742,73.016 C475.949,73.204 476.221,73.297 476.559,73.297 C477.214,73.297 477.674,72.934 477.939,72.21 C478.084,71.809 478.173,71.225 478.211,70.46 C478.028,70.686 477.837,70.86 477.632,70.981 C477.261,71.204 476.803,71.316 476.261,71.316 C475.456,71.316 474.742,71.038 474.118,70.481 C473.495,69.928 473.181,69.126 473.181,68.079 C473.181,66.998 473.497,66.121 474.121,65.449" id="Fill-44" fill="#FFFFFF" sketch:type="MSShapeGroup"></path>
            <path d="M488.232,66.213 C487.935,66.505 487.522,67.027 486.988,67.775 C486.459,68.525 486.013,69.304 485.655,70.103 C485.372,70.73 485.115,71.497 484.886,72.405 C484.658,73.311 484.545,74.056 484.545,74.636 L482.479,74.636 C482.54,72.822 483.137,70.938 484.267,68.979 C484.997,67.768 485.608,66.92 486.104,66.44 L481.063,66.44 L481.091,64.656 L488.232,64.656 L488.232,66.213" id="Fill-45" fill="#FFFFFF" sketch:type="MSShapeGroup"></path>
            <path d="M493.351,69.462 C493.804,69.175 494.026,68.673 494.026,67.961 C494.026,67.391 493.894,66.936 493.625,66.602 C493.358,66.268 492.994,66.1 492.527,66.1 C492.19,66.1 491.899,66.196 491.657,66.388 C491.275,66.683 491.085,67.188 491.085,67.9 C491.085,68.499 491.207,68.946 491.451,69.249 C491.694,69.547 492.068,69.699 492.578,69.699 C492.852,69.699 493.111,69.619 493.351,69.462 M490.007,65.449 C490.633,64.776 491.444,64.441 492.444,64.441 C493.982,64.441 495.036,65.121 495.608,66.484 C495.935,67.257 496.097,68.269 496.097,69.529 C496.097,70.753 495.942,71.774 495.63,72.593 C495.035,74.149 493.943,74.928 492.353,74.928 C491.596,74.928 490.914,74.705 490.31,74.255 C489.706,73.807 489.359,73.151 489.273,72.293 L491.254,72.293 C491.296,72.589 491.425,72.833 491.63,73.016 C491.833,73.204 492.104,73.297 492.444,73.297 C493.1,73.297 493.56,72.934 493.825,72.21 C493.968,71.809 494.06,71.225 494.097,70.46 C493.916,70.686 493.725,70.86 493.518,70.981 C493.146,71.204 492.688,71.316 492.145,71.316 C491.34,71.316 490.628,71.038 490.004,70.481 C489.381,69.928 489.067,69.126 489.067,68.079 C489.067,66.998 489.381,66.121 490.007,65.449" id="Fill-46" fill="#FFFFFF" sketch:type="MSShapeGroup"></path>
            <path d="M78.036,72.51 C77.714,71.671 77.706,70.748 77.696,69.779 C77.684,68.387 77.669,66.941 76.677,65.686 C76.416,65.354 76.264,64.975 76.309,64.116 C76.366,63.059 75.516,61.257 74.833,59.804 C74.644,59.402 74.477,59.054 74.368,58.784 C74.252,58.514 74.377,58.223 74.585,57.812 C74.692,57.594 74.797,57.392 74.841,57.174 C74.899,56.881 74.857,56.488 74.769,56.086 C76.581,57.365 79.453,58.812 82.401,58.686 C83.218,58.655 83.553,58.625 83.8,58.605 C83.868,58.602 83.93,58.598 83.991,58.591 C83.584,59.604 82.998,60.708 82.63,61.225 C82.09,61.971 81.336,63.993 80.896,65.512 C80.805,65.837 80.736,66.114 80.67,66.367 C80.453,67.246 80.318,67.773 79.502,68.971 C78.466,70.495 77.901,71.396 78.036,72.51 L78.036,72.51 Z M32.455,71.729 C32.394,71.32 32.389,70.886 32.384,70.438 C32.374,69.382 32.363,68.291 31.601,67.33 C31.424,67.099 31.32,66.835 31.352,66.234 C31.392,65.483 30.877,64.32 30.249,62.986 C30.112,62.691 29.985,62.427 29.899,62.221 C29.835,62.066 29.921,61.872 30.061,61.597 C30.14,61.435 30.221,61.271 30.258,61.095 C30.293,60.927 30.287,60.728 30.258,60.518 C31.625,61.435 33.669,62.393 35.768,62.309 C36.326,62.291 36.587,62.269 36.765,62.255 C36.471,62.947 36.087,63.664 35.836,64.013 C35.402,64.626 34.813,66.265 34.534,67.233 C34.466,67.474 34.415,67.68 34.366,67.872 C34.204,68.512 34.11,68.9 33.517,69.77 C32.977,70.565 32.596,71.15 32.455,71.729 L32.455,71.729 Z M108.529,72.313 C108.591,71.817 108.708,71.794 109.074,71.794 C109.241,71.794 109.442,71.813 109.617,71.828 C110.02,71.871 110.356,72 110.41,72.059 C110.459,72.174 110.443,72.621 110.337,73.148 C110.315,73.191 110.11,73.306 109.642,73.306 C109.398,73.306 109.128,73.276 108.881,73.218 C108.433,73.115 108.433,73.115 108.529,72.313 L108.529,72.313 Z M105.424,72.25 C105.519,71.739 105.639,71.652 106.218,71.652 C106.345,71.652 106.482,71.656 106.634,71.664 C107.009,71.684 107.311,71.779 107.402,71.843 C107.43,71.989 107.38,72.431 107.246,72.904 C107.218,73.017 106.816,73.218 106.156,73.218 C105.987,73.218 105.818,73.208 105.665,73.177 C105.393,73.13 105.343,73.073 105.343,73.073 C105.285,72.984 105.38,72.486 105.424,72.25 L105.424,72.25 Z M88.95,48.901 C88.977,48.898 89.007,48.895 89.038,48.895 C89.331,48.895 89.834,49.072 90.018,49.553 C90.281,50.246 90.428,50.824 90.33,51.556 C90.208,52.493 90.442,53.481 90.898,53.956 C91.29,54.363 92.132,54.886 92.739,55.105 C92.962,55.186 93.324,55.263 93.746,55.351 C94.407,55.493 95.31,55.684 95.635,55.895 C95.959,56.106 96.501,56.293 97.076,56.491 C97.674,56.699 98.354,56.937 98.661,57.162 C99.327,57.655 100.324,58.394 100.658,58.645 C100.89,58.816 101.104,59.194 101.043,59.467 L101.011,59.612 C100.935,59.968 100.934,59.973 100.769,60.095 L100.665,60.172 C100.453,60.325 100.163,60.535 100.185,60.899 C100.209,61.278 100.58,61.478 100.721,61.553 C100.994,61.7 101.228,61.796 101.472,61.796 C101.672,61.796 101.823,61.734 101.97,61.674 C102.007,61.656 102.047,61.639 102.091,61.622 C102.268,61.553 102.398,61.455 102.506,61.379 C102.513,61.37 102.525,61.363 102.537,61.355 C102.752,61.6 103.057,61.86 103.352,62.11 C103.613,62.327 103.883,62.558 104.022,62.727 C104.209,62.945 104.685,63.392 105.237,63.909 C105.716,64.36 106.212,64.833 106.419,65.059 C106.583,65.242 106.748,65.407 106.902,65.56 C107.148,65.805 107.358,66.016 107.472,66.215 C107.545,66.35 107.643,66.515 107.746,66.685 C107.939,67.01 108.16,67.386 108.257,67.602 C108.287,67.663 108.272,67.738 108.218,67.822 C108.126,67.965 107.951,68.072 107.816,68.072 C107.769,68.072 107.714,68.063 107.655,67.958 C107.445,67.57 107.114,67.127 106.409,67.127 C106.368,67.127 106.328,67.127 106.285,67.13 C105.48,67.184 105.263,67.769 105.173,68.018 C105.145,68.091 105.124,68.155 105.107,68.214 C105.102,68.232 105.098,68.252 105.09,68.267 C105.079,68.274 105.059,68.279 105.029,68.291 C104.849,68.343 104.615,68.411 104.452,68.421 C104.452,68.396 104.452,68.366 104.455,68.328 C104.509,67.752 104.671,66.001 102.701,63.748 C100.831,61.612 98.321,60.525 96.484,59.727 L96.447,59.712 C95.289,59.329 94.814,59.16 94.63,59.096 C94.616,59.077 94.606,59.062 94.597,59.042 C94.338,58.648 94.268,58.598 93.58,58.158 C93.205,57.92 92.708,57.722 92.232,57.53 C91.726,57.326 91.155,57.096 90.938,56.888 C90.747,56.695 90.615,56.362 90.473,56.01 C90.317,55.615 90.152,55.205 89.864,54.869 C89.672,54.64 89.452,54.459 89.24,54.282 C88.865,53.976 88.544,53.712 88.455,53.264 C88.337,52.647 88.457,52.219 88.598,51.717 C88.639,51.575 88.677,51.43 88.716,51.28 C88.838,50.764 88.764,50.269 88.71,49.906 L88.95,48.901 Z M85.748,72.253 C85.776,71.782 85.99,71.536 87.081,71.507 L87.153,71.503 C87.505,71.503 87.748,71.576 87.816,71.617 C87.864,71.76 87.87,72.211 87.799,72.71 C87.785,72.817 87.303,73.06 86.568,73.06 C86.476,73.06 86.385,73.059 86.3,73.051 C85.773,72.996 85.705,72.989 85.748,72.253 L85.748,72.253 Z M79.308,72.506 C79.322,71.901 79.453,71.753 79.478,71.725 C79.529,71.679 79.713,71.562 80.302,71.521 C80.429,71.514 80.543,71.512 80.651,71.512 C81.036,71.512 81.149,71.571 81.182,71.607 C81.214,71.637 81.28,71.753 81.264,72.161 C81.236,73.019 80.959,73.019 80.64,73.019 C80.57,73.019 80.497,73.017 80.42,73.01 C79.908,72.955 79.299,72.824 79.308,72.506 L79.308,72.506 Z M75.663,76.038 C75.689,75.677 75.784,75.402 76.777,75.402 L76.852,75.402 C77.301,75.41 77.396,75.48 77.394,75.471 C77.45,75.562 77.496,75.937 77.44,76.134 C77.354,76.416 76.791,76.732 76.154,76.692 C75.772,76.664 75.705,76.604 75.7,76.596 C75.682,76.578 75.631,76.482 75.663,76.038 L75.663,76.038 Z M72.542,77.267 C72.074,77.189 72.065,77.189 72.176,76.492 C72.247,76.033 72.354,75.916 73.166,75.916 C73.261,75.916 73.365,75.918 73.471,75.918 C73.932,75.931 74.295,76.033 74.35,76.073 C74.382,76.144 74.391,76.432 74.275,76.894 C74.205,77.029 73.598,77.29 72.856,77.29 C72.738,77.29 72.631,77.282 72.542,77.267 L72.542,77.267 Z M59.491,74.644 C59.465,74.577 59.447,74.406 59.475,73.969 C59.505,73.532 59.602,73.338 60.418,73.338 L60.504,73.338 C60.827,73.345 60.956,73.388 61.002,73.406 C61.01,73.459 61.01,73.605 60.915,73.947 C60.827,74.267 60.373,74.531 59.734,74.632 C59.677,74.64 59.622,74.644 59.582,74.646 L59.537,74.646 C59.519,74.646 59.498,74.644 59.491,74.644 L59.491,74.644 Z M53.224,74.627 L53.222,74.627 C53.183,74.531 53.266,74.097 53.305,73.889 C53.4,73.383 53.532,73.286 54.127,73.286 C54.256,73.286 54.397,73.296 54.546,73.304 C54.937,73.321 55.246,73.418 55.338,73.482 C55.362,73.613 55.331,73.996 55.183,74.541 C55.164,74.601 54.895,74.781 54.223,74.781 C54.009,74.781 53.786,74.762 53.578,74.727 C53.298,74.679 53.229,74.627 53.224,74.627 L53.224,74.627 Z M44.132,61.703 C43.843,61.52 43.467,61.37 43.109,61.225 C42.743,61.079 42.334,60.914 42.19,60.772 C42.065,60.649 41.971,60.413 41.871,60.164 C41.756,59.872 41.624,59.548 41.4,59.28 C41.251,59.102 41.083,58.966 40.917,58.831 C40.617,58.586 40.432,58.421 40.378,58.142 C40.293,57.714 40.375,57.422 40.481,57.051 C40.513,56.943 40.542,56.833 40.568,56.719 C40.666,56.312 40.607,55.932 40.566,55.652 C40.554,55.573 40.538,55.461 40.542,55.418 C40.583,55.198 40.624,55.067 40.645,55.041 C40.832,55.014 41.185,55.117 41.312,55.45 C41.502,55.945 41.607,56.357 41.541,56.881 C41.444,57.609 41.63,58.385 41.994,58.76 C42.3,59.077 42.948,59.479 43.404,59.644 C43.58,59.705 43.84,59.759 44.169,59.83 C44.625,59.926 45.31,60.073 45.536,60.218 C45.787,60.383 46.176,60.518 46.627,60.676 C47.068,60.828 47.561,61 47.775,61.155 C48.248,61.506 48.934,62.014 49.216,62.224 L49.263,62.255 C49.399,62.358 49.533,62.601 49.499,62.754 L49.476,62.859 C49.429,63.085 49.429,63.085 49.346,63.151 L49.27,63.205 C49.097,63.328 48.841,63.512 48.862,63.845 C48.885,64.192 49.213,64.369 49.319,64.427 C49.541,64.546 49.728,64.621 49.933,64.621 C50.104,64.621 50.236,64.567 50.35,64.522 L50.438,64.484 C50.548,64.442 50.638,64.384 50.708,64.335 C50.87,64.499 51.064,64.663 51.257,64.827 C51.447,64.99 51.643,65.154 51.742,65.272 C51.874,65.43 52.196,65.731 52.571,66.088 C52.369,66.632 52.157,67.099 51.947,67.424 C51.72,66.907 51.384,66.391 50.935,65.878 C49.533,64.273 47.649,63.458 46.276,62.859 L46.237,62.849 C45.445,62.584 45.081,62.459 44.928,62.405 L44.923,62.397 C44.721,62.087 44.647,62.033 44.132,61.703 L44.132,61.703 Z M38.395,72.697 C38.389,72.69 38.349,72.613 38.367,72.28 C38.379,72.074 38.392,71.863 39.24,71.836 L39.281,71.836 C39.467,71.836 39.612,71.863 39.686,71.886 C39.704,71.996 39.706,72.243 39.663,72.572 C39.59,72.644 39.281,72.759 38.862,72.759 C38.796,72.759 38.735,72.756 38.673,72.751 C38.452,72.728 38.396,72.695 38.396,72.695 L38.395,72.697 L38.395,72.697 Z M35.466,70.171 C35.697,69.741 35.96,69.25 36.097,68.826 C36.2,68.498 36.215,68.151 36.23,67.82 C36.246,67.481 36.258,67.159 36.365,66.916 C36.471,66.654 36.663,66.353 36.847,66.058 C37.065,65.714 37.268,65.387 37.382,65.085 L37.558,64.616 C37.816,63.929 38.084,63.215 38.177,62.775 C38.213,62.601 38.352,62.466 38.494,62.466 C38.535,62.466 38.579,62.474 38.621,62.496 C38.769,62.569 38.934,62.607 39.11,62.607 C39.447,62.607 39.776,62.469 40.098,62.339 C40.393,62.216 40.699,62.091 40.976,62.091 C41.014,62.091 41.051,62.091 41.093,62.098 C41.185,62.11 41.273,62.112 41.363,62.11 C41.451,62.11 41.537,62.102 41.615,62.091 C41.476,62.194 41.247,62.323 40.914,62.45 C40.692,62.53 40.303,62.558 39.96,62.584 C39.318,62.631 38.761,62.668 38.486,63.029 C38.363,63.186 38.321,63.389 38.36,63.599 C38.505,64.335 39.006,64.41 39.279,64.452 C39.374,64.464 39.44,64.478 39.492,64.499 C39.436,64.71 39.096,65.158 38.866,65.308 C38.832,65.331 38.735,65.333 38.662,65.333 C38.496,65.341 38.216,65.354 38.047,65.605 C37.873,65.87 37.987,66.172 38.023,66.271 C38.072,66.406 37.88,66.682 37.675,66.98 C37.543,67.164 37.399,67.378 37.264,67.62 C37.023,68.046 36.984,68.474 36.951,68.849 C36.916,69.222 36.89,69.517 36.697,69.776 C36.471,70.078 36.253,70.12 35.924,70.189 C35.756,70.223 35.568,70.263 35.373,70.335 C35.402,70.281 35.433,70.227 35.466,70.171 L35.466,70.171 Z M30.873,75.098 C30.887,74.899 30.899,74.732 31.585,74.732 L31.635,74.732 C31.816,74.734 31.911,74.749 31.957,74.767 C31.979,74.861 31.989,75.037 31.964,75.125 C31.921,75.272 31.56,75.485 31.129,75.459 C30.979,75.447 30.908,75.432 30.877,75.42 C30.87,75.382 30.86,75.294 30.873,75.098 L30.873,75.098 Z M18.845,73.559 C18.86,73.311 18.867,73.195 19.435,73.195 L19.494,73.2 C19.616,73.2 19.698,73.211 19.745,73.218 C19.741,73.276 19.727,73.365 19.687,73.502 C19.634,73.693 19.319,73.861 18.902,73.927 C18.882,73.932 18.86,73.935 18.838,73.939 C18.831,73.87 18.831,73.755 18.845,73.559 L18.845,73.559 Z M16.526,73.551 C16.563,73.252 16.57,73.202 17.079,73.202 C17.146,73.202 17.214,73.208 17.291,73.208 C17.514,73.216 17.708,73.256 17.797,73.291 C17.808,73.402 17.797,73.643 17.731,73.957 C17.67,74.003 17.458,74.079 17.08,74.079 C16.951,74.079 16.812,74.069 16.685,74.051 C16.582,74.033 16.524,74.018 16.49,74.008 C16.482,73.9 16.512,73.669 16.526,73.551 L16.526,73.551 Z M17.486,60.972 C17.535,60.969 17.572,60.969 17.609,60.969 C17.665,60.969 17.68,60.969 17.743,61.011 C17.77,61.178 17.685,61.607 17.64,61.848 C17.601,62.044 17.565,62.232 17.547,62.4 C17.535,62.53 17.509,62.686 17.48,62.867 C17.382,63.485 17.248,64.33 17.329,65.224 C17.34,65.357 17.388,66.016 17.194,66.035 C16.263,66.134 16.126,66.682 16.126,66.995 C16.126,67.595 16.769,67.738 17.114,67.815 C17.151,67.822 17.192,67.835 17.233,67.842 C17.184,67.919 17.114,67.999 17.083,68.038 C16.882,68.287 16.783,68.607 16.692,68.896 C16.641,69.06 16.592,69.222 16.536,69.32 C16.402,69.559 16.034,69.834 15.917,69.867 C15.466,69.967 15.227,70.235 15.137,70.741 L15.132,70.775 C15.078,71.066 14.993,71.562 14.674,71.714 C14.63,71.732 14.526,71.755 14.373,71.755 C13.798,71.755 13.216,71.468 13.172,71.293 C13.079,70.933 13.613,70.066 13.97,69.496 C14.247,69.048 14.51,68.627 14.631,68.272 C15.001,67.184 15.411,65.889 15.617,64.511 C15.763,63.466 16.846,61.749 17.391,60.972 L17.486,60.972 L17.486,60.972 Z M10.612,39.502 C10.742,39.498 10.865,39.498 10.975,39.498 C12.145,39.498 12.352,39.72 12.533,39.919 C12.564,39.953 12.601,39.992 12.643,40.029 C12.194,40.159 11.438,40.289 10.367,40.289 C9.617,40.289 8.926,40.233 8.294,40.133 C9.1,40.019 9.875,39.808 10.612,39.502 L10.612,39.502 Z M52.754,50.403 C52.581,50.538 52.325,50.587 52.157,50.587 C52.101,50.587 52.061,50.584 52.055,50.578 C51.915,50.407 51.752,50.284 51.391,50.25 C51.349,50.246 51.311,50.246 51.277,50.246 C51.081,50.246 50.923,50.309 50.809,50.427 C50.624,50.618 50.637,50.855 50.645,51.061 C50.65,51.165 50.655,51.284 50.645,51.423 C50.609,51.882 50.483,52.107 50.224,52.476 C50.009,52.778 49.653,52.961 48.943,53.264 C48.843,53.307 48.729,53.324 48.603,53.324 C48.179,53.324 47.718,53.072 47.564,52.896 C47.397,52.704 47.21,51.901 47.21,51.389 C47.21,51.135 47.171,50.844 47.133,50.534 C47.089,50.185 47.04,49.79 47.039,49.427 C47.037,48.496 46.398,48.221 45.835,47.98 L45.632,47.889 C45.472,47.819 45.303,47.78 45.138,47.78 C44.583,47.78 44.169,48.163 43.766,48.533 C43.633,48.658 43.496,48.783 43.36,48.887 C43.23,48.99 43.127,49.039 43.056,49.039 C42.963,49.039 42.816,48.972 42.634,48.88 C42.511,48.818 42.37,48.749 42.212,48.681 C41.766,48.496 41.377,47.821 40.968,47.111 C40.864,46.933 40.761,46.75 40.649,46.569 C40.11,45.678 39.443,44.978 38.612,44.433 C38.384,44.284 38.152,44.211 37.909,44.211 C37.594,44.211 37.322,44.334 37.058,44.452 C36.863,44.54 36.66,44.629 36.43,44.676 C35.899,44.774 35.441,44.383 35.093,44.073 L35.044,44.033 C34.87,43.876 34.659,43.789 34.435,43.789 C34.143,43.789 33.891,43.93 33.688,44.04 C33.596,44.089 33.5,44.143 33.432,44.162 C33.381,44.162 33.267,44.055 33.225,43.951 C33.298,43.771 33.558,43.331 33.77,42.97 C33.873,42.798 33.977,42.617 34.082,42.438 C34.357,41.961 34.627,41.457 34.783,41.154 C36.023,41.29 40.888,41.875 44.967,43.357 C50.553,45.384 52.771,48.814 53.022,49.553 C53.164,49.986 53.057,50.167 52.754,50.403 L52.754,50.403 Z M54.144,60.218 C54.113,60.164 54.088,60.114 54.069,60.068 C54.101,60.095 54.137,60.125 54.169,60.152 C54.16,60.177 54.152,60.195 54.144,60.218 L54.144,60.218 Z M57.797,56.883 C57.862,56.883 57.915,56.881 57.967,56.881 C58.089,56.881 58.119,56.881 58.289,57.001 C58.368,57.192 58.234,57.879 58.165,58.249 C58.114,58.51 58.065,58.76 58.042,58.976 C58.023,59.157 57.989,59.367 57.951,59.612 C57.82,60.436 57.64,61.566 57.746,62.749 C57.851,63.972 57.535,64.002 57.428,64.008 C56.297,64.128 56.128,64.773 56.128,65.15 C56.132,65.824 56.857,65.989 57.338,66.1 C57.451,66.123 57.61,66.161 57.7,66.192 C57.66,66.31 57.455,66.563 57.384,66.652 C57.132,66.961 57.009,67.359 56.887,67.747 C56.813,67.979 56.745,68.202 56.66,68.355 C56.452,68.726 55.909,69.121 55.723,69.163 C55.183,69.283 54.907,69.597 54.795,70.216 L54.788,70.258 C54.714,70.684 54.589,71.396 54.085,71.637 C54.037,71.66 53.897,71.714 53.615,71.714 C52.849,71.714 51.938,71.33 51.847,70.967 C51.706,70.419 52.418,69.266 52.939,68.429 C53.308,67.835 53.654,67.271 53.815,66.811 C54.31,65.365 54.852,63.638 55.134,61.784 C55.36,60.157 57.099,57.591 57.593,56.891 C57.669,56.888 57.735,56.883 57.797,56.883 L57.797,56.883 Z M48.519,27.994 C48.707,27.986 48.88,27.981 49.041,27.981 C50.684,27.981 50.985,28.308 51.253,28.599 C51.345,28.701 51.452,28.816 51.599,28.919 C51.028,29.12 49.909,29.364 48.224,29.364 C46.756,29.364 45.459,29.196 44.339,28.952 C45.803,28.858 47.207,28.537 48.519,27.994 L48.519,27.994 Z M105.363,42.94 C105.1,43.146 104.727,43.22 104.466,43.22 C104.332,43.22 104.255,43.2 104.242,43.198 C104.229,43.188 104.229,43.188 104.198,43.151 C104.036,42.948 103.847,42.811 103.416,42.767 C103.365,42.763 103.319,42.76 103.279,42.76 C103.06,42.76 102.884,42.828 102.759,42.959 C102.562,43.166 102.574,43.433 102.586,43.694 C102.591,43.84 102.597,44 102.586,44.2 C102.539,44.833 102.372,45.157 101.989,45.694 C101.679,46.131 101.185,46.391 100.201,46.812 C100.044,46.872 99.872,46.907 99.683,46.907 C99.054,46.907 98.398,46.539 98.164,46.271 C97.893,45.965 97.65,44.825 97.65,44.143 C97.65,43.813 97.601,43.418 97.545,43.007 C97.487,42.537 97.42,42.003 97.417,41.508 C97.415,40.348 96.676,40.029 95.894,39.696 C95.801,39.659 95.711,39.616 95.617,39.577 C95.421,39.488 95.218,39.443 95.019,39.443 C94.331,39.443 93.794,39.94 93.275,40.42 C93.095,40.585 92.907,40.759 92.719,40.902 C92.445,41.117 92.3,41.14 92.215,41.14 C92.054,41.14 91.852,41.04 91.576,40.907 C91.411,40.822 91.227,40.73 91.018,40.642 C90.37,40.374 89.836,39.447 89.272,38.468 C89.133,38.226 88.992,37.984 88.843,37.739 C88.13,36.561 87.248,35.633 86.15,34.913 C85.868,34.73 85.585,34.642 85.286,34.642 C84.894,34.642 84.546,34.799 84.206,34.947 C83.933,35.07 83.65,35.198 83.323,35.26 C83.233,35.276 83.14,35.284 83.05,35.284 C82.366,35.284 81.799,34.78 81.39,34.408 L81.328,34.354 C81.118,34.17 80.877,34.074 80.612,34.074 C80.261,34.074 79.955,34.242 79.683,34.388 C79.545,34.467 79.415,34.535 79.31,34.569 C79.127,34.623 78.874,34.343 78.819,34.128 C78.891,33.91 79.269,33.271 79.576,32.751 C79.713,32.513 79.858,32.267 80.002,32.02 C80.397,31.329 80.791,30.593 80.995,30.208 C82.479,30.36 89.201,31.145 94.842,33.186 C103.517,36.335 105.761,41.576 105.775,41.627 C105.997,42.285 105.81,42.587 105.363,42.94 L105.363,42.94 Z M106.875,55.834 C106.813,55.652 106.762,55.478 106.716,55.301 C106.806,55.396 106.898,55.488 106.998,55.577 C107.159,55.73 107.373,55.905 107.602,56.094 C107.955,56.382 108.433,56.771 108.567,56.979 C108.674,57.14 108.724,57.254 108.75,57.321 C108.632,57.319 108.462,57.297 108.284,57.239 C107.835,57.096 107.055,56.377 106.875,55.834 L106.875,55.834 Z M104.057,44.746 C104.9,45.854 104.902,48.267 104.907,50.603 C104.91,52.601 104.912,54.658 105.412,56.202 C104.595,55.39 103.873,54.279 103.32,52.471 C102.992,51.384 103.613,46.55 104.057,44.746 L104.057,44.746 Z M62.842,31.207 L62.746,31.103 L62.667,30.993 L62.842,31.207 L62.842,31.207 Z M96.484,42.944 C96.484,42.944 96.428,43.017 96.138,43.082 C96.092,43.093 96.006,43.12 95.896,43.161 C95.594,43.266 95.033,43.469 94.567,43.469 C94.348,43.469 94.192,43.424 94.111,43.334 C93.912,43.116 93.524,42.013 93.524,41.683 C93.644,41.503 93.821,41.343 94.041,41.144 C94.123,41.072 94.209,40.994 94.294,40.914 C94.575,40.65 94.914,40.551 95.026,40.539 C95.272,40.569 96.067,40.894 96.202,41.068 C96.356,41.266 96.357,41.351 96.362,41.653 C96.364,41.894 96.369,42.22 96.462,42.701 C96.497,42.887 96.486,42.936 96.484,42.944 L96.484,42.944 Z M106.135,46.426 C106.013,45.709 105.75,44.981 105.539,44.472 C105.797,44.433 106.007,44.336 106.171,44.216 C106.18,44.275 106.187,44.343 106.192,44.407 C106.229,44.985 106.225,45.938 106.174,46.651 C106.163,46.578 106.151,46.501 106.135,46.426 L106.135,46.426 Z M18.619,40.24 L18.588,40.133 L18.592,40.121 L18.749,40.466 L18.619,40.24 L18.619,40.24 Z M45.949,50.487 C45.913,50.495 45.842,50.517 45.746,50.549 C45.529,50.625 45.124,50.77 44.802,50.77 C44.679,50.77 44.586,50.749 44.551,50.71 C44.421,50.56 44.173,49.855 44.15,49.593 C44.23,49.48 44.348,49.376 44.494,49.247 C44.551,49.189 44.618,49.136 44.682,49.075 C44.852,48.914 45.064,48.841 45.143,48.828 C45.319,48.86 45.828,49.066 45.928,49.174 C46.015,49.289 46.015,49.318 46.02,49.537 C46.022,49.722 46.025,49.975 46.098,50.343 C46.107,50.386 46.11,50.415 46.114,50.434 C46.083,50.448 46.032,50.468 45.949,50.487 L45.949,50.487 Z M51.908,52.135 C52.364,53.004 52.367,54.619 52.372,56.189 C52.372,57.487 52.374,58.82 52.625,59.911 C52.162,59.356 51.747,58.617 51.419,57.54 C51.192,56.799 51.586,53.619 51.908,52.135 L51.908,52.135 Z M53.116,51.72 C53.193,51.698 53.264,51.67 53.328,51.64 C53.339,51.844 53.344,52.096 53.344,52.361 C53.271,52.127 53.19,51.909 53.116,51.72 L53.116,51.72 Z M81.86,69.339 C82.172,68.77 82.521,68.122 82.701,67.566 C82.834,67.142 82.855,66.685 82.874,66.245 C82.896,65.778 82.914,65.333 83.064,64.977 C83.218,64.616 83.477,64.203 83.727,63.807 C84.014,63.347 84.285,62.913 84.431,62.519 C84.503,62.323 84.582,62.117 84.662,61.909 C85.013,60.978 85.372,60.021 85.495,59.437 C85.561,59.123 85.805,58.892 86.076,58.892 C86.154,58.892 86.234,58.912 86.314,58.953 C86.495,59.038 86.69,59.084 86.905,59.084 C87.326,59.084 87.738,58.915 88.172,58.735 C88.646,58.542 89.133,58.338 89.593,58.399 C89.665,58.411 89.734,58.414 89.805,58.419 C90.016,58.421 90.217,58.399 90.389,58.376 C90.494,58.36 90.591,58.35 90.665,58.346 C90.619,58.496 90.267,58.846 89.385,59.177 C89.068,59.29 88.555,59.329 88.058,59.363 C87.231,59.426 86.516,59.476 86.188,59.903 C86.051,60.083 86,60.307 86.051,60.544 C86.222,61.428 86.805,61.517 87.153,61.57 C87.353,61.6 87.477,61.622 87.585,61.7 C87.644,61.928 87.065,62.741 86.658,63.006 C86.579,63.059 86.441,63.063 86.309,63.07 C86.1,63.078 85.787,63.09 85.607,63.364 C85.414,63.652 85.541,63.99 85.587,64.116 C85.679,64.36 85.464,64.69 85.102,65.211 C84.927,65.461 84.732,65.743 84.554,66.062 C84.249,66.609 84.198,67.167 84.154,67.658 C84.108,68.164 84.071,68.601 83.784,68.983 C83.447,69.436 83.108,69.504 82.645,69.597 C82.37,69.653 82.053,69.717 81.731,69.88 C81.65,69.918 81.583,69.948 81.525,69.975 C81.616,69.789 81.737,69.57 81.86,69.339 L81.86,69.339 Z M43.147,2.497 L44.348,3.186 L44.937,3.646 L45.555,4.321 L45.818,4.686 L46.145,5.235 L46.32,5.609 L46.523,6.184 L46.62,6.571 L46.681,6.958 L46.712,7.543 L46.707,7.743 L46.647,8.336 L46.56,8.738 L46.37,9.341 L43.403,15.423 L43.352,15.551 L43.163,16.422 L43.138,16.926 L43.185,17.505 L43.28,17.96 C43.363,18.225 43.46,18.47 43.606,18.75 L43.801,19.059 L44.038,19.358 L44.343,19.673 L44.891,20.144 L45.271,20.415 L45.862,20.771 L46.466,21.062 L47.094,21.295 L47.726,21.484 L48.802,21.71 L50.789,21.943 L51.311,21.962 L53.03,21.883 L56.231,22.375 L57.257,22.468 L61.612,22.031 L62.91,21.975 L63.087,21.975 L63.56,22.005 L64.813,22.2 L65.775,22.476 L66.317,22.731 L68.052,24.451 L68.979,25.075 L69.857,25.459 L70.533,25.61 L71.488,25.678 L71.866,25.67 L74.485,26.12 L80.803,28.05 L80.54,28.335 L78.971,31.103 L77.281,33.573 L74.18,36.492 L72.258,38.016 L71.193,38.734 L70.169,39.317 L69.228,39.76 L63.645,41.765 L62.404,42.135 L62.041,42.209 L61.519,39.734 L61.448,38.654 L61.451,38.439 L62.619,31.934 L62.695,31.639 L62.898,31.394 L62.57,31.08 L62.918,31.359 L62.923,31.363 L62.918,31.359 L62.926,31.363 L62.952,31.342 L62.952,31.345 L63.879,30.897 L65.166,30.169 L66.003,29.315 L66.239,28.963 L66.356,28.643 L66.387,28.335 L66.349,28.139 L66.308,28.014 L66.138,27.672 L65.873,27.415 L65.571,27.297 L65.315,27.282 L65.162,27.304 L63.465,28.146 L61.01,28.521 L59.256,29.055 L58.494,28.648 L57.847,28.338 L57.406,28.212 L56.754,28.15 L56.228,28.157 L54.614,28.097 L54.52,27.814 L54.38,27.597 L54.228,27.442 L53.944,27.258 L53.589,27.116 L53.722,26.811 L53.698,26.374 L53.592,26.128 L53.466,25.937 L53.019,25.455 L52.727,25.236 L52.544,25.159 L52.269,25.103 L52.069,25.117 L51.835,25.183 L51.65,25.279 L51.046,25.795 L50.479,25.987 C50.119,26.037 49.76,26.059 49.407,26.059 C47.018,26.059 45.003,24.946 42.622,23.487 C40.111,21.901 39.418,19.635 40.554,16.749 C40.778,16.18 41.127,15.48 41.53,14.667 C42.925,11.858 44.833,8.012 43.567,5.32 C42.963,4.042 41.705,3.163 39.825,2.71 C39.863,2.648 39.898,2.58 39.93,2.505 C40.115,2.079 40.064,1.705 39.927,1.402 L41.476,1.809 L43.147,2.497 L43.147,2.497 Z M4.777,31.077 C4.943,30.66 5.199,30.142 5.497,29.541 C6.545,27.431 7.977,24.543 7.013,22.496 C6.564,21.54 5.653,20.883 4.302,20.527 C4.304,20.514 4.309,20.507 4.314,20.495 C4.428,20.232 4.434,19.998 4.384,19.791 L5.087,19.975 L6.542,20.549 L7.579,21.166 L8.074,21.609 L8.391,22 L8.648,22.399 L8.847,22.806 L8.993,23.214 L9.107,23.767 L9.13,24.191 L9.117,24.475 L9.054,24.906 L8.936,25.335 L6.679,30 L6.561,30.367 L6.476,31.068 L6.481,31.392 L6.585,31.968 C6.65,32.179 6.728,32.37 6.836,32.576 L6.911,32.704 L7.174,33.053 L7.537,33.412 L7.966,33.753 L8.41,34.045 L8.864,34.278 L9.49,34.523 L10.295,34.741 L11.765,34.962 L12.661,35.024 L13.948,34.962 L16.992,35.399 L19.432,35.158 L21.273,35.032 L21.644,35.044 L22.761,35.221 L23.556,35.473 L25.14,36.943 L26.033,37.471 L26.749,37.701 L27.661,37.786 L27.937,37.778 L28.721,37.894 L31.421,38.65 C31.318,38.635 31.201,38.628 31.072,38.628 C30.344,38.628 29.673,38.49 28.963,38.348 L28.707,38.295 C28.181,38.192 27.298,38.161 27.098,38.161 C27.03,38.157 26.703,38.114 26.467,38.084 C25.942,38.011 25.584,37.965 25.407,37.965 C24.82,37.965 24.712,38.515 24.666,38.747 C24.65,38.819 24.636,38.897 24.612,38.979 C24.487,39.41 24.609,39.861 24.677,40.103 C24.685,40.133 24.694,40.159 24.694,40.171 C24.757,40.508 25.135,40.827 25.448,40.929 C25.682,41.005 25.968,40.936 26.19,40.868 C26.264,40.845 26.341,40.819 26.42,40.808 C26.52,40.786 26.6,40.804 26.661,40.849 C26.857,40.997 27.123,41.018 27.51,41.03 C27.576,41.033 27.633,41.033 27.68,41.038 C27.712,41.04 27.852,41.09 28.102,41.256 C28.278,41.374 28.493,41.442 28.685,41.442 C28.812,41.442 28.928,41.416 29.027,41.362 C29.373,41.185 29.529,40.822 29.418,40.451 C29.296,40.053 28.874,39.919 28.6,39.831 C28.472,39.788 28.186,39.706 27.94,39.643 L27.99,39.643 C28.129,39.646 28.286,39.65 28.374,39.662 C28.629,39.699 28.819,39.742 29.001,39.803 C29.292,39.902 29.59,39.926 29.965,39.926 L29.968,39.926 C30.197,39.926 30.397,39.945 30.609,39.994 C30.884,40.057 31.333,40.121 31.638,40.083 C31.918,40.045 32.064,39.899 32.135,39.781 C32.298,39.509 32.189,39.212 32.147,39.096 C32.091,38.949 31.984,38.839 31.828,38.762 L34.378,39.474 L33.058,41.745 L31.562,43.806 L28.005,46.85 L27.07,47.453 L26.064,47.967 L21.471,49.615 L20.71,49.817 L20.476,48.876 L20.31,47.314 L21.151,42.503 L21.225,42.155 L21.286,42.079 L20.952,41.776 L21.31,42.052 L21.345,42.009 L21.015,41.699 L21.373,41.978 L22.905,41.185 L23.623,40.505 L23.855,40.171 L23.954,39.899 L23.982,39.643 L23.952,39.479 L23.745,39.035 L23.543,38.858 L23.288,38.757 L23.063,38.742 L22.936,38.762 L21.644,39.398 L20.642,39.57 L19.094,39.834 L18.562,40.053 L18.565,40.057 L17.772,39.629 L17.282,39.452 L16.708,39.39 L16.252,39.398 L15.215,39.359 L15.158,39.214 L15.039,39.026 L14.782,38.801 L14.51,38.672 L14.571,38.532 L14.552,38.153 L14.461,37.955 L14.258,37.677 L13.876,37.307 L13.62,37.175 L13.374,37.123 L13.208,37.139 L13.02,37.187 L12.855,37.273 L12.431,37.633 L12.704,37.997 L12.385,37.67 L12.351,37.693 L12.574,38.091 L12.321,37.713 L12.528,38.114 L12.282,37.73 L12.028,37.786 C11.769,37.819 11.504,37.834 11.248,37.834 C9.505,37.834 8.02,37.013 6.269,35.943 C4.458,34.799 3.956,33.161 4.777,31.077 L4.777,31.077 Z M12.891,73.654 C12.311,73.497 12.167,73.345 12.174,73.286 C12.201,72.936 12.269,72.832 12.269,72.832 C12.277,72.828 12.343,72.794 12.53,72.794 C12.607,72.794 12.684,72.801 12.756,72.809 C13.254,72.854 13.334,72.947 13.334,72.947 C13.334,72.947 13.357,73.01 13.298,73.191 C13.259,73.314 13.16,73.64 13.086,73.689 C13.055,73.689 12.994,73.686 12.891,73.654 L12.891,73.654 Z M14.369,73.996 C14.28,73.98 14.225,73.965 14.193,73.957 C14.193,73.844 14.237,73.625 14.258,73.512 C14.317,73.202 14.352,73.162 14.754,73.162 C14.847,73.162 14.95,73.164 15.061,73.173 C15.271,73.181 15.451,73.226 15.544,73.265 C15.544,73.38 15.514,73.62 15.432,73.923 C15.378,73.965 15.181,74.038 14.827,74.038 C14.675,74.038 14.515,74.022 14.369,73.996 L14.369,73.996 Z M25.723,73.365 C25.745,73.276 25.864,73.237 25.962,73.223 C25.974,73.218 25.986,73.218 25.998,73.218 C26.17,73.218 26.435,73.375 26.646,73.497 C26.771,73.571 26.889,73.643 27.005,73.693 C27.201,73.782 27.427,73.826 27.643,73.826 C28.213,73.826 28.454,73.505 28.488,73.234 C28.511,73.051 28.472,72.893 28.371,72.766 C28.211,72.572 27.99,72.553 27.794,72.538 C27.72,72.53 27.628,72.52 27.518,72.503 C27.38,72.484 27.347,72.449 27.223,72.322 C27.21,72.308 27.196,72.295 27.184,72.28 C27.334,72.356 27.47,72.395 27.603,72.395 C27.815,72.395 28.102,72.303 28.264,71.867 C28.457,71.351 28.186,71.109 27.971,70.918 C27.822,70.787 27.682,70.722 27.489,70.63 C27.312,70.545 27.072,70.434 26.671,70.206 C26.306,69.995 25.784,69.024 25.125,67.324 C25.06,67.157 25.011,67.035 24.988,66.98 C24.609,66.176 24.238,65.399 23.887,64.67 C23.026,62.879 22.284,61.332 21.917,60.261 C21.384,58.706 21.18,57.454 21.176,57.026 C21.173,56.732 21.212,56.226 21.483,56.175 C21.497,56.175 21.51,56.171 21.524,56.171 C21.975,56.171 22.444,57.886 22.491,58.927 C22.571,60.628 23.658,61.765 24.182,62.309 L24.269,62.405 C24.677,62.833 25.248,63.728 25.502,64.208 C25.918,64.99 26.423,65.714 26.908,66.418 C27.864,67.797 28.763,69.099 28.994,70.711 C29.124,71.664 29.935,71.86 30.47,71.989 C30.511,71.996 30.516,72.008 30.526,72.027 C30.592,72.143 30.594,72.484 30.443,72.958 C30.333,73.304 29.77,73.701 29.375,73.8 C28.912,73.915 28.633,73.983 27.737,74.016 C26.862,74.043 26.047,73.812 25.881,73.697 C25.756,73.605 25.702,73.456 25.723,73.365 L25.723,73.365 Z M24.528,75.218 C24.52,75.221 24.32,75.245 24.042,75.167 C23.684,75.067 23.592,74.992 23.58,74.992 L23.579,74.992 C23.579,74.98 23.59,74.899 23.702,74.727 C23.797,74.582 24.014,74.243 24.102,74.214 L24.103,74.214 C24.113,74.214 24.164,74.214 24.282,74.275 C24.42,74.345 24.871,74.582 24.816,74.72 C24.645,75.133 24.54,75.21 24.528,75.218 L24.528,75.218 Z M26.571,75.829 C26.347,75.829 26.082,75.793 25.85,75.726 C25.765,75.699 25.712,75.681 25.677,75.666 C25.696,75.559 25.761,75.358 25.796,75.255 C25.898,74.953 25.979,74.953 26.155,74.953 C26.301,74.953 26.492,74.98 26.679,75.01 C26.886,75.042 27.066,75.105 27.159,75.152 C27.142,75.278 27.075,75.513 26.964,75.766 C26.927,75.788 26.808,75.829 26.571,75.829 L26.571,75.829 Z M28.454,75.888 C28.336,75.864 28.278,75.849 28.25,75.834 C28.244,75.795 28.242,75.689 28.281,75.444 C28.323,75.184 28.334,75.11 28.895,75.11 C28.966,75.11 29.042,75.115 29.124,75.117 C29.375,75.122 29.582,75.164 29.678,75.201 C29.687,75.282 29.673,75.447 29.617,75.67 C29.526,75.753 29.141,75.898 28.672,75.898 C28.59,75.898 28.515,75.895 28.454,75.888 L28.454,75.888 Z M33.581,72.469 C33.593,72.069 33.665,71.974 33.672,71.966 C33.68,71.959 33.78,71.875 34.212,71.851 C34.304,71.843 34.392,71.841 34.468,71.841 C34.71,71.841 34.774,71.878 34.771,71.871 C34.778,71.878 34.813,71.946 34.803,72.204 C34.783,72.728 34.668,72.728 34.46,72.728 C34.411,72.728 34.36,72.728 34.304,72.721 C33.876,72.675 33.579,72.572 33.581,72.469 L33.581,72.469 Z M37.271,71.985 C37.285,72.157 37.256,72.51 37.212,72.74 C37.206,72.744 37.202,72.751 37.192,72.759 C37.121,72.809 36.912,72.885 36.553,72.885 C36.448,72.885 36.346,72.877 36.241,72.867 C36.004,72.834 35.946,72.78 35.931,72.766 C35.916,72.744 35.863,72.648 35.909,72.295 C35.958,71.912 35.958,71.912 36.588,71.912 L36.6,71.46 L36.6,71.912 C36.865,71.912 37.133,71.946 37.271,71.985 L37.271,71.985 Z M40.791,71.725 C40.834,71.718 40.899,71.703 40.998,71.69 C41.178,71.664 41.351,71.684 41.4,71.699 C41.427,71.739 41.458,71.786 41.495,71.836 C41.549,71.91 41.653,72.054 41.689,72.136 C41.653,72.243 41.568,72.303 41.059,72.395 C40.955,72.415 40.864,72.422 40.812,72.417 C40.803,72.372 40.791,72.28 40.791,72.097 L40.791,71.725 L40.791,71.725 Z M51.579,74.264 C51.072,74.126 50.47,73.895 50.494,73.605 C50.548,72.991 50.682,72.877 50.686,72.877 C50.701,72.862 50.806,72.799 51.13,72.799 C51.243,72.799 51.349,72.806 51.452,72.813 C52.126,72.877 52.306,73.005 52.352,73.073 C52.398,73.146 52.387,73.311 52.318,73.53 C52.082,74.278 52.008,74.315 51.885,74.315 C51.808,74.315 51.706,74.298 51.579,74.264 L51.579,74.264 Z M58.035,74.732 C58.006,74.739 57.973,74.749 57.942,74.757 C57.923,74.762 57.905,74.77 57.886,74.773 C57.862,74.777 57.835,74.781 57.813,74.784 C57.779,74.793 57.746,74.801 57.707,74.808 C57.682,74.808 57.656,74.811 57.628,74.815 C57.588,74.818 57.549,74.823 57.502,74.828 C57.426,74.831 57.348,74.836 57.26,74.836 C57.075,74.836 56.882,74.818 56.703,74.796 C56.387,74.747 56.326,74.697 56.324,74.693 C56.275,74.604 56.331,74.16 56.358,73.949 C56.418,73.451 56.504,73.345 57.255,73.345 C57.345,73.345 57.441,73.349 57.541,73.349 C57.95,73.359 58.273,73.456 58.362,73.522 C58.403,73.654 58.384,74.086 58.278,74.585 C58.273,74.612 58.198,74.674 58.04,74.727 C58.04,74.732 58.035,74.732 58.035,74.732 L58.035,74.732 Z M68.736,73.686 C68.775,73.522 68.926,73.418 69.187,73.373 C69.209,73.368 69.233,73.368 69.259,73.368 C69.536,73.368 69.914,73.591 70.213,73.766 C70.377,73.861 70.53,73.949 70.679,74.018 C70.92,74.126 71.203,74.183 71.475,74.183 C72.135,74.183 72.415,73.844 72.456,73.522 C72.479,73.319 72.437,73.146 72.33,73.017 C72.158,72.801 71.917,72.78 71.659,72.759 C71.557,72.751 71.43,72.74 71.276,72.717 C71.042,72.678 70.97,72.603 70.793,72.426 C70.679,72.308 70.533,72.157 70.316,72.008 C70.199,71.929 70.169,71.878 70.165,71.878 C70.167,71.871 70.176,71.841 70.218,71.772 C70.355,71.809 70.592,71.939 70.73,72.016 L70.876,72.097 C71.078,72.204 71.249,72.253 71.415,72.253 C71.654,72.253 71.976,72.15 72.162,71.649 C72.383,71.056 72.091,70.795 71.807,70.542 C71.625,70.38 71.455,70.302 71.201,70.182 C70.959,70.066 70.63,69.913 70.086,69.603 C69.297,69.152 68.275,66.521 67.94,65.655 C67.853,65.43 67.789,65.265 67.756,65.196 C67.251,64.116 66.754,63.083 66.284,62.102 C65.12,59.681 64.118,57.591 63.618,56.131 C62.891,54.002 62.619,52.336 62.616,51.736 C62.609,51.187 62.699,50.517 63.154,50.431 C63.182,50.427 63.208,50.422 63.235,50.422 C64.02,50.422 64.638,52.954 64.698,54.279 C64.801,56.506 66.236,58.012 66.927,58.732 L67.046,58.859 C67.604,59.452 68.382,60.669 68.73,61.32 C69.285,62.362 69.96,63.339 70.611,64.281 C71.907,66.153 73.129,67.919 73.441,70.124 C73.608,71.303 74.593,71.542 75.314,71.718 C75.399,71.737 75.45,71.774 75.489,71.841 C75.621,72.074 75.58,72.613 75.39,73.218 C75.225,73.743 74.421,74.315 73.844,74.455 C73.207,74.617 72.825,74.711 71.608,74.749 L71.408,74.749 C70.241,74.749 69.243,74.455 69.009,74.29 C68.807,74.146 68.692,73.886 68.736,73.686 L68.736,73.686 Z M67.349,76.35 C67.275,76.39 66.993,76.408 66.583,76.294 C65.947,76.122 65.863,75.972 65.852,75.945 C65.847,75.933 65.812,75.814 66.04,75.466 C66.356,74.973 66.559,74.704 66.708,74.704 C66.759,74.704 66.855,74.72 67.018,74.803 C67.946,75.268 67.847,75.509 67.812,75.602 C67.573,76.197 67.397,76.324 67.349,76.35 L67.349,76.35 Z M69.014,77.047 C68.748,76.972 68.674,76.918 68.665,76.918 L68.664,76.918 C68.641,76.814 68.776,76.412 68.842,76.217 C68.994,75.75 69.16,75.699 69.475,75.699 C69.679,75.699 69.94,75.738 70.196,75.775 C70.589,75.842 70.891,75.968 70.981,76.04 C70.989,76.19 70.886,76.594 70.691,77.04 C70.679,77.071 70.518,77.193 70.027,77.193 C69.711,77.193 69.344,77.14 69.014,77.047 L69.014,77.047 Z M84.571,71.747 C84.618,71.959 84.571,72.564 84.492,72.936 C84.466,73.059 84.093,73.23 83.462,73.23 C83.316,73.23 83.169,73.218 83.025,73.202 C82.752,73.169 82.577,73.104 82.505,73.012 C82.414,72.893 82.394,72.644 82.44,72.26 C82.516,71.664 82.551,71.61 83.51,71.607 L83.525,71.154 L83.525,71.607 C83.973,71.607 84.42,71.679 84.571,71.747 L84.571,71.747 Z M89.022,71.396 C89.065,71.376 89.169,71.346 89.421,71.311 C89.528,71.296 89.628,71.288 89.721,71.288 C89.964,71.288 90.077,71.343 90.086,71.346 C90.125,71.406 90.179,71.487 90.242,71.571 C90.325,71.684 90.513,71.943 90.542,72.059 C90.477,72.295 90.412,72.415 89.555,72.567 C89.427,72.595 89.317,72.606 89.23,72.606 C89.116,72.606 89.079,72.583 89.079,72.583 C89.068,72.572 89.007,72.484 89.011,72.008 L89.011,71.768 C89.011,71.625 89.009,71.468 89.022,71.396 L89.022,71.396 Z M103.413,72.981 C103.352,72.984 103.291,72.989 103.23,72.989 C102.792,72.989 102.574,72.867 102.557,72.817 C102.83,71.901 103.091,71.603 103.631,71.591 L103.731,71.587 C104.215,71.587 104.32,71.693 104.337,71.718 C104.352,71.737 104.414,71.848 104.305,72.227 C104.098,72.928 103.993,72.936 103.413,72.981 L103.413,72.981 Z M112.676,73.115 C112.673,73.115 112.666,73.119 112.661,73.123 C112.616,73.146 112.565,73.164 112.516,73.184 C112.509,73.184 112.504,73.188 112.499,73.188 C112.451,73.208 112.397,73.218 112.344,73.234 C112.336,73.234 112.329,73.237 112.32,73.237 C112.271,73.248 112.224,73.256 112.175,73.265 C112.16,73.265 112.141,73.27 112.126,73.27 C112.087,73.276 112.052,73.276 112.013,73.276 C111.991,73.279 111.966,73.279 111.939,73.279 C111.883,73.279 111.829,73.279 111.778,73.276 C111.54,73.252 111.432,73.245 111.482,72.506 C111.515,72.034 111.563,71.871 112.324,71.871 L112.408,71.875 C112.687,71.878 112.773,72.027 112.799,72.082 C112.96,72.363 113.024,72.637 112.975,72.801 C112.96,72.844 112.94,72.885 112.914,72.921 C112.909,72.928 112.899,72.936 112.894,72.942 C112.87,72.973 112.845,73 112.809,73.026 C112.807,73.03 112.799,73.034 112.792,73.038 C112.756,73.065 112.719,73.093 112.676,73.115 L112.676,73.115 Z M113.989,71.563 C112.894,69.369 112.499,68.493 112.192,66.176 C112.139,65.758 112.1,65.383 112.064,65.026 C111.945,63.824 111.844,62.79 111.142,61.424 C110.513,60.197 109.754,59.402 108.957,58.774 C109.108,58.784 109.23,58.777 109.341,58.752 C109.894,58.62 110.136,58.296 110.242,58.043 C110.532,57.365 110.141,56.56 109.956,56.246 C109.666,55.742 109.177,55.42 108.748,55.137 C108.535,54.994 108.333,54.864 108.196,54.733 C107.143,53.742 107.182,53.038 107.22,52.287 C107.231,52.093 107.241,51.892 107.231,51.691 C107.172,50.545 107.322,49.148 107.465,47.795 C107.565,46.864 107.667,45.9 107.698,45.039 C107.813,41.811 105.941,39.232 104.352,37.641 C98.472,31.755 90.003,30.133 81.739,29.081 C81.763,29.055 81.788,29.031 81.814,29.006 C81.997,28.813 82.187,28.617 82.321,28.343 C82.701,27.558 82.053,27.159 81.777,26.99 L81.716,26.953 C81.49,26.811 81.114,26.666 80.722,26.517 C80.492,26.428 80.261,26.335 80.072,26.252 C77.714,25.198 73.987,24.555 71.978,24.269 L71.932,24.264 L71.89,24.269 C70.472,24.341 69.945,24.034 69.344,23.671 L69.28,23.632 C68.948,23.437 68.706,23.153 68.399,22.797 C68.187,22.549 67.946,22.27 67.643,21.985 C66.871,21.261 65.619,20.823 63.706,20.61 C63.484,20.588 63.216,20.572 62.911,20.572 C61.746,20.572 60.196,20.755 58.951,20.902 C58.173,20.989 57.501,21.069 57.201,21.069 L57.165,21.069 C56.667,21.055 55.741,20.883 54.922,20.733 C54.439,20.645 53.98,20.56 53.661,20.514 C53.241,20.46 52.706,20.488 52.208,20.522 C51.778,20.553 51.34,20.583 50.9,20.549 C48.653,20.356 46.667,20.07 45.143,18.509 C44.223,17.567 44.56,16.214 44.662,15.987 C45.54,14.09 46.491,12.231 47.325,10.595 C48.683,7.941 48.217,5.034 46.086,2.82 C45.064,1.76 43.116,0.895 42.234,0.586 C41.427,0.303 39.123,-0.3 37.194,-0.481 C37.08,-0.491 36.977,-0.498 36.887,-0.498 C36.276,-0.498 36.061,-0.235 35.99,-0.017 C35.829,0.462 36.219,0.991 37.384,1.87 L37.414,1.891 C37.497,1.99 37.538,2.08 37.529,2.142 C37.516,2.214 37.438,2.298 37.333,2.354 C37.172,2.437 37,2.528 36.824,2.618 C35.246,3.437 34.877,3.648 34.971,4.111 C35.007,4.294 35.165,4.494 35.488,4.519 C35.609,4.527 35.824,4.523 36.112,4.517 C36.348,4.509 36.632,4.502 36.943,4.502 C37.675,4.502 38.258,4.547 38.729,4.642 C40.254,4.947 41.198,5.478 41.612,6.26 C42.224,7.415 41.653,9.135 40.943,10.823 C40.587,11.672 39.387,14.02 39.118,14.453 C38.356,15.678 37.364,18.151 37.543,19.822 C37.621,20.553 37.962,22.027 39.379,23.659 C40.513,24.953 41.863,25.623 43.292,26.335 L43.794,26.585 C44.196,26.787 44.5,26.953 44.726,27.083 C44.291,27.182 43.794,27.235 43.235,27.235 C41.407,27.235 39.397,26.69 38.318,26.401 C37.772,26.256 37.577,26.202 37.431,26.202 L36.636,26.298 L37.04,26.906 C38.748,29.477 43.831,31.264 47.32,31.264 C47.603,31.264 47.874,31.249 48.124,31.226 C47.944,31.299 47.734,31.371 47.516,31.44 C47.076,31.585 46.623,31.735 46.271,31.968 C45.729,32.326 45.175,33.271 44.809,33.999 C44.465,34.676 44.635,35.133 45.379,35.53 C45.482,35.584 45.574,35.648 45.659,35.707 C45.876,35.851 46.103,36.006 46.398,36.006 C46.869,36.006 47.19,35.61 47.417,35.267 C47.748,34.764 48.524,34.432 49.353,34.432 C49.859,34.432 50.338,34.558 50.737,34.795 C51.423,35.208 52.566,35.95 52.922,36.281 C54.648,37.878 55.261,38.566 55.907,40.611 L55.963,40.799 C56.19,41.559 56.787,43.544 57.761,45.096 C57.779,45.523 57.721,46.616 57.677,47.505 C57.633,48.359 57.598,49.093 57.608,49.39 C57.707,51.988 57.38,53.619 56.265,56.108 C56.101,56.47 55.821,56.966 55.529,57.491 C55.28,57.936 55.009,58.419 54.758,58.907 C54.274,58.35 54.295,57.924 54.321,57.443 C54.328,57.3 54.336,57.147 54.328,56.994 C54.285,56.149 54.397,55.112 54.505,54.113 C54.577,53.421 54.653,52.701 54.677,52.058 C54.766,49.618 53.356,47.678 52.157,46.479 C47.817,42.133 41.602,40.897 35.515,40.113 C35.622,39.994 35.729,39.863 35.807,39.699 C36.136,39.022 35.553,38.662 35.361,38.544 L35.314,38.518 C35.139,38.405 34.857,38.295 34.561,38.183 C34.392,38.114 34.22,38.054 34.081,37.989 C32.314,37.199 29.534,36.72 28.037,36.507 L27.992,36.499 L27.948,36.504 C26.932,36.557 26.574,36.35 26.122,36.077 L26.074,36.051 C25.842,35.913 25.668,35.707 25.448,35.451 C25.287,35.267 25.106,35.056 24.877,34.838 C24.28,34.281 23.329,33.949 21.885,33.788 C21.066,33.7 19.503,33.865 18.328,34.003 C17.78,34.067 17.26,34.124 17.019,34.124 L17.018,34.124 C16.657,34.113 15.977,33.991 15.378,33.88 C15.011,33.813 14.666,33.75 14.422,33.717 C14.101,33.677 13.692,33.696 13.315,33.723 C13.001,33.745 12.684,33.765 12.367,33.743 C10.719,33.601 9.266,33.392 8.162,32.26 C7.525,31.609 7.759,30.672 7.829,30.518 C8.478,29.108 9.183,27.729 9.805,26.517 C10.836,24.494 10.484,22.284 8.862,20.603 C8.092,19.806 6.625,19.152 5.955,18.914 C5.35,18.703 3.619,18.251 2.183,18.113 C2.096,18.106 2.018,18.102 1.949,18.102 C1.425,18.102 1.235,18.34 1.169,18.538 C1.008,19.013 1.456,19.473 2.232,20.062 L2.254,20.077 C2.299,20.132 2.304,20.159 2.306,20.159 C2.303,20.171 2.273,20.209 2.222,20.234 C2.099,20.301 1.969,20.37 1.836,20.438 C0.697,21.027 0.315,21.227 0.406,21.668 C0.445,21.843 0.592,22.039 0.897,22.06 C0.991,22.068 1.153,22.065 1.374,22.06 C1.549,22.054 1.759,22.051 1.984,22.051 C2.521,22.051 2.949,22.085 3.29,22.149 C4.387,22.373 5.064,22.747 5.352,23.296 C5.784,24.111 5.367,25.36 4.853,26.585 C4.587,27.22 3.702,28.952 3.505,29.269 C2.931,30.191 2.181,32.064 2.315,33.328 C2.376,33.888 2.637,35.01 3.712,36.242 C4.565,37.224 5.577,37.723 6.65,38.262 L7.023,38.443 C7.176,38.524 7.31,38.594 7.43,38.654 C7.195,38.688 6.936,38.708 6.66,38.708 C5.32,38.708 3.839,38.311 3.041,38.098 C2.612,37.981 2.471,37.942 2.349,37.942 L1.557,38.042 L1.961,38.647 C3.224,40.543 6.915,41.875 9.532,41.933 C9.292,42.017 9.054,42.113 8.855,42.242 C8.518,42.467 8.138,42.987 7.725,43.796 C7.442,44.357 7.593,44.767 8.2,45.092 C8.271,45.13 8.338,45.177 8.399,45.214 C8.566,45.329 8.755,45.46 9.011,45.46 C9.417,45.46 9.682,45.138 9.868,44.854 C10.087,44.521 10.639,44.288 11.206,44.288 C11.562,44.288 11.899,44.375 12.177,44.54 C12.684,44.848 13.523,45.394 13.781,45.632 C15.025,46.784 15.479,47.26 15.966,48.798 L16.007,48.937 C16.175,49.499 16.618,50.969 17.34,52.13 C17.347,52.468 17.307,53.283 17.275,53.893 C17.245,54.522 17.216,55.067 17.226,55.293 C17.298,57.201 17.056,58.401 16.24,60.232 C16.119,60.494 15.915,60.86 15.698,61.249 C15.159,62.206 14.491,63.396 14.352,64.312 C14.154,65.636 13.487,68.087 12.94,68.758 C12.226,69.632 11.294,71.739 11.155,72.363 C11.091,72.651 11.06,72.751 11.042,72.806 C11.019,72.869 11.002,72.923 10.993,72.996 C10.912,73.311 10.921,73.889 11.818,74.371 C12.525,74.757 12.861,74.803 13.128,74.843 C13.135,74.843 13.143,74.846 13.152,74.846 C13.657,75.248 14.786,75.255 14.839,75.255 C15.163,75.255 15.598,75.218 15.971,75.049 C16.273,75.145 16.612,75.232 17.015,75.232 C17.394,75.232 17.787,75.156 18.217,74.992 C18.374,75.044 18.55,75.071 18.742,75.071 C19.67,75.071 20.749,74.444 20.875,73.51 C20.993,72.642 21.043,72.123 21,71.536 C20.967,71.07 20.895,70.638 20.824,70.216 C20.71,69.558 20.606,68.937 20.698,68.362 C20.762,67.949 21.089,67.604 21.469,67.211 C21.76,66.903 22.061,66.59 22.295,66.195 C22.44,65.942 22.568,65.809 22.709,65.675 C22.78,66.139 22.812,66.688 22.834,67.021 L22.84,67.114 C22.868,67.541 23.141,68.13 23.46,68.811 C23.679,69.283 23.903,69.769 24.057,70.216 C24.368,71.129 24.238,71.376 23.86,72.121 C23.565,72.702 23.355,73.054 23.139,73.429 C22.905,73.824 22.663,74.233 22.321,74.919 L22.284,75.027 C22.253,75.167 22.256,75.391 22.454,75.631 C22.841,76.117 23.916,76.507 24.633,76.404 C25.113,76.838 25.93,77.003 26.603,77.003 C26.988,77.003 27.349,76.948 27.643,76.845 C27.969,76.986 28.353,77.064 28.748,77.064 C29.367,77.064 29.951,76.88 30.416,76.539 C30.61,76.601 30.824,76.63 31.043,76.63 C31.7,76.63 32.363,76.362 32.769,75.933 C33.083,75.602 33.237,75.191 33.213,74.749 C33.188,74.317 33.127,73.904 33.037,73.525 C33.381,73.747 33.856,73.87 34.422,73.87 C34.669,73.87 34.963,73.844 35.209,73.776 C35.624,74.043 36.23,74.071 36.517,74.071 C37,74.071 37.482,73.988 37.893,73.826 C38.152,73.904 38.447,73.942 38.762,73.942 C39.159,73.942 39.835,73.861 40.266,73.601 C40.359,73.617 40.461,73.625 40.573,73.625 C41.185,73.625 42.607,73.319 42.825,72.407 C42.968,71.807 42.707,71.361 42.48,70.972 C42.285,70.641 42.117,70.354 42.141,69.952 C42.185,69.21 42.347,68.719 42.546,68.1 C42.614,67.889 42.687,67.665 42.76,67.42 C42.836,67.152 42.836,66.911 42.836,66.697 C42.836,66.291 42.836,66.064 43.285,65.748 C43.482,65.605 43.656,65.512 43.859,65.401 C44.045,65.308 44.235,65.204 44.46,65.059 C45.028,64.688 45.194,64.423 45.34,64.063 C46.13,64.353 46.839,64.744 47.29,64.993 L47.394,65.047 C49.204,66.043 49.749,66.452 50.54,67.919 C50.828,68.455 50.828,68.883 50.774,69.271 C50.131,70.487 49.553,71.878 49.435,72.407 C49.348,72.801 49.304,72.936 49.277,73.017 C49.25,73.095 49.232,73.154 49.221,73.256 C49.097,73.704 49.181,74.36 50.248,74.935 C51.182,75.444 51.617,75.505 51.964,75.555 C51.989,75.559 52.011,75.559 52.036,75.562 C52.548,76.001 53.759,76.106 54.244,76.106 C54.677,76.106 55.267,76.053 55.753,75.819 C56.163,75.952 56.621,76.08 57.169,76.08 C57.674,76.08 58.203,75.968 58.782,75.741 C58.993,75.819 59.23,75.856 59.496,75.856 C60.677,75.856 62.053,75.067 62.211,73.894 C62.373,72.695 62.435,72.032 62.377,71.269 C62.333,70.649 62.236,70.07 62.141,69.511 C61.987,68.612 61.841,67.762 61.97,66.961 C62.064,66.357 62.523,65.878 63.051,65.326 C63.434,64.924 63.834,64.506 64.138,63.99 C64.391,63.554 64.611,63.357 64.859,63.129 C64.886,63.108 64.908,63.085 64.935,63.059 C65.066,63.732 65.123,64.634 65.154,65.142 L65.166,65.296 C65.199,65.844 65.561,66.624 65.983,67.527 C66.279,68.164 66.587,68.822 66.793,69.431 C67.234,70.722 67.037,71.102 66.519,72.116 C66.119,72.908 65.839,73.383 65.54,73.894 C65.23,74.421 64.908,74.965 64.45,75.881 L64.411,75.986 C64.376,76.148 64.381,76.394 64.607,76.673 C65.115,77.305 66.555,77.811 67.474,77.642 C68.082,78.234 69.209,78.456 70.071,78.456 C70.6,78.456 71.089,78.381 71.476,78.234 C71.909,78.435 72.427,78.542 72.961,78.542 C73.79,78.542 74.564,78.288 75.18,77.822 C75.443,77.909 75.738,77.955 76.045,77.955 C76.893,77.955 77.742,77.614 78.262,77.066 C78.653,76.654 78.844,76.144 78.814,75.593 C78.771,74.828 78.64,74.1 78.437,73.478 C78.866,73.965 79.624,74.241 80.6,74.241 C80.929,74.241 81.353,74.203 81.686,74.106 C82.226,74.482 83.111,74.517 83.413,74.517 C84.063,74.517 84.715,74.393 85.263,74.173 C85.607,74.282 86.009,74.337 86.436,74.337 C87.114,74.337 87.946,74.19 88.432,73.87 C88.56,73.9 88.704,73.915 88.872,73.915 C89.75,73.915 91.491,73.468 91.751,72.392 C91.928,71.645 91.598,71.079 91.305,70.579 C91.041,70.128 90.791,69.707 90.828,69.113 C90.888,68.1 91.105,67.433 91.378,66.59 C91.469,66.306 91.566,66.009 91.665,65.675 C91.763,65.338 91.763,65.023 91.763,64.744 C91.76,64.185 91.76,63.816 92.429,63.339 C92.706,63.139 92.958,63.006 93.227,62.864 C93.473,62.734 93.724,62.601 94.019,62.407 C94.821,61.885 94.988,61.546 95.195,61.003 C96.323,61.396 97.34,61.955 97.971,62.305 L98.124,62.39 C100.466,63.672 101.318,64.258 102.425,66.314 C102.937,67.268 102.806,68.007 102.699,68.597 C102.683,68.685 102.667,68.772 102.655,68.853 C102.523,69.715 102.268,70.247 101.765,71.303 C101.623,71.603 101.462,71.939 101.285,72.334 C101.009,72.928 101.142,73.349 101.304,73.599 C101.738,74.275 102.789,74.348 103.219,74.348 C103.674,74.348 104.222,74.275 104.611,74.084 C105.071,74.345 105.606,74.478 106.174,74.478 C106.726,74.478 107.311,74.348 107.813,74.114 C108.365,74.375 109.196,74.497 109.815,74.497 C110.29,74.497 110.666,74.436 110.942,74.315 C111.264,74.41 111.607,74.463 111.947,74.463 C112.87,74.463 113.648,74.1 114.025,73.49 C114.257,73.115 114.441,72.471 113.989,71.563 L113.989,71.563 Z" id="Fill-47" fill="#FFFFFF" sketch:type="MSShapeGroup"></path>
            <path d="M67.658,29.02 C67.736,29.414 68.19,29.794 68.565,29.916 C68.842,30.004 69.177,29.924 69.471,29.832 C69.587,29.798 69.696,29.764 69.795,29.747 C69.979,29.713 70.123,29.744 70.245,29.835 C70.474,30.012 70.814,30.031 71.308,30.046 C71.396,30.052 71.474,30.052 71.532,30.059 C71.625,30.066 71.863,30.165 72.172,30.372 C72.383,30.516 72.641,30.602 72.873,30.602 C73.019,30.602 73.149,30.572 73.268,30.509 C73.663,30.307 73.84,29.889 73.712,29.472 C73.571,29.007 73.07,28.848 72.712,28.737 C72.531,28.676 72.147,28.571 71.806,28.476 C71.623,28.426 71.458,28.384 71.399,28.364 C71.342,28.339 71.235,28.22 71.157,28.116 C71.208,28.123 71.262,28.132 71.323,28.139 C71.488,28.166 71.71,28.173 71.944,28.177 C72.144,28.182 72.349,28.188 72.483,28.205 C72.809,28.25 73.093,28.315 73.349,28.403 C73.74,28.541 74.145,28.561 74.527,28.561 L74.57,28.557 C74.907,28.557 75.194,28.588 75.499,28.657 C75.667,28.693 76.367,28.833 76.828,28.771 C77.145,28.727 77.303,28.568 77.381,28.438 C77.564,28.137 77.442,27.803 77.389,27.656 C77.252,27.3 76.833,27.125 76.087,27.125 C75.094,27.125 74.187,26.94 73.226,26.749 L72.876,26.676 C72.185,26.538 71.006,26.497 70.738,26.497 C70.65,26.497 70.233,26.438 69.897,26.393 C69.209,26.301 68.703,26.236 68.463,26.236 C67.8,26.236 67.68,26.841 67.617,27.162 C67.597,27.263 67.575,27.373 67.543,27.488 C67.389,28.024 67.543,28.599 67.626,28.904 C67.641,28.953 67.65,28.988 67.658,29.02" id="Fill-48" fill="#FFFFFF" sketch:type="MSShapeGroup"></path>
            <path d="M60.264,26.389 L60.21,26.243 L60.212,26.243 L60.34,26.581 L60.264,26.389 L60.264,26.389 Z M57.267,25.623 C57.682,25.348 58.104,25.142 58.536,24.999 C58.524,25.026 58.513,25.053 58.501,25.08 C58.396,25.324 58.331,25.589 58.331,25.868 L57.267,25.623 Z M58.813,26.968 L58.82,26.968 C60.145,26.968 61.424,26.34 62.732,25.049 L63.23,24.559 L62.576,24.307 C62.381,24.229 62.189,24.167 61.997,24.106 C61.926,24.084 61.853,24.063 61.78,24.042 C61.665,24.01 61.553,23.983 61.44,23.958 C61.266,23.92 61.095,23.885 60.927,23.857 C60.873,23.851 60.814,23.838 60.76,23.831 C60.637,23.816 60.516,23.804 60.394,23.797 C60.357,23.797 60.319,23.792 60.283,23.792 C60.178,23.784 60.076,23.774 59.973,23.774 C59.003,23.774 58.089,24.019 57.204,24.509 C57.16,24.532 57.116,24.559 57.071,24.582 C56.989,24.631 56.905,24.681 56.825,24.734 C56.745,24.78 56.672,24.834 56.595,24.884 C56.533,24.926 56.472,24.968 56.414,25.015 C56.272,25.118 56.132,25.226 55.992,25.344 L55.517,25.738 L56.04,26.071 C56.982,26.668 57.905,26.968 58.813,26.968 L58.813,26.968 Z" id="Fill-49" fill="#FFFFFF" sketch:type="MSShapeGroup"></path>
            <path d="M18.248,37.068 C18.221,37.168 18.228,37.735 18.221,37.839 C18.102,37.817 17.548,37.585 17.426,37.545 C17.564,37.464 18.109,37.128 18.248,37.068 M18.26,38.662 C18.493,38.662 18.726,38.635 18.96,38.582 L18.979,38.582 L18.975,38.577 C19.091,38.551 19.206,38.517 19.318,38.474 C19.937,38.261 20.547,37.854 21.161,37.245 L21.664,36.755 L21.008,36.504 C19.155,35.787 17.616,36.039 16.15,37.268 L15.673,37.667 L16.197,37.996 C16.899,38.441 17.582,38.662 18.26,38.662" id="Fill-50" fill="#FFFFFF" sketch:type="MSShapeGroup"></path>
        </g>
    </g>
</svg>