<?xml version="1.0" encoding="UTF-8" standalone="no"?>
<svg width="496px" height="79px" viewBox="0 0 496 79" version="1.1" xmlns="http://www.w3.org/2000/svg" xmlns:xlink="http://www.w3.org/1999/xlink" xmlns:sketch="http://www.bohemiancoding.com/sketch/ns">
    <!-- Generator: Sketch 3.1 (8751) - http://www.bohemiancoding.com/sketch -->
    <title>vi-dark</title>
    <desc>Created with Sketch.</desc>
    <defs></defs>
    <g id="Page-1" stroke="none" stroke-width="1" fill="none" fill-rule="evenodd" sketch:type="MSPage">
        <g id="Imported-Layers" sketch:type="MSLayerGroup">
            <path d="M77.986,72.684 C77.665,71.845 77.656,70.922 77.646,69.953 C77.634,68.56 77.619,67.115 76.627,65.86 C76.366,65.527 76.214,65.148 76.259,64.29 C76.316,63.232 75.466,61.431 74.784,59.977 C74.594,59.576 74.428,59.227 74.318,58.958 C74.202,58.688 74.328,58.397 74.535,57.986 C74.643,57.768 74.747,57.566 74.791,57.348 C74.85,57.055 74.807,56.662 74.719,56.26 C76.531,57.539 79.403,58.986 82.352,58.859 C83.169,58.829 83.503,58.799 83.75,58.779 C83.818,58.776 83.88,58.772 83.941,58.765 C83.534,59.778 82.949,60.882 82.581,61.398 C82.041,62.144 81.286,64.167 80.846,65.686 C80.755,66.011 80.687,66.288 80.621,66.541 C80.403,67.42 80.268,67.947 79.453,69.144 C78.417,70.669 77.851,71.57 77.986,72.684 L77.986,72.684 Z M32.405,71.902 C32.344,71.494 32.339,71.06 32.334,70.612 C32.324,69.556 32.314,68.465 31.551,67.504 C31.375,67.273 31.27,67.009 31.303,66.408 C31.342,65.657 30.827,64.494 30.2,63.16 C30.062,62.865 29.935,62.601 29.85,62.394 C29.785,62.24 29.872,62.046 30.011,61.771 C30.09,61.608 30.171,61.445 30.208,61.269 C30.244,61.101 30.237,60.901 30.208,60.691 C31.576,61.608 33.619,62.566 35.718,62.482 C36.276,62.465 36.538,62.443 36.715,62.429 C36.421,63.121 36.038,63.838 35.787,64.187 C35.353,64.8 34.764,66.438 34.484,67.407 C34.416,67.648 34.365,67.854 34.316,68.046 C34.154,68.686 34.06,69.074 33.467,69.944 C32.927,70.739 32.546,71.324 32.405,71.902 L32.405,71.902 Z M108.48,72.487 C108.542,71.991 108.659,71.968 109.024,71.968 C109.191,71.968 109.393,71.987 109.567,72.002 C109.97,72.045 110.307,72.174 110.36,72.232 C110.409,72.348 110.394,72.795 110.287,73.322 C110.265,73.365 110.061,73.479 109.592,73.479 C109.349,73.479 109.078,73.45 108.832,73.392 C108.383,73.289 108.383,73.289 108.48,72.487 L108.48,72.487 Z M105.375,72.424 C105.47,71.913 105.589,71.826 106.168,71.826 C106.295,71.826 106.433,71.83 106.584,71.838 C106.96,71.857 107.262,71.953 107.352,72.017 C107.38,72.163 107.33,72.604 107.196,73.078 C107.168,73.19 106.767,73.392 106.106,73.392 C105.938,73.392 105.768,73.382 105.615,73.351 C105.343,73.304 105.293,73.247 105.293,73.247 C105.235,73.158 105.331,72.66 105.375,72.424 L105.375,72.424 Z M88.9,49.075 C88.927,49.072 88.958,49.068 88.988,49.068 C89.281,49.068 89.784,49.246 89.968,49.727 C90.231,50.42 90.378,50.998 90.28,51.73 C90.158,52.667 90.393,53.655 90.848,54.13 C91.24,54.537 92.082,55.06 92.689,55.279 C92.912,55.359 93.274,55.437 93.696,55.524 C94.357,55.667 95.26,55.858 95.585,56.069 C95.91,56.28 96.451,56.467 97.026,56.665 C97.624,56.873 98.304,57.11 98.611,57.336 C99.277,57.829 100.274,58.568 100.608,58.818 C100.84,58.99 101.054,59.368 100.993,59.641 L100.961,59.786 C100.886,60.142 100.884,60.146 100.719,60.269 L100.615,60.346 C100.403,60.499 100.113,60.709 100.135,61.073 C100.16,61.452 100.53,61.651 100.671,61.727 C100.944,61.874 101.179,61.97 101.422,61.97 C101.622,61.97 101.773,61.908 101.92,61.848 C101.958,61.83 101.998,61.813 102.042,61.796 C102.218,61.727 102.349,61.629 102.456,61.553 C102.463,61.544 102.476,61.537 102.487,61.529 C102.702,61.773 103.007,62.034 103.302,62.284 C103.563,62.501 103.834,62.731 103.973,62.9 C104.159,63.119 104.636,63.566 105.187,64.083 C105.666,64.534 106.162,65.007 106.369,65.232 C106.534,65.416 106.698,65.581 106.852,65.733 C107.098,65.979 107.308,66.19 107.422,66.389 C107.496,66.523 107.593,66.688 107.696,66.859 C107.89,67.184 108.11,67.56 108.208,67.775 C108.237,67.837 108.222,67.912 108.169,67.996 C108.076,68.139 107.901,68.246 107.766,68.246 C107.72,68.246 107.664,68.237 107.606,68.132 C107.396,67.744 107.064,67.301 106.359,67.301 C106.318,67.301 106.278,67.301 106.235,67.304 C105.431,67.357 105.213,67.942 105.124,68.192 C105.095,68.265 105.075,68.329 105.058,68.388 C105.053,68.406 105.048,68.426 105.041,68.441 C105.029,68.448 105.009,68.453 104.98,68.465 C104.799,68.517 104.565,68.585 104.402,68.595 C104.402,68.57 104.402,68.54 104.405,68.502 C104.459,67.926 104.621,66.175 102.651,63.922 C100.781,61.786 98.271,60.699 96.434,59.9 L96.398,59.886 C95.239,59.503 94.764,59.334 94.58,59.269 C94.566,59.251 94.557,59.236 94.547,59.216 C94.289,58.822 94.218,58.772 93.53,58.332 C93.155,58.094 92.659,57.896 92.182,57.704 C91.676,57.5 91.106,57.269 90.889,57.062 C90.697,56.869 90.565,56.536 90.423,56.184 C90.267,55.789 90.103,55.379 89.815,55.043 C89.622,54.813 89.402,54.633 89.19,54.456 C88.815,54.15 88.494,53.886 88.405,53.438 C88.287,52.821 88.408,52.393 88.548,51.891 C88.589,51.749 88.627,51.604 88.666,51.454 C88.788,50.938 88.714,50.443 88.66,50.08 L88.9,49.075 Z M85.698,72.427 C85.726,71.956 85.94,71.71 87.032,71.681 L87.104,71.677 C87.456,71.677 87.698,71.75 87.767,71.791 C87.814,71.934 87.82,72.385 87.75,72.884 C87.735,72.991 87.253,73.234 86.518,73.234 C86.426,73.234 86.335,73.232 86.25,73.225 C85.724,73.17 85.655,73.163 85.698,72.427 L85.698,72.427 Z M79.258,72.68 C79.273,72.075 79.403,71.927 79.428,71.898 C79.48,71.853 79.664,71.735 80.252,71.695 C80.379,71.688 80.494,71.686 80.601,71.686 C80.986,71.686 81.1,71.745 81.132,71.781 C81.164,71.81 81.23,71.927 81.214,72.335 C81.186,73.193 80.91,73.193 80.59,73.193 C80.521,73.193 80.447,73.19 80.371,73.184 C79.858,73.129 79.249,72.998 79.258,72.68 L79.258,72.68 Z M75.613,76.212 C75.64,75.851 75.734,75.576 76.727,75.576 L76.803,75.576 C77.251,75.584 77.346,75.654 77.344,75.644 C77.4,75.736 77.446,76.111 77.39,76.308 C77.305,76.59 76.742,76.906 76.104,76.866 C75.723,76.838 75.655,76.777 75.65,76.769 C75.632,76.752 75.581,76.656 75.613,76.212 L75.613,76.212 Z M72.492,77.44 C72.024,77.363 72.015,77.363 72.127,76.666 C72.197,76.207 72.304,76.09 73.116,76.09 C73.211,76.09 73.315,76.092 73.421,76.092 C73.882,76.104 74.245,76.207 74.3,76.247 C74.333,76.317 74.341,76.606 74.226,77.068 C74.155,77.203 73.548,77.464 72.807,77.464 C72.688,77.464 72.581,77.456 72.492,77.44 L72.492,77.44 Z M59.441,74.817 C59.415,74.751 59.397,74.58 59.425,74.143 C59.456,73.706 59.553,73.512 60.369,73.512 L60.454,73.512 C60.777,73.519 60.906,73.562 60.953,73.58 C60.96,73.633 60.96,73.779 60.865,74.121 C60.777,74.441 60.323,74.705 59.685,74.806 C59.627,74.813 59.572,74.817 59.532,74.82 L59.487,74.82 C59.469,74.82 59.448,74.817 59.441,74.817 L59.441,74.817 Z M53.174,74.801 L53.172,74.801 C53.133,74.705 53.216,74.27 53.255,74.062 C53.351,73.557 53.482,73.46 54.077,73.46 C54.206,73.46 54.348,73.47 54.497,73.477 C54.888,73.495 55.196,73.592 55.289,73.656 C55.312,73.787 55.281,74.17 55.133,74.715 C55.114,74.775 54.845,74.955 54.173,74.955 C53.959,74.955 53.736,74.935 53.528,74.901 C53.248,74.853 53.18,74.801 53.174,74.801 L53.174,74.801 Z M44.082,61.877 C43.793,61.694 43.418,61.544 43.059,61.398 C42.693,61.253 42.284,61.088 42.14,60.946 C42.016,60.823 41.921,60.587 41.821,60.338 C41.706,60.046 41.574,59.722 41.35,59.454 C41.202,59.276 41.033,59.14 40.867,59.005 C40.567,58.76 40.382,58.595 40.329,58.316 C40.243,57.888 40.325,57.596 40.431,57.225 C40.463,57.117 40.492,57.007 40.519,56.893 C40.616,56.486 40.558,56.106 40.516,55.826 C40.504,55.747 40.488,55.635 40.492,55.592 C40.533,55.372 40.575,55.241 40.596,55.215 C40.782,55.187 41.136,55.291 41.262,55.624 C41.453,56.119 41.558,56.531 41.492,57.055 C41.394,57.783 41.581,58.559 41.944,58.934 C42.25,59.251 42.898,59.653 43.355,59.817 C43.53,59.879 43.791,59.933 44.12,60.004 C44.576,60.1 45.261,60.247 45.486,60.392 C45.737,60.557 46.127,60.691 46.578,60.85 C47.019,61.002 47.511,61.174 47.726,61.329 C48.198,61.68 48.884,62.188 49.167,62.398 L49.213,62.429 C49.35,62.532 49.483,62.774 49.45,62.928 L49.426,63.033 C49.379,63.259 49.379,63.259 49.296,63.325 L49.22,63.379 C49.047,63.502 48.791,63.685 48.812,64.019 C48.835,64.366 49.163,64.543 49.269,64.601 C49.491,64.72 49.679,64.795 49.883,64.795 C50.054,64.795 50.186,64.741 50.3,64.696 L50.388,64.658 C50.498,64.616 50.588,64.558 50.659,64.509 C50.82,64.673 51.015,64.837 51.208,65.001 C51.398,65.164 51.593,65.328 51.692,65.446 C51.824,65.604 52.146,65.905 52.521,66.262 C52.319,66.806 52.107,67.273 51.898,67.598 C51.67,67.081 51.334,66.565 50.886,66.052 C49.483,64.447 47.599,63.632 46.227,63.033 L46.188,63.023 C45.395,62.758 45.032,62.633 44.878,62.579 L44.873,62.571 C44.671,62.261 44.598,62.207 44.082,61.877 L44.082,61.877 Z M38.345,72.871 C38.339,72.864 38.299,72.787 38.317,72.454 C38.33,72.248 38.342,72.037 39.19,72.01 L39.231,72.01 C39.417,72.01 39.562,72.037 39.636,72.06 C39.654,72.17 39.656,72.417 39.613,72.746 C39.54,72.817 39.231,72.933 38.812,72.933 C38.746,72.933 38.686,72.93 38.623,72.925 C38.402,72.901 38.347,72.869 38.347,72.869 L38.345,72.871 L38.345,72.871 Z M35.416,70.345 C35.648,69.915 35.911,69.424 36.047,69 C36.15,68.672 36.166,68.325 36.18,67.994 C36.196,67.655 36.208,67.333 36.315,67.09 C36.421,66.828 36.613,66.526 36.797,66.231 C37.015,65.888 37.218,65.56 37.332,65.259 L37.508,64.79 C37.766,64.102 38.034,63.389 38.127,62.949 C38.164,62.774 38.303,62.64 38.444,62.64 C38.485,62.64 38.529,62.648 38.571,62.67 C38.719,62.743 38.884,62.781 39.061,62.781 C39.398,62.781 39.727,62.643 40.048,62.513 C40.343,62.39 40.649,62.265 40.926,62.265 C40.964,62.265 41.002,62.265 41.043,62.271 C41.136,62.284 41.224,62.286 41.314,62.284 C41.401,62.284 41.487,62.275 41.565,62.265 C41.426,62.368 41.197,62.497 40.864,62.624 C40.642,62.704 40.253,62.731 39.911,62.758 C39.268,62.805 38.711,62.842 38.437,63.203 C38.314,63.359 38.271,63.562 38.31,63.773 C38.455,64.509 38.956,64.584 39.229,64.626 C39.324,64.638 39.39,64.651 39.442,64.673 C39.386,64.884 39.046,65.332 38.816,65.481 C38.783,65.505 38.686,65.507 38.612,65.507 C38.446,65.515 38.166,65.527 37.998,65.779 C37.823,66.044 37.937,66.346 37.974,66.444 C38.022,66.58 37.831,66.856 37.625,67.154 C37.493,67.338 37.349,67.552 37.214,67.794 C36.974,68.22 36.935,68.648 36.901,69.023 C36.867,69.395 36.84,69.69 36.647,69.95 C36.421,70.252 36.203,70.294 35.874,70.363 C35.706,70.397 35.518,70.437 35.323,70.509 C35.353,70.455 35.383,70.401 35.416,70.345 L35.416,70.345 Z M30.824,75.272 C30.837,75.073 30.849,74.906 31.536,74.906 L31.585,74.906 C31.766,74.908 31.861,74.923 31.907,74.94 C31.929,75.035 31.939,75.211 31.915,75.299 C31.871,75.446 31.51,75.659 31.08,75.633 C30.93,75.621 30.858,75.606 30.827,75.594 C30.82,75.556 30.81,75.468 30.824,75.272 L30.824,75.272 Z M18.795,73.732 C18.81,73.485 18.817,73.369 19.385,73.369 L19.444,73.374 C19.566,73.374 19.648,73.385 19.695,73.392 C19.691,73.45 19.677,73.539 19.638,73.676 C19.584,73.867 19.27,74.035 18.853,74.101 C18.832,74.106 18.81,74.108 18.788,74.113 C18.781,74.044 18.781,73.929 18.795,73.732 L18.795,73.732 Z M16.477,73.725 C16.513,73.426 16.521,73.376 17.029,73.376 C17.096,73.376 17.164,73.382 17.241,73.382 C17.464,73.39 17.658,73.43 17.747,73.465 C17.758,73.576 17.747,73.817 17.681,74.131 C17.62,74.177 17.408,74.253 17.03,74.253 C16.901,74.253 16.762,74.243 16.635,74.225 C16.533,74.207 16.474,74.191 16.44,74.182 C16.433,74.074 16.462,73.843 16.477,73.725 L16.477,73.725 Z M17.436,61.145 C17.485,61.143 17.523,61.143 17.559,61.143 C17.615,61.143 17.63,61.143 17.693,61.185 C17.72,61.352 17.635,61.781 17.59,62.021 C17.551,62.218 17.515,62.406 17.497,62.574 C17.485,62.704 17.46,62.86 17.43,63.041 C17.333,63.659 17.198,64.504 17.279,65.398 C17.29,65.531 17.338,66.19 17.145,66.209 C16.213,66.308 16.077,66.856 16.077,67.169 C16.077,67.769 16.719,67.912 17.065,67.989 C17.101,67.996 17.143,68.009 17.184,68.016 C17.134,68.093 17.065,68.173 17.034,68.212 C16.833,68.461 16.733,68.781 16.643,69.069 C16.591,69.233 16.543,69.395 16.486,69.494 C16.353,69.733 15.984,70.008 15.867,70.041 C15.416,70.141 15.177,70.409 15.087,70.915 L15.082,70.949 C15.028,71.24 14.943,71.735 14.624,71.888 C14.58,71.906 14.476,71.929 14.323,71.929 C13.749,71.929 13.166,71.642 13.122,71.467 C13.029,71.106 13.563,70.24 13.92,69.67 C14.197,69.222 14.46,68.801 14.581,68.446 C14.952,67.357 15.361,66.062 15.567,64.685 C15.713,63.64 16.796,61.923 17.341,61.145 L17.436,61.145 L17.436,61.145 Z M10.562,39.676 C10.692,39.672 10.815,39.672 10.925,39.672 C12.096,39.672 12.303,39.894 12.483,40.093 C12.515,40.127 12.551,40.166 12.593,40.203 C12.144,40.333 11.389,40.463 10.317,40.463 C9.567,40.463 8.876,40.407 8.245,40.307 C9.05,40.192 9.826,39.981 10.562,39.676 L10.562,39.676 Z M52.705,50.577 C52.531,50.712 52.275,50.761 52.107,50.761 C52.051,50.761 52.012,50.758 52.005,50.752 C51.866,50.581 51.702,50.458 51.341,50.424 C51.299,50.42 51.261,50.42 51.227,50.42 C51.032,50.42 50.874,50.482 50.759,50.601 C50.575,50.792 50.587,51.029 50.595,51.235 C50.6,51.339 50.605,51.458 50.595,51.597 C50.559,52.056 50.433,52.281 50.174,52.649 C49.959,52.952 49.603,53.135 48.894,53.438 C48.794,53.481 48.679,53.498 48.554,53.498 C48.129,53.498 47.669,53.246 47.515,53.07 C47.348,52.878 47.16,52.075 47.16,51.563 C47.16,51.309 47.121,51.018 47.084,50.708 C47.04,50.359 46.991,49.964 46.989,49.601 C46.987,48.67 46.348,48.394 45.785,48.154 L45.583,48.062 C45.422,47.993 45.253,47.954 45.088,47.954 C44.533,47.954 44.12,48.337 43.716,48.707 C43.584,48.832 43.446,48.957 43.311,49.06 C43.18,49.164 43.078,49.213 43.006,49.213 C42.913,49.213 42.767,49.146 42.584,49.054 C42.461,48.992 42.32,48.923 42.162,48.855 C41.716,48.67 41.327,47.995 40.919,47.285 C40.814,47.106 40.711,46.924 40.599,46.743 C40.061,45.852 39.394,45.151 38.562,44.606 C38.335,44.458 38.103,44.385 37.859,44.385 C37.544,44.385 37.273,44.508 37.008,44.626 C36.813,44.714 36.61,44.803 36.38,44.85 C35.85,44.948 35.392,44.557 35.043,44.247 L34.994,44.207 C34.82,44.05 34.609,43.963 34.385,43.963 C34.093,43.963 33.841,44.104 33.639,44.214 C33.546,44.263 33.451,44.316 33.382,44.336 C33.331,44.336 33.217,44.229 33.175,44.125 C33.249,43.945 33.508,43.505 33.72,43.144 C33.823,42.972 33.927,42.791 34.032,42.612 C34.308,42.135 34.577,41.631 34.733,41.328 C35.973,41.464 40.838,42.049 44.917,43.531 C50.503,45.558 52.722,48.988 52.973,49.727 C53.114,50.16 53.007,50.341 52.705,50.577 L52.705,50.577 Z M54.094,60.392 C54.064,60.338 54.038,60.288 54.02,60.242 C54.051,60.269 54.087,60.299 54.12,60.326 C54.11,60.351 54.103,60.369 54.094,60.392 L54.094,60.392 Z M57.748,57.057 C57.812,57.057 57.866,57.055 57.917,57.055 C58.039,57.055 58.069,57.055 58.239,57.175 C58.318,57.366 58.184,58.053 58.116,58.423 C58.065,58.684 58.016,58.934 57.993,59.149 C57.973,59.331 57.939,59.541 57.901,59.786 C57.771,60.61 57.59,61.74 57.696,62.923 C57.801,64.145 57.485,64.176 57.378,64.182 C56.247,64.302 56.079,64.947 56.079,65.324 C56.083,65.998 56.808,66.163 57.288,66.273 C57.401,66.297 57.56,66.335 57.65,66.366 C57.61,66.484 57.405,66.737 57.335,66.826 C57.082,67.135 56.959,67.533 56.837,67.921 C56.764,68.153 56.695,68.376 56.61,68.529 C56.402,68.899 55.859,69.295 55.673,69.337 C55.133,69.457 54.857,69.77 54.745,70.39 L54.738,70.432 C54.665,70.857 54.539,71.57 54.036,71.81 C53.987,71.834 53.848,71.888 53.565,71.888 C52.799,71.888 51.889,71.504 51.797,71.141 C51.656,70.593 52.368,69.44 52.89,68.602 C53.258,68.009 53.604,67.445 53.765,66.985 C54.26,65.539 54.802,63.812 55.084,61.958 C55.311,60.331 57.049,57.765 57.543,57.065 C57.62,57.062 57.686,57.057 57.748,57.057 L57.748,57.057 Z M48.469,28.168 C48.657,28.16 48.83,28.155 48.991,28.155 C50.634,28.155 50.936,28.481 51.204,28.773 C51.295,28.875 51.402,28.99 51.549,29.093 C50.978,29.294 49.859,29.538 48.174,29.538 C46.707,29.538 45.41,29.37 44.289,29.126 C45.753,29.032 47.158,28.711 48.469,28.168 L48.469,28.168 Z M105.314,43.114 C105.05,43.32 104.677,43.394 104.417,43.394 C104.282,43.394 104.206,43.374 104.192,43.372 C104.18,43.362 104.18,43.362 104.148,43.325 C103.986,43.122 103.797,42.984 103.367,42.941 C103.315,42.937 103.269,42.934 103.229,42.934 C103.011,42.934 102.834,43.002 102.71,43.133 C102.512,43.34 102.524,43.606 102.537,43.868 C102.542,44.014 102.547,44.174 102.537,44.374 C102.489,45.007 102.322,45.331 101.94,45.868 C101.629,46.305 101.136,46.565 100.151,46.985 C99.995,47.046 99.822,47.081 99.633,47.081 C99.004,47.081 98.348,46.713 98.114,46.445 C97.843,46.139 97.601,44.999 97.601,44.316 C97.601,43.987 97.551,43.592 97.496,43.181 C97.438,42.711 97.37,42.177 97.368,41.682 C97.365,40.521 96.627,40.203 95.844,39.87 C95.752,39.833 95.661,39.79 95.567,39.751 C95.371,39.662 95.169,39.617 94.969,39.617 C94.281,39.617 93.745,40.114 93.226,40.594 C93.045,40.759 92.857,40.933 92.669,41.076 C92.396,41.291 92.251,41.313 92.165,41.313 C92.004,41.313 91.802,41.214 91.526,41.081 C91.361,40.996 91.178,40.904 90.968,40.815 C90.32,40.548 89.787,39.621 89.222,38.642 C89.083,38.4 88.942,38.158 88.793,37.913 C88.08,36.734 87.199,35.807 86.1,35.087 C85.818,34.904 85.536,34.815 85.236,34.815 C84.845,34.815 84.496,34.973 84.156,35.121 C83.883,35.244 83.6,35.372 83.273,35.434 C83.183,35.45 83.09,35.458 83,35.458 C82.316,35.458 81.75,34.954 81.34,34.582 L81.278,34.528 C81.068,34.344 80.828,34.248 80.562,34.248 C80.211,34.248 79.905,34.416 79.633,34.562 C79.495,34.641 79.365,34.709 79.26,34.743 C79.077,34.797 78.825,34.517 78.769,34.302 C78.841,34.084 79.219,33.445 79.526,32.925 C79.664,32.687 79.809,32.44 79.953,32.193 C80.348,31.503 80.741,30.767 80.945,30.382 C82.43,30.534 89.151,31.319 94.792,33.36 C103.467,36.509 105.711,41.75 105.726,41.801 C105.947,42.459 105.761,42.761 105.314,43.114 L105.314,43.114 Z M106.825,56.008 C106.763,55.826 106.712,55.652 106.667,55.475 C106.756,55.57 106.848,55.662 106.948,55.751 C107.109,55.904 107.323,56.079 107.552,56.268 C107.905,56.556 108.383,56.945 108.517,57.153 C108.625,57.314 108.674,57.428 108.7,57.495 C108.582,57.493 108.413,57.471 108.234,57.413 C107.786,57.269 107.005,56.551 106.825,56.008 L106.825,56.008 Z M104.007,44.92 C104.85,46.028 104.853,48.44 104.857,50.777 C104.86,52.774 104.862,54.832 105.362,56.376 C104.545,55.563 103.824,54.453 103.271,52.644 C102.942,51.558 103.563,46.724 104.007,44.92 L104.007,44.92 Z M62.792,31.381 L62.696,31.277 L62.618,31.167 L62.792,31.381 L62.792,31.381 Z M96.434,43.118 C96.434,43.118 96.378,43.19 96.088,43.256 C96.043,43.267 95.956,43.294 95.847,43.335 C95.544,43.44 94.983,43.643 94.518,43.643 C94.298,43.643 94.142,43.598 94.062,43.508 C93.862,43.29 93.474,42.187 93.474,41.856 C93.595,41.677 93.772,41.517 93.991,41.317 C94.074,41.246 94.159,41.168 94.245,41.088 C94.525,40.824 94.864,40.725 94.976,40.713 C95.222,40.743 96.017,41.068 96.152,41.242 C96.306,41.44 96.307,41.524 96.312,41.827 C96.315,42.068 96.319,42.394 96.412,42.875 C96.447,43.06 96.437,43.109 96.434,43.118 L96.434,43.118 Z M106.085,46.6 C105.963,45.883 105.7,45.155 105.489,44.646 C105.748,44.606 105.957,44.51 106.122,44.39 C106.13,44.449 106.138,44.517 106.143,44.581 C106.179,45.159 106.175,46.112 106.124,46.825 C106.113,46.752 106.101,46.675 106.085,46.6 L106.085,46.6 Z M18.569,40.414 L18.538,40.307 L18.542,40.295 L18.699,40.64 L18.569,40.414 L18.569,40.414 Z M45.899,50.661 C45.863,50.669 45.793,50.69 45.696,50.723 C45.479,50.799 45.074,50.944 44.752,50.944 C44.629,50.944 44.537,50.923 44.502,50.884 C44.371,50.734 44.124,50.029 44.101,49.767 C44.181,49.654 44.298,49.55 44.444,49.421 C44.502,49.363 44.568,49.31 44.632,49.249 C44.803,49.088 45.015,49.015 45.093,49.002 C45.27,49.034 45.778,49.24 45.878,49.348 C45.965,49.463 45.965,49.492 45.97,49.711 C45.973,49.896 45.975,50.148 46.048,50.517 C46.057,50.56 46.061,50.589 46.065,50.607 C46.034,50.622 45.982,50.642 45.899,50.661 L45.899,50.661 Z M51.858,52.309 C52.315,53.178 52.317,54.793 52.322,56.363 C52.322,57.661 52.324,58.994 52.575,60.085 C52.112,59.53 51.697,58.791 51.37,57.714 C51.143,56.973 51.537,53.793 51.858,52.309 L51.858,52.309 Z M53.066,51.894 C53.143,51.872 53.214,51.844 53.278,51.813 C53.29,52.018 53.294,52.269 53.294,52.535 C53.221,52.301 53.141,52.083 53.066,51.894 L53.066,51.894 Z M81.811,69.513 C82.123,68.943 82.471,68.296 82.651,67.74 C82.784,67.316 82.805,66.859 82.825,66.419 C82.847,65.952 82.864,65.507 83.015,65.151 C83.169,64.79 83.427,64.377 83.678,63.981 C83.964,63.521 84.235,63.087 84.381,62.693 C84.453,62.497 84.532,62.291 84.612,62.083 C84.963,61.152 85.322,60.195 85.445,59.611 C85.511,59.297 85.755,59.065 86.026,59.065 C86.104,59.065 86.184,59.086 86.265,59.127 C86.445,59.212 86.64,59.258 86.855,59.258 C87.276,59.258 87.689,59.089 88.123,58.909 C88.597,58.716 89.083,58.512 89.543,58.573 C89.615,58.585 89.684,58.588 89.755,58.593 C89.966,58.595 90.167,58.573 90.339,58.55 C90.444,58.534 90.541,58.523 90.616,58.519 C90.569,58.67 90.217,59.019 89.335,59.351 C89.019,59.464 88.505,59.503 88.008,59.537 C87.182,59.6 86.466,59.649 86.138,60.077 C86.002,60.257 85.95,60.481 86.002,60.718 C86.172,61.602 86.755,61.69 87.104,61.744 C87.303,61.773 87.428,61.796 87.535,61.874 C87.594,62.102 87.016,62.915 86.608,63.18 C86.529,63.232 86.392,63.237 86.259,63.244 C86.05,63.252 85.737,63.264 85.558,63.538 C85.364,63.826 85.492,64.164 85.537,64.29 C85.629,64.534 85.414,64.864 85.052,65.385 C84.877,65.635 84.683,65.917 84.504,66.236 C84.2,66.783 84.148,67.341 84.105,67.832 C84.058,68.338 84.022,68.774 83.734,69.157 C83.398,69.609 83.059,69.678 82.595,69.77 C82.32,69.827 82.003,69.891 81.681,70.054 C81.601,70.092 81.534,70.122 81.475,70.148 C81.566,69.963 81.687,69.744 81.811,69.513 L81.811,69.513 Z M43.097,2.671 L44.298,3.36 L44.888,3.819 L45.505,4.495 L45.768,4.859 L46.096,5.409 L46.27,5.783 L46.474,6.357 L46.57,6.745 L46.631,7.132 L46.663,7.717 L46.658,7.917 L46.597,8.51 L46.51,8.912 L46.32,9.515 L43.353,15.597 L43.302,15.725 L43.113,16.596 L43.088,17.1 L43.135,17.679 L43.23,18.134 C43.313,18.398 43.41,18.644 43.557,18.924 L43.752,19.232 L43.988,19.532 L44.293,19.847 L44.841,20.317 L45.222,20.589 L45.812,20.945 L46.417,21.236 L47.044,21.469 L47.676,21.658 L48.752,21.884 L50.739,22.117 L51.261,22.136 L52.98,22.057 L56.181,22.549 L57.208,22.642 L61.562,22.205 L62.86,22.148 L63.037,22.148 L63.51,22.179 L64.763,22.374 L65.725,22.649 L66.268,22.905 L68.002,24.625 L68.93,25.249 L69.808,25.633 L70.483,25.784 L71.439,25.852 L71.816,25.844 L74.435,26.294 L80.753,28.224 L80.49,28.509 L78.921,31.277 L77.231,33.747 L74.13,36.666 L72.208,38.19 L71.144,38.908 L70.12,39.491 L69.179,39.934 L63.595,41.939 L62.355,42.309 L61.991,42.383 L61.469,39.908 L61.398,38.828 L61.401,38.613 L62.569,32.107 L62.646,31.813 L62.848,31.567 L62.52,31.254 L62.869,31.533 L62.874,31.537 L62.869,31.533 L62.876,31.537 L62.902,31.516 L62.902,31.519 L63.83,31.071 L65.117,30.343 L65.953,29.489 L66.19,29.137 L66.307,28.816 L66.337,28.509 L66.299,28.313 L66.258,28.188 L66.088,27.846 L65.824,27.589 L65.522,27.471 L65.266,27.456 L65.112,27.477 L63.415,28.32 L60.96,28.695 L59.207,29.229 L58.444,28.822 L57.797,28.512 L57.356,28.386 L56.704,28.324 L56.179,28.331 L54.565,28.271 L54.471,27.988 L54.331,27.771 L54.178,27.616 L53.894,27.432 L53.54,27.29 L53.672,26.985 L53.648,26.548 L53.542,26.302 L53.417,26.111 L52.969,25.629 L52.678,25.41 L52.495,25.333 L52.219,25.276 L52.019,25.291 L51.785,25.356 L51.6,25.453 L50.997,25.969 L50.43,26.161 C50.069,26.211 49.71,26.233 49.357,26.233 C46.968,26.233 44.954,25.12 42.572,23.661 C40.062,22.075 39.368,19.809 40.504,16.923 C40.729,16.354 41.077,15.654 41.481,14.841 C42.875,12.032 44.783,8.185 43.518,5.494 C42.913,4.216 41.655,3.337 39.775,2.884 C39.813,2.822 39.848,2.754 39.88,2.679 C40.065,2.253 40.014,1.879 39.877,1.576 L41.426,1.982 L43.097,2.671 L43.097,2.671 Z M4.728,31.251 C4.894,30.834 5.149,30.315 5.447,29.715 C6.495,27.604 7.928,24.717 6.963,22.67 C6.515,21.714 5.603,21.057 4.252,20.701 C4.254,20.688 4.259,20.681 4.264,20.669 C4.378,20.406 4.384,20.172 4.334,19.965 L5.037,20.148 L6.493,20.723 L7.529,21.34 L8.024,21.783 L8.341,22.174 L8.598,22.573 L8.797,22.98 L8.943,23.388 L9.058,23.94 L9.081,24.365 L9.067,24.648 L9.004,25.08 L8.887,25.509 L6.629,30.174 L6.511,30.541 L6.426,31.242 L6.432,31.565 L6.535,32.142 C6.6,32.352 6.678,32.544 6.787,32.75 L6.861,32.878 L7.124,33.227 L7.487,33.586 L7.917,33.927 L8.36,34.219 L8.814,34.452 L9.44,34.697 L10.245,34.915 L11.715,35.136 L12.611,35.198 L13.898,35.136 L16.942,35.573 L19.382,35.332 L21.224,35.206 L21.594,35.218 L22.711,35.394 L23.506,35.646 L25.09,37.117 L25.983,37.644 L26.7,37.875 L27.611,37.96 L27.887,37.952 L28.671,38.067 L31.371,38.824 C31.269,38.809 31.151,38.802 31.023,38.802 C30.294,38.802 29.623,38.664 28.914,38.522 L28.657,38.469 C28.131,38.366 27.248,38.335 27.048,38.335 C26.98,38.331 26.653,38.288 26.417,38.258 C25.893,38.185 25.534,38.139 25.357,38.139 C24.77,38.139 24.663,38.688 24.616,38.921 C24.601,38.993 24.586,39.071 24.563,39.153 C24.437,39.584 24.559,40.035 24.627,40.276 C24.636,40.307 24.645,40.333 24.645,40.345 C24.708,40.682 25.085,41.001 25.398,41.102 C25.632,41.179 25.919,41.11 26.14,41.042 C26.214,41.019 26.292,40.993 26.371,40.981 C26.471,40.96 26.55,40.977 26.611,41.023 C26.807,41.171 27.074,41.192 27.46,41.204 C27.526,41.207 27.584,41.207 27.63,41.212 C27.663,41.214 27.802,41.264 28.052,41.43 C28.229,41.548 28.443,41.616 28.636,41.616 C28.762,41.616 28.878,41.59 28.977,41.536 C29.323,41.359 29.479,40.996 29.368,40.625 C29.246,40.227 28.824,40.093 28.55,40.005 C28.422,39.962 28.136,39.88 27.891,39.816 L27.94,39.816 C28.08,39.819 28.236,39.824 28.325,39.836 C28.58,39.873 28.77,39.916 28.951,39.977 C29.243,40.076 29.54,40.1 29.916,40.1 L29.918,40.1 C30.147,40.1 30.347,40.119 30.559,40.168 C30.835,40.231 31.283,40.295 31.588,40.257 C31.869,40.219 32.015,40.073 32.085,39.955 C32.249,39.683 32.139,39.386 32.098,39.269 C32.042,39.123 31.934,39.013 31.778,38.935 L34.329,39.648 L33.008,41.919 L31.513,43.98 L27.955,47.023 L27.021,47.627 L26.015,48.141 L21.421,49.789 L20.661,49.991 L20.426,49.05 L20.261,47.488 L21.102,42.677 L21.175,42.329 L21.236,42.253 L20.902,41.95 L21.26,42.226 L21.295,42.183 L20.965,41.873 L21.324,42.151 L22.855,41.359 L23.573,40.679 L23.806,40.345 L23.904,40.073 L23.933,39.816 L23.902,39.652 L23.695,39.209 L23.494,39.032 L23.238,38.931 L23.013,38.916 L22.887,38.935 L21.594,39.572 L20.592,39.744 L19.044,40.008 L18.513,40.227 L18.515,40.231 L17.723,39.803 L17.232,39.626 L16.658,39.563 L16.203,39.572 L15.165,39.533 L15.108,39.388 L14.989,39.2 L14.732,38.975 L14.46,38.846 L14.522,38.706 L14.502,38.327 L14.412,38.129 L14.208,37.851 L13.827,37.481 L13.57,37.349 L13.324,37.297 L13.159,37.313 L12.971,37.361 L12.805,37.447 L12.381,37.807 L12.654,38.171 L12.335,37.844 L12.301,37.867 L12.524,38.265 L12.271,37.887 L12.478,38.288 L12.232,37.904 L11.979,37.96 C11.719,37.993 11.454,38.008 11.198,38.008 C9.455,38.008 7.97,37.187 6.22,36.117 C4.408,34.973 3.906,33.335 4.728,31.251 L4.728,31.251 Z M12.841,73.828 C12.261,73.671 12.117,73.519 12.125,73.46 C12.151,73.109 12.22,73.006 12.22,73.006 C12.227,73.002 12.293,72.968 12.481,72.968 C12.558,72.968 12.634,72.975 12.706,72.982 C13.205,73.028 13.284,73.121 13.284,73.121 C13.284,73.121 13.307,73.184 13.249,73.365 C13.21,73.488 13.11,73.813 13.037,73.863 C13.005,73.863 12.944,73.86 12.841,73.828 L12.841,73.828 Z M14.319,74.17 C14.23,74.154 14.175,74.139 14.144,74.131 C14.144,74.018 14.188,73.799 14.208,73.685 C14.268,73.376 14.302,73.336 14.704,73.336 C14.797,73.336 14.9,73.338 15.011,73.347 C15.221,73.354 15.401,73.399 15.494,73.438 C15.494,73.554 15.464,73.794 15.382,74.097 C15.329,74.139 15.131,74.212 14.777,74.212 C14.625,74.212 14.465,74.196 14.319,74.17 L14.319,74.17 Z M25.673,73.539 C25.695,73.45 25.815,73.411 25.912,73.397 C25.924,73.392 25.937,73.392 25.949,73.392 C26.121,73.392 26.385,73.549 26.596,73.671 C26.722,73.745 26.839,73.817 26.956,73.867 C27.151,73.956 27.377,74 27.593,74 C28.164,74 28.404,73.679 28.438,73.408 C28.461,73.225 28.422,73.067 28.321,72.94 C28.161,72.746 27.94,72.727 27.744,72.712 C27.67,72.704 27.579,72.694 27.468,72.677 C27.33,72.658 27.297,72.623 27.173,72.496 C27.161,72.481 27.146,72.469 27.134,72.454 C27.285,72.53 27.42,72.569 27.553,72.569 C27.765,72.569 28.052,72.477 28.214,72.041 C28.408,71.524 28.136,71.283 27.921,71.092 C27.773,70.961 27.632,70.895 27.44,70.804 C27.263,70.719 27.023,70.607 26.622,70.38 C26.256,70.169 25.734,69.198 25.076,67.498 C25.01,67.331 24.961,67.209 24.938,67.154 C24.559,66.35 24.189,65.573 23.837,64.844 C22.977,63.053 22.234,61.506 21.867,60.435 C21.335,58.88 21.13,57.628 21.126,57.2 C21.124,56.906 21.163,56.4 21.434,56.349 C21.447,56.349 21.46,56.345 21.475,56.345 C21.925,56.345 22.394,58.06 22.441,59.101 C22.521,60.802 23.608,61.938 24.132,62.482 L24.219,62.579 C24.627,63.007 25.198,63.901 25.453,64.382 C25.868,65.164 26.373,65.888 26.858,66.592 C27.814,67.971 28.713,69.273 28.944,70.885 C29.074,71.838 29.885,72.034 30.42,72.163 C30.461,72.17 30.466,72.182 30.476,72.201 C30.542,72.316 30.544,72.658 30.394,73.132 C30.284,73.477 29.721,73.875 29.326,73.974 C28.862,74.089 28.583,74.157 27.687,74.19 C26.812,74.217 25.998,73.985 25.832,73.871 C25.706,73.779 25.652,73.63 25.673,73.539 L25.673,73.539 Z M24.479,75.392 C24.47,75.394 24.27,75.419 23.992,75.341 C23.634,75.241 23.543,75.166 23.53,75.166 L23.529,75.166 C23.529,75.154 23.54,75.073 23.652,74.901 C23.747,74.756 23.964,74.417 24.052,74.388 L24.053,74.388 C24.063,74.388 24.114,74.388 24.232,74.449 C24.37,74.519 24.821,74.756 24.766,74.894 C24.596,75.307 24.491,75.384 24.479,75.392 L24.479,75.392 Z M26.522,76.003 C26.297,76.003 26.033,75.967 25.8,75.9 C25.715,75.873 25.662,75.855 25.627,75.84 C25.647,75.733 25.711,75.532 25.747,75.429 C25.849,75.127 25.929,75.127 26.105,75.127 C26.251,75.127 26.442,75.154 26.629,75.184 C26.836,75.216 27.017,75.279 27.109,75.326 C27.092,75.452 27.025,75.687 26.914,75.94 C26.877,75.962 26.758,76.003 26.522,76.003 L26.522,76.003 Z M28.404,76.062 C28.287,76.038 28.229,76.023 28.2,76.008 C28.194,75.969 28.192,75.863 28.231,75.618 C28.273,75.358 28.284,75.284 28.845,75.284 C28.916,75.284 28.993,75.289 29.074,75.291 C29.326,75.296 29.533,75.338 29.628,75.375 C29.638,75.456 29.623,75.621 29.567,75.844 C29.477,75.927 29.091,76.072 28.622,76.072 C28.541,76.072 28.465,76.069 28.404,76.062 L28.404,76.062 Z M33.531,72.643 C33.544,72.243 33.615,72.148 33.623,72.14 C33.63,72.133 33.73,72.049 34.163,72.024 C34.254,72.017 34.342,72.015 34.419,72.015 C34.66,72.015 34.725,72.052 34.721,72.045 C34.729,72.052 34.764,72.12 34.753,72.378 C34.733,72.901 34.619,72.901 34.41,72.901 C34.361,72.901 34.31,72.901 34.254,72.894 C33.826,72.849 33.529,72.746 33.531,72.643 L33.531,72.643 Z M37.221,72.159 C37.235,72.331 37.207,72.684 37.163,72.914 C37.157,72.918 37.152,72.925 37.142,72.933 C37.071,72.982 36.862,73.059 36.503,73.059 C36.398,73.059 36.296,73.051 36.191,73.041 C35.955,73.008 35.896,72.954 35.881,72.94 C35.867,72.918 35.814,72.822 35.859,72.469 C35.908,72.086 35.908,72.086 36.539,72.086 L36.55,71.634 L36.55,72.086 C36.815,72.086 37.084,72.12 37.221,72.159 L37.221,72.159 Z M40.742,71.898 C40.785,71.892 40.849,71.877 40.948,71.864 C41.128,71.838 41.301,71.857 41.35,71.873 C41.377,71.913 41.409,71.96 41.445,72.01 C41.499,72.084 41.604,72.228 41.639,72.31 C41.604,72.417 41.519,72.477 41.009,72.569 C40.905,72.589 40.814,72.596 40.763,72.591 C40.753,72.546 40.742,72.454 40.742,72.271 L40.742,71.898 L40.742,71.898 Z M51.529,74.437 C51.022,74.3 50.42,74.069 50.444,73.779 C50.498,73.165 50.632,73.051 50.637,73.051 C50.651,73.036 50.756,72.973 51.081,72.973 C51.193,72.973 51.299,72.979 51.402,72.987 C52.077,73.051 52.256,73.179 52.302,73.247 C52.349,73.32 52.337,73.485 52.268,73.704 C52.033,74.452 51.959,74.489 51.835,74.489 C51.758,74.489 51.656,74.472 51.529,74.437 L51.529,74.437 Z M57.985,74.906 C57.956,74.913 57.923,74.923 57.893,74.931 C57.873,74.935 57.855,74.943 57.836,74.947 C57.812,74.951 57.785,74.955 57.763,74.958 C57.73,74.967 57.696,74.975 57.657,74.981 C57.632,74.981 57.606,74.984 57.578,74.989 C57.538,74.992 57.499,74.997 57.453,75.002 C57.376,75.005 57.298,75.01 57.21,75.01 C57.025,75.01 56.832,74.992 56.653,74.97 C56.337,74.921 56.276,74.871 56.274,74.867 C56.225,74.778 56.281,74.334 56.308,74.123 C56.369,73.625 56.454,73.519 57.205,73.519 C57.295,73.519 57.392,73.523 57.492,73.523 C57.9,73.533 58.223,73.63 58.312,73.696 C58.354,73.828 58.334,74.26 58.228,74.759 C58.223,74.786 58.148,74.848 57.99,74.901 C57.99,74.906 57.985,74.906 57.985,74.906 L57.985,74.906 Z M68.686,73.86 C68.725,73.696 68.877,73.592 69.137,73.547 C69.159,73.542 69.184,73.542 69.209,73.542 C69.486,73.542 69.864,73.765 70.164,73.94 C70.327,74.035 70.481,74.123 70.629,74.191 C70.871,74.3 71.153,74.356 71.425,74.356 C72.085,74.356 72.365,74.018 72.407,73.696 C72.43,73.493 72.387,73.32 72.28,73.19 C72.108,72.975 71.868,72.954 71.609,72.933 C71.507,72.925 71.38,72.914 71.227,72.891 C70.993,72.852 70.92,72.776 70.744,72.6 C70.629,72.481 70.483,72.331 70.266,72.182 C70.149,72.102 70.12,72.052 70.115,72.052 C70.117,72.045 70.126,72.015 70.169,71.946 C70.305,71.982 70.543,72.113 70.681,72.19 L70.827,72.271 C71.028,72.378 71.2,72.427 71.366,72.427 C71.605,72.427 71.926,72.324 72.112,71.823 C72.334,71.229 72.041,70.969 71.757,70.716 C71.575,70.554 71.405,70.476 71.151,70.356 C70.91,70.24 70.581,70.087 70.037,69.777 C69.247,69.326 68.225,66.695 67.89,65.829 C67.804,65.604 67.739,65.438 67.706,65.37 C67.201,64.29 66.704,63.257 66.234,62.275 C65.07,59.854 64.068,57.765 63.568,56.305 C62.841,54.176 62.569,52.51 62.566,51.91 C62.559,51.361 62.649,50.69 63.104,50.605 C63.132,50.601 63.159,50.596 63.186,50.596 C63.971,50.596 64.588,53.128 64.648,54.453 C64.751,56.68 66.186,58.186 66.877,58.906 L66.997,59.033 C67.555,59.626 68.333,60.843 68.68,61.494 C69.235,62.536 69.91,63.513 70.561,64.455 C71.857,66.327 73.08,68.093 73.392,70.298 C73.559,71.477 74.544,71.716 75.264,71.892 C75.35,71.911 75.4,71.948 75.44,72.015 C75.571,72.248 75.53,72.787 75.34,73.392 C75.175,73.917 74.372,74.489 73.794,74.629 C73.158,74.791 72.775,74.885 71.558,74.923 L71.358,74.923 C70.191,74.923 69.193,74.629 68.959,74.464 C68.757,74.319 68.642,74.06 68.686,73.86 L68.686,73.86 Z M67.299,76.523 C67.226,76.563 66.943,76.582 66.533,76.468 C65.897,76.296 65.813,76.145 65.802,76.119 C65.797,76.106 65.763,75.988 65.99,75.64 C66.307,75.146 66.509,74.878 66.659,74.878 C66.709,74.878 66.805,74.894 66.968,74.977 C67.896,75.441 67.797,75.683 67.762,75.775 C67.523,76.371 67.348,76.498 67.299,76.523 L67.299,76.523 Z M68.964,77.221 C68.698,77.146 68.624,77.092 68.615,77.092 L68.614,77.092 C68.591,76.988 68.726,76.586 68.792,76.391 C68.944,75.924 69.11,75.873 69.425,75.873 C69.629,75.873 69.891,75.912 70.147,75.949 C70.539,76.016 70.841,76.142 70.932,76.214 C70.939,76.364 70.836,76.768 70.642,77.214 C70.629,77.245 70.468,77.367 69.977,77.367 C69.661,77.367 69.294,77.313 68.964,77.221 L68.964,77.221 Z M84.522,71.921 C84.568,72.133 84.522,72.738 84.442,73.109 C84.417,73.232 84.044,73.404 83.412,73.404 C83.266,73.404 83.12,73.392 82.976,73.376 C82.703,73.343 82.527,73.278 82.455,73.186 C82.364,73.067 82.344,72.817 82.391,72.434 C82.466,71.838 82.502,71.784 83.46,71.781 L83.476,71.328 L83.476,71.781 C83.923,71.781 84.37,71.853 84.522,71.921 L84.522,71.921 Z M88.972,71.57 C89.015,71.55 89.12,71.519 89.371,71.484 C89.478,71.47 89.578,71.462 89.671,71.462 C89.915,71.462 90.027,71.517 90.037,71.519 C90.076,71.58 90.129,71.661 90.192,71.745 C90.275,71.857 90.463,72.117 90.492,72.232 C90.428,72.469 90.362,72.589 89.505,72.741 C89.377,72.769 89.267,72.78 89.181,72.78 C89.066,72.78 89.029,72.757 89.029,72.757 C89.019,72.746 88.958,72.658 88.961,72.182 L88.961,71.941 C88.961,71.799 88.959,71.642 88.972,71.57 L88.972,71.57 Z M103.363,73.155 C103.302,73.158 103.241,73.163 103.18,73.163 C102.743,73.163 102.524,73.041 102.507,72.991 C102.78,72.075 103.041,71.776 103.581,71.765 L103.681,71.761 C104.165,71.761 104.27,71.867 104.287,71.892 C104.302,71.911 104.364,72.021 104.255,72.4 C104.048,73.102 103.943,73.109 103.363,73.155 L103.363,73.155 Z M112.627,73.289 C112.623,73.289 112.617,73.293 112.611,73.297 C112.566,73.32 112.516,73.338 112.466,73.357 C112.46,73.357 112.455,73.361 112.45,73.361 C112.401,73.382 112.348,73.392 112.294,73.408 C112.287,73.408 112.279,73.411 112.271,73.411 C112.222,73.422 112.174,73.43 112.126,73.438 C112.11,73.438 112.091,73.443 112.077,73.443 C112.038,73.45 112.002,73.45 111.963,73.45 C111.941,73.453 111.916,73.453 111.889,73.453 C111.833,73.453 111.779,73.453 111.728,73.45 C111.491,73.426 111.382,73.419 111.432,72.68 C111.465,72.208 111.514,72.045 112.274,72.045 L112.358,72.049 C112.638,72.052 112.723,72.201 112.75,72.256 C112.911,72.537 112.974,72.811 112.925,72.975 C112.911,73.018 112.89,73.059 112.864,73.095 C112.859,73.102 112.85,73.109 112.845,73.116 C112.82,73.146 112.795,73.174 112.759,73.2 C112.757,73.204 112.75,73.208 112.743,73.212 C112.706,73.239 112.669,73.267 112.627,73.289 L112.627,73.289 Z M113.94,71.737 C112.845,69.543 112.45,68.667 112.143,66.35 C112.089,65.932 112.05,65.557 112.015,65.2 C111.895,63.998 111.794,62.964 111.092,61.598 C110.463,60.371 109.705,59.576 108.907,58.948 C109.059,58.958 109.18,58.951 109.292,58.926 C109.844,58.794 110.086,58.47 110.192,58.217 C110.482,57.539 110.091,56.733 109.907,56.42 C109.617,55.916 109.127,55.594 108.698,55.31 C108.485,55.168 108.283,55.038 108.147,54.907 C107.093,53.916 107.132,53.212 107.17,52.461 C107.181,52.267 107.191,52.065 107.181,51.865 C107.123,50.719 107.273,49.322 107.415,47.969 C107.515,47.038 107.618,46.074 107.648,45.213 C107.764,41.984 105.892,39.406 104.302,37.815 C98.422,31.929 89.954,30.307 81.69,29.255 C81.713,29.229 81.738,29.205 81.764,29.18 C81.947,28.987 82.137,28.791 82.271,28.517 C82.651,27.731 82.003,27.333 81.728,27.164 L81.667,27.127 C81.44,26.985 81.065,26.84 80.672,26.69 C80.442,26.602 80.211,26.509 80.022,26.426 C77.665,25.372 73.938,24.729 71.929,24.442 L71.882,24.437 L71.84,24.442 C70.422,24.515 69.896,24.208 69.294,23.845 L69.23,23.806 C68.898,23.611 68.657,23.327 68.35,22.971 C68.138,22.723 67.896,22.443 67.593,22.159 C66.821,21.435 65.569,20.997 63.656,20.784 C63.435,20.762 63.166,20.746 62.861,20.746 C61.696,20.746 60.147,20.929 58.901,21.076 C58.123,21.163 57.451,21.243 57.151,21.243 L57.115,21.243 C56.618,21.229 55.691,21.057 54.872,20.907 C54.389,20.819 53.931,20.734 53.611,20.688 C53.191,20.634 52.656,20.662 52.158,20.696 C51.728,20.727 51.29,20.757 50.85,20.723 C48.604,20.53 46.618,20.244 45.093,18.683 C44.173,17.741 44.51,16.388 44.612,16.161 C45.49,14.264 46.441,12.405 47.275,10.769 C48.633,8.115 48.167,5.208 46.036,2.994 C45.015,1.934 43.066,1.069 42.184,0.76 C41.377,0.477 39.073,-0.126 37.145,-0.308 C37.03,-0.317 36.927,-0.324 36.837,-0.324 C36.227,-0.324 36.012,-0.061 35.94,0.157 C35.779,0.636 36.169,1.165 37.335,2.044 L37.364,2.065 C37.447,2.164 37.488,2.254 37.48,2.315 C37.466,2.388 37.388,2.472 37.283,2.527 C37.123,2.611 36.951,2.702 36.774,2.792 C35.196,3.611 34.827,3.822 34.921,4.285 C34.958,4.468 35.116,4.668 35.438,4.693 C35.56,4.701 35.774,4.697 36.062,4.69 C36.298,4.683 36.583,4.676 36.894,4.676 C37.625,4.676 38.209,4.721 38.679,4.815 C40.204,5.121 41.148,5.652 41.563,6.434 C42.174,7.589 41.604,9.309 40.893,10.997 C40.537,11.846 39.337,14.193 39.068,14.627 C38.306,15.852 37.314,18.325 37.493,19.996 C37.571,20.727 37.913,22.201 39.329,23.833 C40.463,25.127 41.814,25.797 43.242,26.509 L43.744,26.759 C44.147,26.961 44.45,27.127 44.676,27.257 C44.242,27.356 43.744,27.409 43.185,27.409 C41.357,27.409 39.347,26.864 38.269,26.575 C37.722,26.43 37.527,26.376 37.381,26.376 L36.586,26.472 L36.991,27.08 C38.698,29.65 43.781,31.438 47.27,31.438 C47.554,31.438 47.825,31.423 48.074,31.399 C47.894,31.473 47.685,31.545 47.466,31.614 C47.026,31.759 46.574,31.909 46.222,32.142 C45.679,32.5 45.126,33.445 44.759,34.173 C44.415,34.85 44.585,35.307 45.329,35.704 C45.433,35.758 45.524,35.822 45.609,35.881 C45.827,36.024 46.053,36.18 46.348,36.18 C46.819,36.18 47.141,35.784 47.367,35.44 C47.699,34.938 48.474,34.606 49.303,34.606 C49.809,34.606 50.288,34.731 50.687,34.969 C51.373,35.382 52.517,36.124 52.873,36.455 C54.599,38.052 55.211,38.74 55.857,40.785 L55.913,40.973 C56.141,41.732 56.737,43.718 57.711,45.269 C57.73,45.697 57.671,46.79 57.627,47.679 C57.583,48.533 57.548,49.267 57.559,49.563 C57.657,52.162 57.331,53.793 56.215,56.282 C56.051,56.644 55.772,57.14 55.479,57.665 C55.231,58.11 54.96,58.593 54.709,59.081 C54.225,58.523 54.245,58.098 54.271,57.617 C54.278,57.474 54.287,57.321 54.278,57.168 C54.235,56.323 54.348,55.286 54.455,54.287 C54.527,53.595 54.604,52.875 54.627,52.231 C54.716,49.792 53.307,47.852 52.107,46.653 C47.767,42.307 41.553,41.071 35.465,40.287 C35.572,40.168 35.679,40.037 35.757,39.873 C36.086,39.196 35.503,38.836 35.311,38.718 L35.265,38.691 C35.089,38.579 34.808,38.469 34.511,38.356 C34.342,38.288 34.17,38.227 34.031,38.163 C32.265,37.373 29.484,36.894 27.987,36.681 L27.942,36.673 L27.898,36.678 C26.882,36.731 26.524,36.523 26.072,36.251 L26.024,36.225 C25.793,36.087 25.618,35.881 25.398,35.625 C25.237,35.44 25.056,35.23 24.827,35.012 C24.23,34.455 23.279,34.123 21.835,33.962 C21.017,33.874 19.454,34.039 18.278,34.177 C17.73,34.241 17.21,34.298 16.969,34.298 L16.968,34.298 C16.607,34.287 15.927,34.165 15.329,34.054 C14.961,33.987 14.616,33.924 14.373,33.891 C14.051,33.851 13.643,33.87 13.266,33.897 C12.951,33.919 12.634,33.938 12.317,33.917 C10.669,33.774 9.216,33.566 8.112,32.434 C7.475,31.783 7.71,30.846 7.779,30.691 C8.429,29.282 9.133,27.903 9.755,26.69 C10.786,24.668 10.434,22.458 8.813,20.776 C8.042,19.98 6.576,19.326 5.905,19.088 C5.3,18.877 3.569,18.425 2.133,18.287 C2.046,18.28 1.968,18.275 1.899,18.275 C1.375,18.275 1.185,18.514 1.119,18.712 C0.958,19.187 1.407,19.647 2.182,20.236 L2.204,20.251 C2.249,20.306 2.254,20.333 2.256,20.333 C2.253,20.345 2.224,20.383 2.172,20.408 C2.049,20.475 1.919,20.544 1.786,20.612 C0.648,21.201 0.266,21.4 0.356,21.842 C0.395,22.017 0.543,22.213 0.847,22.234 C0.941,22.242 1.104,22.239 1.324,22.234 C1.5,22.227 1.709,22.225 1.935,22.225 C2.471,22.225 2.899,22.259 3.24,22.323 C4.337,22.547 5.014,22.921 5.303,23.47 C5.734,24.285 5.317,25.534 4.803,26.759 C4.538,27.394 3.652,29.126 3.455,29.442 C2.881,30.365 2.131,32.238 2.265,33.502 C2.326,34.062 2.587,35.184 3.662,36.416 C4.516,37.398 5.527,37.896 6.6,38.435 L6.973,38.617 C7.127,38.698 7.261,38.768 7.38,38.828 C7.145,38.862 6.887,38.882 6.61,38.882 C5.27,38.882 3.789,38.484 2.992,38.271 C2.563,38.155 2.421,38.116 2.299,38.116 L1.507,38.216 L1.912,38.821 C3.174,40.717 6.866,42.049 9.482,42.106 C9.243,42.19 9.004,42.287 8.805,42.416 C8.468,42.641 8.088,43.161 7.675,43.97 C7.393,44.531 7.544,44.94 8.15,45.266 C8.221,45.304 8.289,45.351 8.349,45.388 C8.517,45.503 8.705,45.634 8.961,45.634 C9.367,45.634 9.632,45.312 9.818,45.028 C10.038,44.694 10.589,44.462 11.156,44.462 C11.513,44.462 11.849,44.549 12.127,44.714 C12.634,45.021 13.473,45.568 13.731,45.806 C14.975,46.958 15.43,47.434 15.916,48.972 L15.958,49.111 C16.126,49.673 16.568,51.143 17.29,52.304 C17.297,52.642 17.257,53.457 17.225,54.066 C17.195,54.696 17.167,55.241 17.176,55.467 C17.249,57.375 17.006,58.575 16.19,60.406 C16.069,60.668 15.865,61.034 15.648,61.423 C15.109,62.38 14.441,63.57 14.302,64.486 C14.105,65.81 13.438,68.261 12.89,68.932 C12.176,69.806 11.245,71.913 11.106,72.537 C11.041,72.825 11.011,72.925 10.992,72.979 C10.969,73.043 10.952,73.097 10.943,73.17 C10.862,73.485 10.872,74.062 11.769,74.545 C12.476,74.931 12.811,74.977 13.078,75.017 C13.085,75.017 13.093,75.019 13.103,75.019 C13.607,75.422 14.736,75.429 14.79,75.429 C15.113,75.429 15.548,75.392 15.921,75.223 C16.223,75.319 16.562,75.406 16.965,75.406 C17.345,75.406 17.737,75.33 18.168,75.166 C18.325,75.218 18.501,75.245 18.692,75.245 C19.621,75.245 20.7,74.618 20.825,73.684 C20.943,72.815 20.993,72.297 20.951,71.71 C20.918,71.244 20.846,70.812 20.774,70.39 C20.661,69.731 20.557,69.11 20.648,68.536 C20.712,68.123 21.04,67.778 21.419,67.385 C21.71,67.077 22.011,66.764 22.245,66.369 C22.39,66.116 22.519,65.982 22.66,65.849 C22.731,66.313 22.762,66.862 22.784,67.194 L22.79,67.288 C22.818,67.715 23.091,68.304 23.411,68.985 C23.629,69.457 23.853,69.942 24.007,70.39 C24.318,71.303 24.189,71.55 23.811,72.295 C23.516,72.876 23.306,73.227 23.089,73.602 C22.855,73.998 22.613,74.407 22.271,75.093 L22.234,75.201 C22.204,75.341 22.206,75.565 22.404,75.805 C22.792,76.291 23.867,76.681 24.584,76.578 C25.064,77.012 25.88,77.177 26.553,77.177 C26.939,77.177 27.299,77.122 27.593,77.019 C27.919,77.16 28.304,77.238 28.699,77.238 C29.317,77.238 29.901,77.054 30.367,76.713 C30.561,76.774 30.774,76.804 30.993,76.804 C31.65,76.804 32.314,76.536 32.719,76.106 C33.034,75.775 33.188,75.365 33.163,74.923 C33.139,74.491 33.078,74.078 32.987,73.699 C33.331,73.921 33.807,74.044 34.373,74.044 C34.62,74.044 34.914,74.018 35.16,73.95 C35.574,74.217 36.18,74.245 36.467,74.245 C36.951,74.245 37.432,74.162 37.843,74 C38.103,74.078 38.398,74.116 38.712,74.116 C39.109,74.116 39.785,74.035 40.216,73.774 C40.309,73.791 40.412,73.799 40.523,73.799 C41.136,73.799 42.557,73.493 42.775,72.581 C42.918,71.981 42.657,71.535 42.43,71.146 C42.235,70.815 42.067,70.528 42.091,70.126 C42.135,69.384 42.297,68.893 42.496,68.273 C42.565,68.062 42.638,67.839 42.71,67.594 C42.786,67.326 42.786,67.085 42.786,66.871 C42.786,66.465 42.786,66.238 43.235,65.922 C43.432,65.779 43.606,65.686 43.809,65.575 C43.996,65.481 44.186,65.378 44.41,65.232 C44.978,64.862 45.144,64.597 45.29,64.237 C46.08,64.527 46.79,64.918 47.241,65.167 L47.344,65.221 C49.154,66.217 49.699,66.626 50.491,68.093 C50.778,68.629 50.778,69.057 50.725,69.444 C50.081,70.661 49.503,72.052 49.385,72.581 C49.298,72.975 49.254,73.109 49.228,73.19 C49.201,73.269 49.183,73.328 49.171,73.43 C49.047,73.878 49.131,74.534 50.198,75.108 C51.132,75.618 51.567,75.679 51.915,75.729 C51.939,75.733 51.961,75.733 51.986,75.736 C52.499,76.175 53.709,76.28 54.194,76.28 C54.627,76.28 55.217,76.227 55.703,75.993 C56.113,76.126 56.571,76.254 57.12,76.254 C57.625,76.254 58.153,76.142 58.732,75.915 C58.943,75.993 59.18,76.03 59.446,76.03 C60.627,76.03 62.003,75.241 62.162,74.067 C62.324,72.869 62.385,72.206 62.328,71.442 C62.284,70.823 62.186,70.244 62.091,69.685 C61.938,68.786 61.791,67.936 61.92,67.135 C62.014,66.531 62.474,66.052 63.002,65.5 C63.384,65.098 63.784,64.68 64.088,64.164 C64.341,63.727 64.561,63.531 64.81,63.303 C64.836,63.282 64.858,63.259 64.885,63.232 C65.017,63.906 65.073,64.808 65.105,65.315 L65.117,65.47 C65.149,66.018 65.512,66.798 65.934,67.701 C66.23,68.338 66.537,68.996 66.743,69.604 C67.184,70.895 66.987,71.275 66.47,72.29 C66.069,73.082 65.79,73.557 65.49,74.067 C65.18,74.595 64.858,75.139 64.4,76.055 L64.361,76.16 C64.327,76.322 64.332,76.567 64.557,76.847 C65.065,77.478 66.505,77.984 67.424,77.815 C68.033,78.408 69.159,78.63 70.021,78.63 C70.55,78.63 71.039,78.555 71.426,78.408 C71.859,78.608 72.377,78.716 72.911,78.716 C73.74,78.716 74.514,78.462 75.13,77.996 C75.393,78.083 75.689,78.129 75.996,78.129 C76.843,78.129 77.692,77.788 78.212,77.24 C78.603,76.828 78.794,76.317 78.764,75.767 C78.721,75.002 78.59,74.273 78.387,73.652 C78.816,74.139 79.575,74.415 80.55,74.415 C80.879,74.415 81.303,74.377 81.636,74.28 C82.176,74.656 83.061,74.69 83.363,74.69 C84.013,74.69 84.666,74.567 85.213,74.347 C85.558,74.456 85.959,74.511 86.387,74.511 C87.065,74.511 87.896,74.364 88.382,74.044 C88.51,74.074 88.654,74.089 88.822,74.089 C89.7,74.089 91.441,73.642 91.702,72.565 C91.878,71.819 91.548,71.253 91.255,70.753 C90.991,70.302 90.741,69.881 90.778,69.287 C90.838,68.273 91.056,67.606 91.329,66.764 C91.419,66.48 91.517,66.183 91.615,65.849 C91.713,65.512 91.713,65.197 91.713,64.918 C91.71,64.358 91.71,63.99 92.379,63.513 C92.656,63.313 92.909,63.18 93.177,63.038 C93.423,62.908 93.674,62.774 93.969,62.581 C94.772,62.059 94.939,61.72 95.146,61.177 C96.273,61.569 97.29,62.129 97.921,62.478 L98.075,62.563 C100.417,63.846 101.269,64.432 102.376,66.488 C102.888,67.441 102.756,68.181 102.649,68.771 C102.633,68.858 102.617,68.946 102.605,69.027 C102.473,69.889 102.218,70.421 101.715,71.477 C101.574,71.776 101.413,72.113 101.235,72.508 C100.959,73.102 101.092,73.523 101.254,73.773 C101.688,74.449 102.739,74.522 103.169,74.522 C103.624,74.522 104.172,74.449 104.562,74.258 C105.021,74.519 105.556,74.652 106.124,74.652 C106.676,74.652 107.262,74.522 107.764,74.288 C108.315,74.549 109.147,74.671 109.766,74.671 C110.24,74.671 110.616,74.609 110.892,74.489 C111.214,74.584 111.558,74.637 111.898,74.637 C112.82,74.637 113.598,74.273 113.975,73.664 C114.208,73.289 114.392,72.644 113.94,71.737 L113.94,71.737 Z" id="Fill-1" fill="#114F2C" sketch:type="MSShapeGroup"></path>
            <path d="M67.608,29.194 C67.687,29.588 68.14,29.968 68.516,30.09 C68.792,30.178 69.127,30.098 69.421,30.006 C69.537,29.972 69.647,29.938 69.746,29.921 C69.93,29.887 70.073,29.918 70.195,30.009 C70.424,30.185 70.765,30.205 71.258,30.22 C71.346,30.226 71.424,30.226 71.482,30.232 C71.575,30.24 71.813,30.339 72.123,30.546 C72.334,30.69 72.591,30.775 72.824,30.775 C72.97,30.775 73.099,30.746 73.218,30.683 C73.613,30.481 73.79,30.063 73.662,29.646 C73.521,29.181 73.02,29.022 72.663,28.911 C72.481,28.85 72.097,28.745 71.756,28.649 C71.573,28.6 71.408,28.558 71.35,28.538 C71.293,28.513 71.185,28.394 71.107,28.29 C71.158,28.297 71.212,28.306 71.273,28.313 C71.439,28.34 71.661,28.347 71.895,28.351 C72.095,28.356 72.299,28.362 72.434,28.379 C72.759,28.424 73.043,28.489 73.299,28.577 C73.69,28.715 74.095,28.734 74.478,28.734 L74.521,28.731 C74.857,28.731 75.145,28.762 75.449,28.831 C75.618,28.867 76.317,29.007 76.778,28.945 C77.095,28.901 77.253,28.742 77.332,28.612 C77.515,28.31 77.393,27.977 77.339,27.83 C77.202,27.474 76.783,27.299 76.037,27.299 C75.044,27.299 74.138,27.114 73.176,26.923 L72.826,26.85 C72.135,26.712 70.956,26.671 70.688,26.671 C70.6,26.671 70.183,26.612 69.848,26.567 C69.159,26.475 68.653,26.41 68.413,26.41 C67.75,26.41 67.63,27.015 67.567,27.336 C67.547,27.437 67.525,27.547 67.494,27.662 C67.339,28.198 67.494,28.773 67.577,29.078 C67.591,29.127 67.6,29.162 67.608,29.194" id="Fill-2" fill="#114F2C" sketch:type="MSShapeGroup"></path>
            <path d="M60.214,26.563 L60.16,26.417 L60.163,26.417 L60.291,26.755 L60.214,26.563 L60.214,26.563 Z M57.217,25.797 C57.632,25.521 58.055,25.315 58.486,25.173 C58.474,25.2 58.463,25.227 58.451,25.254 C58.346,25.498 58.282,25.763 58.282,26.042 L57.217,25.797 Z M58.763,27.142 L58.771,27.142 C60.096,27.142 61.374,26.514 62.682,25.223 L63.181,24.732 L62.526,24.481 C62.331,24.403 62.14,24.341 61.947,24.28 C61.877,24.258 61.803,24.237 61.73,24.216 C61.616,24.184 61.503,24.157 61.39,24.132 C61.216,24.094 61.045,24.059 60.877,24.031 C60.823,24.024 60.765,24.012 60.71,24.005 C60.587,23.99 60.466,23.977 60.344,23.971 C60.308,23.971 60.27,23.966 60.233,23.966 C60.128,23.958 60.026,23.948 59.923,23.948 C58.953,23.948 58.039,24.193 57.154,24.683 C57.11,24.706 57.066,24.732 57.021,24.756 C56.94,24.805 56.856,24.855 56.775,24.908 C56.695,24.954 56.623,25.008 56.545,25.058 C56.483,25.1 56.422,25.142 56.364,25.188 C56.223,25.292 56.083,25.399 55.942,25.518 L55.467,25.912 L55.99,26.245 C56.932,26.842 57.855,27.142 58.763,27.142 L58.763,27.142 Z" id="Fill-3" fill="#114F2C" sketch:type="MSShapeGroup"></path>
            <path d="M18.198,37.242 C18.171,37.342 18.179,37.909 18.171,38.013 C18.052,37.991 17.498,37.759 17.377,37.719 C17.514,37.638 18.059,37.302 18.198,37.242 M18.21,38.836 C18.443,38.836 18.676,38.809 18.91,38.756 L18.93,38.756 L18.925,38.751 C19.042,38.725 19.156,38.69 19.269,38.648 C19.888,38.435 20.497,38.028 21.111,37.419 L21.614,36.929 L20.958,36.678 C19.105,35.961 17.566,36.213 16.1,37.442 L15.624,37.841 L16.148,38.17 C16.85,38.615 17.532,38.836 18.21,38.836" id="Fill-4" fill="#114F2C" sketch:type="MSShapeGroup"></path>
            <path d="M123.87,32.117 C130.316,32.954 129.185,31.778 129.185,42.027 C129.185,44.258 129.382,47.629 129.156,49.727 C128.913,51.926 126.525,51.76 123.782,52.006 L123.773,55.776 L145.515,55.781 L145.507,52.006 C143.98,51.878 141.278,51.974 140.463,50.804 C139.92,50.027 139.947,46.002 140.151,44.868 L156.683,44.856 C156.862,45.924 156.872,49.909 156.416,50.678 C155.66,51.974 152.884,51.902 151.328,51.993 L151.319,55.781 L173.064,55.776 L173.055,52.014 C171.942,51.902 170.842,51.774 169.73,51.63 C168.563,51.487 167.874,51.038 167.69,49.883 L167.663,34.467 C167.901,32.087 169.916,32.552 172.961,32.111 C173.188,31.313 173.108,29.269 173.024,28.369 L151.355,28.359 C151.284,29.28 151.187,31.305 151.431,32.12 C153.061,32.312 155.69,32.234 156.389,33.413 C156.96,34.385 156.755,37.894 156.733,39.24 L140.098,39.287 C139.947,31.81 139.791,32.83 145.399,32.117 C145.641,31.322 145.552,29.259 145.472,28.364 L123.808,28.359 C123.736,29.289 123.638,31.285 123.87,32.117" id="Fill-5" fill="#004E2C" sketch:type="MSShapeGroup"></path>
            <path d="M219.682,32.117 C219.831,31.261 219.809,30.161 219.682,28.359 L201.45,28.359 C201.205,30.789 201.366,31.9 201.45,32.117 L203.392,32.117 C205.197,32.117 206.109,32.388 206.655,32.912 C207.195,33.44 207.469,34.547 207.469,36.201 L207.469,47.303 C207.469,49.205 206.999,49.25 206.08,50.177 C204.946,51.31 202.659,51.893 199.959,51.893 L199.59,51.893 C196.695,51.893 194.594,51.45 193.307,50.577 C192.023,49.707 191.375,49.661 191.375,47.69 L191.375,36.457 C191.375,34.71 191.671,33.547 192.251,32.975 C192.833,32.406 194.853,32.117 196.981,32.117 L198.071,32.117 C198.269,31.43 198.231,29.827 198.071,28.359 L174.341,28.359 C174.181,30.297 174.213,31.807 174.341,32.117 C176.984,32.117 178.979,32.293 179.59,32.65 C180.207,33.002 180.512,33.914 180.512,35.382 L180.512,48.203 C180.512,51.36 181.836,52.786 185.222,54.331 C188.165,55.667 192.153,56.333 197.195,56.333 C202.108,56.333 205.998,55.705 208.859,54.454 C212.289,52.957 213.996,51.607 213.996,48.532 L213.996,35.793 C213.996,34.482 214.26,33.573 214.784,33.058 C215.427,32.431 216.534,32.117 218.108,32.117 L219.682,32.117" id="Fill-6" fill="#004E2C" sketch:type="MSShapeGroup"></path>
            <path d="M237.467,49.215 C237.467,50.385 237.202,50.935 236.688,51.309 C236.17,51.68 235.308,51.771 234.113,51.865 L230.761,52.136 L230.761,55.781 L255.527,55.781 L255.527,52.06 L252.299,51.865 C251.102,51.865 250.265,51.706 249.788,51.387 C249.151,50.963 248.829,50.385 248.829,49.215 L248.829,44.463 L257.803,35.269 C258.881,34.131 259.962,33.345 261.035,32.921 C262.107,32.498 263.663,32.215 265.702,32.087 C265.818,31.376 265.781,29.908 265.702,28.36 L247.829,28.36 C247.677,29.735 247.659,31.023 247.829,32.087 C250.78,32.087 252.2,32.401 252.2,33.039 C252.2,33.387 252.121,33.563 251.233,34.487 L245.928,40.016 L240.452,34.329 C239.986,33.843 239.755,33.445 239.755,33.129 C239.755,32.613 240.23,32.312 241.158,32.22 C242.093,32.136 243.08,32.087 243.997,32.087 C244.144,31.069 244.086,29.735 243.997,28.36 L221.067,28.36 C220.889,29.795 220.889,31.169 221.067,32.087 C222.946,32.087 224.421,32.347 225.499,32.881 C226.299,33.278 227.255,34.078 228.373,35.269 L237.467,44.463 L237.467,49.215" id="Fill-7" fill="#004E2C" sketch:type="MSShapeGroup"></path>
            <path d="M267.459,32.117 C273.905,32.954 272.771,31.778 272.771,42.027 C272.771,44.258 272.968,47.632 272.732,49.727 C272.497,51.926 270.114,51.76 267.37,52.006 L267.36,55.776 L289.101,55.781 L289.092,52.006 C287.568,51.878 284.868,51.974 284.045,50.804 C283.508,50.027 283.531,46.002 283.737,44.868 L300.268,44.856 C300.444,45.924 300.454,49.909 300.005,50.678 C299.244,51.974 296.474,51.902 294.917,51.993 L294.908,55.781 L316.652,55.776 L316.644,52.014 C315.526,51.902 314.43,51.774 313.314,51.63 C312.146,51.487 311.458,51.038 311.274,49.883 L311.253,34.467 C311.488,32.087 313.496,32.552 316.547,32.111 C316.776,31.313 316.692,29.269 316.607,28.369 L294.943,28.359 C294.864,29.28 294.774,31.305 295.016,32.12 C296.642,32.312 299.281,32.234 299.979,33.413 C300.549,34.385 300.336,37.894 300.317,39.24 L283.684,39.287 C283.531,31.81 283.375,32.83 288.988,32.117 C289.231,31.322 289.143,29.259 289.06,28.364 L267.392,28.359 C267.316,29.289 267.228,31.285 267.459,32.117" id="Fill-8" fill="#004E2C" sketch:type="MSShapeGroup"></path>
            <path d="M410.208,52.068 L410.201,55.718 L427.572,55.781 L427.559,52.01 C422.216,51.568 422.151,52.001 422.151,46.56 C422.151,43.334 421.887,38.758 422.181,35.694 C426.552,41.22 431.274,47.769 435.606,53.525 C436.815,55.126 437.032,55.79 439.801,55.781 C444.006,55.772 448.217,55.781 452.429,55.781 C452.41,53.921 452.273,35.166 452.503,34.11 C452.741,33.035 453.313,32.699 454.453,32.545 C455.541,32.397 456.631,32.292 457.739,32.159 C457.985,31.366 457.897,29.3 457.815,28.4 L440.494,28.404 C440.458,29.059 440.475,29.682 440.47,30.306 C440.47,30.618 440.451,30.988 440.461,31.285 C440.465,31.448 440.47,31.57 440.497,31.733 C440.691,32.932 443.429,31.859 445.044,32.898 C446.295,33.697 445.912,36.079 445.912,37.546 C445.912,40.913 446.144,45.213 445.874,48.464 C445.437,48.156 434.532,33.46 433.876,32.587 C430.192,27.741 431.729,28.404 424.18,28.404 C421.828,28.404 411.666,28.282 410.223,28.444 L410.183,31.457 C410.201,32.201 410.057,32 410.513,32.185 C412.731,33.074 415.637,31.056 415.617,35.774 L415.623,48.811 C415.6,52.565 413.206,51.37 410.208,52.068" id="Fill-9" fill="#004E2C" sketch:type="MSShapeGroup"></path>
            <path d="M495.907,28.36 L471.931,28.409 C471.931,28.409 456.45,28.435 456.45,42.216 C456.454,55.996 472.244,55.781 472.244,55.781 L495.907,55.781 L495.903,40.28 L475.901,40.28 C475.758,41.974 475.563,42.69 475.901,44.688 C477.69,44.937 479.848,44.937 483.637,45.025 C484.497,45.059 485.209,45.317 485.209,46.044 L485.213,49.468 C485.213,50.307 484.458,50.781 483.604,50.921 C482.75,51.065 476.313,50.994 476.066,50.994 C470.211,50.994 468.865,46.491 468.865,41.939 C468.865,37.477 470.354,33.126 476.135,33.126 L483.518,33.133 C484.056,33.133 485.205,33.644 485.205,34.918 C485.205,36.191 485.209,38.036 485.209,38.036 L495.903,38.023 C495.903,34.801 495.903,31.58 495.907,28.36" id="Fill-10" fill="#004E2C" sketch:type="MSShapeGroup"></path>
            <path d="M338.067,31.973 C336.566,31.973 335.082,32.193 334.08,32.597 C333.406,32.872 332.824,33.164 332.248,33.571 C331.856,33.848 331.45,34.168 331.04,34.584 C329.992,35.646 329.369,36.855 328.943,38.111 C328.537,39.309 328.367,40.483 328.367,41.941 C328.364,43.287 328.541,44.34 328.814,45.288 C329.206,46.634 329.85,47.769 330.933,49.173 C331.45,49.85 332.131,50.334 332.803,50.794 C332.928,50.881 333.069,50.954 333.205,51.034 C333.418,51.155 333.638,51.259 333.856,51.362 C335.151,51.96 336.537,52.15 338.165,52.15 C340.008,52.15 341.671,51.721 343.129,50.904 C343.678,50.591 344.202,50.244 344.685,49.806 C344.935,49.584 345.192,49.34 345.405,49.06 C346.673,47.394 347.286,46.276 347.519,44.622 C347.732,43.117 347.715,43.094 347.797,41.621 C347.846,40.791 347.782,40.099 347.687,39.481 C347.567,38.69 347.374,38.013 347.13,37.361 C346.762,36.394 346.248,35.437 345.132,34.32 C344.321,33.518 343.295,32.994 342.019,32.56 C340.776,32.13 339.338,31.973 338.067,31.973 M338.176,27.803 C341.976,27.763 346.768,28.297 350.379,29.533 C352.202,30.161 355.306,31.557 357.381,33.905 C359.575,36.394 360.227,39.133 360.322,40.986 C360.446,43.492 360.227,45.261 359.177,47.416 C357.426,51.007 353.778,53.631 348.828,54.969 C344.795,56.057 341.873,56.419 338.086,56.325 C337.363,56.306 336.619,56.329 335.868,56.306 C334.053,56.243 332.167,56.08 330.174,55.727 C328.67,55.461 327.159,55.097 325.471,54.471 C323.601,53.786 320.643,52.466 318.236,49.427 C316.333,47.023 315.832,44.331 315.828,41.718 C315.828,40.476 316.136,38.369 316.967,36.657 C317.905,34.732 318.993,33.494 320.409,32.348 C322.028,31.037 323.964,30.102 326.006,29.423 C328.519,28.59 331.232,28.154 333.83,27.955 C335.339,27.84 336.807,27.815 338.176,27.803" id="Fill-11" fill="#004E2C" sketch:type="MSShapeGroup"></path>
            <path d="M380.911,17.898 L388.771,28.597 L406.124,28.597 L393.432,36.629 L403.038,48.048 C385.084,29.391 357.282,28.607 357.282,28.607 L374.136,28.4 L380.911,17.898" id="Fill-12" fill="#AB2430" sketch:type="MSShapeGroup"></path>
            <path d="M408.081,52.281 C408.081,52.281 402.612,51.759 401.477,50.469 C401.477,50.469 393.968,42.234 383.524,37.705 C388.064,41.316 389.797,46.358 389.856,48.922 C389.887,50.276 388.904,51.602 387.477,51.972 C386.951,52.107 385.455,51.937 384.588,51.996 L384.578,55.783 L408.081,55.772 L408.081,52.281" id="Fill-13" fill="#004E2C" sketch:type="MSShapeGroup"></path>
            <path d="M372.803,44.91 L378.41,35.696 C376.959,35.216 373.986,34.013 372.283,33.663 C371.381,35.254 362.252,50.649 361.622,51.142 C360.74,51.834 358.167,51.928 356.83,51.988 L356.817,55.781 L374.194,55.771 L374.19,51.993 C368.806,51.76 370.346,48.7 372.803,44.91" id="Fill-14" fill="#004E2C" sketch:type="MSShapeGroup"></path>
            <path d="M123.87,64.593 L126.115,64.593 L130.186,71.478 L130.186,64.593 L132.184,64.593 L132.184,74.467 L130.041,74.467 L125.866,67.461 L125.866,74.467 L123.87,74.467 L123.87,64.593" id="Fill-15" fill="#004E2C" sketch:type="MSShapeGroup"></path>
            <path d="M134.181,74.469 L134.181,64.594 L136.311,64.594 L136.311,68.357 L140.298,68.357 L140.298,64.594 L142.426,64.594 L142.426,74.469 L140.298,74.469 L140.298,70.059 L136.311,70.059 L136.311,74.469 L134.181,74.469" id="Fill-16" fill="#004E2C" sketch:type="MSShapeGroup"></path>
            <path d="M147.275,70.736 L149.903,70.736 L148.608,66.851 L147.275,70.736 L147.275,70.736 Z M149.794,63.803 L148.36,63.803 L146.254,61.8 L148.458,61.8 L149.794,63.803 L149.794,63.803 Z M147.419,64.593 L149.843,64.593 L153.472,74.467 L151.148,74.467 L150.47,72.437 L146.695,72.437 L145.999,74.467 L143.756,74.467 L147.419,64.593 L147.419,64.593 Z" id="Fill-17" fill="#004E2C" sketch:type="MSShapeGroup"></path>
            <path d="M160.279,71.42 C160.346,71.87 160.476,72.207 160.67,72.43 C161.026,72.837 161.636,73.041 162.497,73.041 C163.012,73.041 163.432,72.988 163.753,72.881 C164.365,72.674 164.669,72.292 164.669,71.735 C164.669,71.408 164.521,71.156 164.22,70.979 C163.92,70.803 163.446,70.649 162.796,70.517 L161.687,70.282 C160.597,70.049 159.847,69.797 159.438,69.523 C158.744,69.068 158.4,68.356 158.4,67.387 C158.4,66.502 158.737,65.768 159.415,65.183 C160.09,64.598 161.085,64.305 162.396,64.305 C163.489,64.305 164.423,64.579 165.196,65.132 C165.966,65.684 166.373,66.484 166.41,67.533 L164.35,67.533 C164.312,66.94 164.035,66.519 163.521,66.269 C163.179,66.102 162.754,66.019 162.246,66.019 C161.68,66.019 161.229,66.128 160.891,66.342 C160.551,66.557 160.384,66.856 160.384,67.239 C160.384,67.591 160.551,67.856 160.883,68.03 C161.097,68.146 161.551,68.283 162.246,68.437 L164.045,68.846 C164.835,69.026 165.426,69.266 165.817,69.562 C166.432,70.028 166.736,70.7 166.736,71.58 C166.736,72.481 166.373,73.232 165.649,73.827 C164.925,74.425 163.902,74.722 162.582,74.722 C161.229,74.722 160.169,74.428 159.396,73.841 C158.62,73.254 158.235,72.446 158.235,71.42 L160.279,71.42" id="Fill-18" fill="#004E2C" sketch:type="MSShapeGroup"></path>
            <path d="M172.546,62.355 C172.495,62.315 172.445,62.286 172.393,62.266 C172.342,62.246 172.243,62.231 172.095,62.227 L171.725,62.222 L171.698,61.694 C171.798,61.68 171.913,61.667 172.034,61.658 C172.159,61.65 172.266,61.646 172.359,61.646 C172.595,61.646 172.824,61.685 173.046,61.756 C173.271,61.829 173.459,61.972 173.612,62.181 C173.653,62.239 173.689,62.315 173.719,62.408 C173.749,62.503 173.763,62.602 173.763,62.711 C173.763,62.8 173.75,62.891 173.722,62.985 C173.693,63.079 173.646,63.167 173.575,63.252 C173.507,63.332 173.412,63.405 173.295,63.468 C173.177,63.529 173.029,63.578 172.853,63.615 L172.755,63.909 L171.793,63.909 L171.844,63.401 C172.229,63.374 172.476,63.3 172.585,63.172 C172.694,63.048 172.748,62.913 172.748,62.763 C172.748,62.688 172.732,62.615 172.7,62.547 C172.669,62.477 172.615,62.414 172.546,62.355 L172.546,62.355 Z M171.031,70.736 L173.658,70.736 L172.361,66.851 L171.031,70.736 L171.031,70.736 Z M171.171,64.593 L173.597,64.593 L177.227,74.467 L174.902,74.467 L174.227,72.437 L170.447,72.437 L169.752,74.467 L167.512,74.467 L171.171,64.593 L171.171,64.593 Z" id="Fill-19" fill="#004E2C" sketch:type="MSShapeGroup"></path>
            <path d="M178.497,64.593 L180.741,64.593 L184.813,71.478 L184.813,64.593 L186.81,64.593 L186.81,74.467 L184.666,74.467 L180.492,67.461 L180.492,74.467 L178.497,74.467 L178.497,64.593" id="Fill-20" fill="#004E2C" sketch:type="MSShapeGroup"></path>
            <path d="M194.419,74.469 L191.93,74.469 L195.226,69.437 L192.085,64.594 L194.647,64.594 L196.477,67.81 L198.356,64.594 L200.833,64.594 L197.695,69.356 L201.029,74.469 L198.426,74.469 L196.477,71.102 L194.419,74.469" id="Fill-21" fill="#004E2C" sketch:type="MSShapeGroup"></path>
            <path d="M202.284,64.593 L204.461,64.593 L204.461,70.659 C204.461,71.337 204.545,71.831 204.711,72.144 C204.971,72.697 205.534,72.975 206.404,72.975 C207.268,72.975 207.83,72.697 208.088,72.144 C208.255,71.831 208.338,71.337 208.338,70.659 L208.338,64.593 L210.515,64.593 L210.515,70.661 C210.515,71.711 210.347,72.53 210.009,73.115 C209.378,74.187 208.177,74.722 206.404,74.722 C204.629,74.722 203.425,74.187 202.79,73.115 C202.453,72.53 202.284,71.711 202.284,70.661 L202.284,64.593" id="Fill-22" fill="#004E2C" sketch:type="MSShapeGroup"></path>
            <path d="M221.517,60.519 L219.4,62.524 L217.966,62.524 L219.305,60.519 L221.517,60.519 L221.517,60.519 Z M215.367,70.736 L217.992,70.736 L216.696,66.851 L215.367,70.736 L215.367,70.736 Z M219.288,63.771 L217.677,63.771 L216.769,62.646 L215.858,63.771 L214.245,63.771 L215.879,61.766 L217.661,61.766 L219.288,63.771 L219.288,63.771 Z M215.508,64.593 L217.933,64.593 L221.56,74.467 L219.237,74.467 L218.561,72.437 L214.784,72.437 L214.088,74.467 L211.848,74.467 L215.508,64.593 L215.508,64.593 Z" id="Fill-23" fill="#004E2C" sketch:type="MSShapeGroup"></path>
            <path d="M230.401,64.593 L230.401,66.342 L227.333,66.342 L227.333,74.467 L225.175,74.467 L225.175,66.342 L222.094,66.342 L222.094,64.593 L230.401,64.593" id="Fill-24" fill="#004E2C" sketch:type="MSShapeGroup"></path>
            <path d="M235.647,64.593 L237.755,64.593 L237.755,68.662 L241.72,64.593 L244.487,64.593 L240.276,68.654 L244.702,74.467 L241.947,74.467 L238.788,70.156 L237.755,71.166 L237.755,74.467 L235.647,74.467 L235.647,64.593" id="Fill-25" fill="#004E2C" sketch:type="MSShapeGroup"></path>
            <path d="M245.89,74.469 L245.89,64.594 L248.018,64.594 L248.018,68.357 L252.005,68.357 L252.005,64.594 L254.135,64.594 L254.135,74.469 L252.005,74.469 L252.005,70.059 L248.018,70.059 L248.018,74.469 L245.89,74.469" id="Fill-26" fill="#004E2C" sketch:type="MSShapeGroup"></path>
            <path d="M263.103,61.499 L260.988,63.501 L259.555,63.501 L260.892,61.499 L263.103,61.499 L263.103,61.499 Z M262.751,72.089 C263.25,71.486 263.501,70.631 263.501,69.516 C263.501,68.408 263.25,67.554 262.751,66.948 C262.254,66.342 261.58,66.041 260.731,66.041 C259.884,66.041 259.205,66.342 258.699,66.944 C258.191,67.549 257.94,68.406 257.94,69.516 C257.94,70.631 258.191,71.486 258.699,72.089 C259.205,72.692 259.884,72.993 260.731,72.993 C261.58,72.993 262.254,72.692 262.751,72.089 L262.751,72.089 Z M264.091,73.59 C263.316,74.357 262.197,74.742 260.731,74.742 C259.265,74.742 258.147,74.357 257.369,73.59 C256.332,72.649 255.811,71.289 255.811,69.516 C255.811,67.709 256.332,66.351 257.369,65.443 C258.147,64.676 259.265,64.292 260.731,64.292 C262.197,64.292 263.316,64.676 264.091,65.443 C265.126,66.351 265.644,67.709 265.644,69.516 C265.644,71.289 265.126,72.649 264.091,73.59 L264.091,73.59 Z" id="Fill-27" fill="#004E2C" sketch:type="MSShapeGroup"></path>
            <path d="M270.069,70.736 L272.696,70.736 L271.4,66.851 L270.069,70.736 L270.069,70.736 Z M270.212,64.593 L272.637,64.593 L276.266,74.467 L273.941,74.467 L273.263,72.437 L269.485,72.437 L268.791,74.467 L266.55,74.467 L270.212,64.593 L270.212,64.593 Z" id="Fill-28" fill="#004E2C" sketch:type="MSShapeGroup"></path>
            <path d="M281.984,65.625 C282.811,64.813 283.861,64.406 285.137,64.406 C286.846,64.406 288.093,64.95 288.884,66.04 C289.317,66.651 289.553,67.267 289.582,67.881 L287.44,67.881 C287.305,67.409 287.13,67.052 286.916,66.811 C286.536,66.381 285.969,66.168 285.221,66.168 C284.456,66.168 283.854,66.469 283.414,67.075 C282.974,67.682 282.751,68.538 282.751,69.644 C282.751,70.751 282.986,71.583 283.45,72.134 C283.912,72.685 284.505,72.96 285.222,72.96 C285.958,72.96 286.517,72.724 286.902,72.248 C287.116,71.996 287.292,71.613 287.435,71.103 L289.565,71.103 C289.381,72.182 288.912,73.056 288.156,73.731 C287.402,74.406 286.434,74.741 285.255,74.741 C283.794,74.741 282.648,74.288 281.813,73.375 C280.977,72.461 280.561,71.205 280.561,69.611 C280.561,67.887 281.034,66.56 281.984,65.625" id="Fill-29" fill="#004E2C" sketch:type="MSShapeGroup"></path>
            <path d="M291.284,74.469 L291.284,64.594 L293.411,64.594 L293.411,68.357 L297.397,68.357 L297.397,64.594 L299.527,64.594 L299.527,74.469 L297.397,74.469 L297.397,70.059 L293.411,70.059 L293.411,74.469 L291.284,74.469" id="Fill-30" fill="#004E2C" sketch:type="MSShapeGroup"></path>
            <path d="M301.588,64.593 L303.766,64.593 L303.766,70.659 C303.766,71.337 303.848,71.831 304.014,72.144 C304.273,72.697 304.836,72.975 305.707,72.975 C306.571,72.975 307.132,72.697 307.391,72.144 C307.559,71.831 307.642,71.337 307.642,70.659 L307.642,64.593 L309.818,64.593 L309.818,70.661 C309.818,71.711 309.649,72.53 309.311,73.115 C308.683,74.187 307.481,74.722 305.707,74.722 C303.933,74.722 302.728,74.187 302.095,73.115 C301.756,72.53 301.588,71.711 301.588,70.661 L301.588,64.593" id="Fill-31" fill="#004E2C" sketch:type="MSShapeGroup"></path>
            <path d="M317.728,64.593 L320.158,64.593 L316.729,70.764 L316.729,74.467 L314.585,74.467 L314.585,70.764 L311.036,64.593 L313.564,64.593 L315.691,68.893 L317.728,64.593" id="Fill-32" fill="#004E2C" sketch:type="MSShapeGroup"></path>
            <path d="M327.778,63.803 L326.163,63.803 L325.259,62.678 L324.35,63.803 L322.734,63.803 L324.368,61.8 L326.148,61.8 L327.778,63.803 L327.778,63.803 Z M328.967,66.342 L323.54,66.342 L323.54,68.437 L328.523,68.437 L328.523,70.154 L323.54,70.154 L323.54,72.693 L329.219,72.693 L329.219,74.469 L321.445,74.469 L321.445,64.594 L328.967,64.594 L328.967,66.342 L328.967,66.342 Z" id="Fill-33" fill="#004E2C" sketch:type="MSShapeGroup"></path>
            <path d="M330.852,64.593 L333.1,64.593 L337.17,71.478 L337.17,64.593 L339.167,64.593 L339.167,74.467 L337.023,74.467 L332.85,67.461 L332.85,74.467 L330.852,74.467 L330.852,64.593" id="Fill-34" fill="#004E2C" sketch:type="MSShapeGroup"></path>
            <path d="M345.103,64.593 L347.35,64.593 L351.42,71.478 L351.42,64.593 L353.418,64.593 L353.418,74.467 L351.274,74.467 L347.1,67.461 L347.1,74.467 L345.103,74.467 L345.103,64.593" id="Fill-35" fill="#004E2C" sketch:type="MSShapeGroup"></path>
            <path d="M362.324,67.676 C362.162,67 361.765,66.531 361.135,66.262 C360.781,66.113 360.39,66.04 359.957,66.04 C359.131,66.04 358.453,66.34 357.922,66.938 C357.392,67.54 357.126,68.441 357.126,69.644 C357.126,70.856 357.414,71.715 357.988,72.219 C358.565,72.723 359.218,72.975 359.952,72.975 C360.67,72.975 361.259,72.775 361.718,72.379 C362.178,71.981 362.461,71.46 362.566,70.817 L360.193,70.817 L360.193,69.168 L364.466,69.168 L364.466,74.467 L363.048,74.467 L362.831,73.236 C362.419,73.703 362.047,74.029 361.718,74.221 C361.152,74.555 360.458,74.722 359.631,74.722 C358.272,74.722 357.156,74.269 356.291,73.362 C355.387,72.452 354.935,71.207 354.935,69.628 C354.935,68.028 355.393,66.751 356.306,65.784 C357.22,64.822 358.428,64.337 359.931,64.337 C361.234,64.337 362.281,64.657 363.071,65.294 C363.861,65.932 364.316,66.724 364.432,67.676 L362.324,67.676" id="Fill-36" fill="#004E2C" sketch:type="MSShapeGroup"></path>
            <path d="M366.498,74.469 L366.498,64.594 L368.627,64.594 L368.627,68.357 L372.614,68.357 L372.614,64.594 L374.742,64.594 L374.742,74.469 L372.614,74.469 L372.614,70.059 L368.627,70.059 L368.627,74.469 L366.498,74.469" id="Fill-37" fill="#004E2C" sketch:type="MSShapeGroup"></path>
            <path d="M376.63,64.593 L378.758,64.593 L378.758,74.467 L376.63,74.467 L376.63,64.593 Z" id="Fill-38" fill="#004E2C" sketch:type="MSShapeGroup"></path>
            <path d="M383.801,75.076 L385.617,75.076 L385.617,76.664 L383.801,76.664 L383.801,75.076 Z M387.267,63.683 L385.653,63.683 L384.747,62.557 L383.837,63.683 L382.223,63.683 L383.856,61.68 L385.639,61.68 L387.267,63.683 L387.267,63.683 Z M388.346,66.342 L382.919,66.342 L382.919,68.437 L387.9,68.437 L387.9,70.154 L382.919,70.154 L382.919,72.693 L388.596,72.693 L388.596,74.469 L380.823,74.469 L380.823,64.594 L388.346,64.594 L388.346,66.342 L388.346,66.342 Z" id="Fill-39" fill="#004E2C" sketch:type="MSShapeGroup"></path>
            <path d="M395.517,66.637 C395.246,66.419 394.865,66.307 394.375,66.307 L392.443,66.307 L392.443,69.216 L394.375,69.216 C394.865,69.216 395.246,69.096 395.517,68.862 C395.788,68.624 395.924,68.25 395.924,67.735 C395.924,67.221 395.788,66.856 395.517,66.637 M397.152,70.193 C396.551,70.676 395.695,70.916 394.581,70.916 L392.443,70.916 L392.443,74.467 L390.315,74.467 L390.315,64.593 L394.721,64.593 C395.734,64.593 396.543,64.848 397.148,65.358 C397.751,65.865 398.053,66.654 398.053,67.721 C398.053,68.889 397.752,69.712 397.152,70.193" id="Fill-40" fill="#004E2C" sketch:type="MSShapeGroup"></path>
            <path d="M410.93,64.593 L410.93,66.342 L407.861,66.342 L407.861,74.467 L405.705,74.467 L405.705,66.342 L402.622,66.342 L402.622,64.593 L410.93,64.593" id="Fill-41" fill="#004E2C" sketch:type="MSShapeGroup"></path>
            <path d="M417.575,63.843 L416.142,63.843 L414.035,61.84 L416.24,61.84 L417.575,63.843 L417.575,63.843 Z M412.184,64.593 L414.359,64.593 L414.359,70.661 C414.359,71.343 414.443,71.838 414.609,72.149 C414.871,72.704 415.437,72.981 416.309,72.981 C417.177,72.981 417.74,72.704 417.998,72.149 C418.167,71.838 418.25,71.343 418.25,70.661 L418.25,64.593 L420.428,64.593 L420.428,66.342 L420.472,66.342 C420.788,66.373 421.161,66.287 421.583,66.086 L420.978,65.082 L422.773,64.084 L423.844,65.873 L422.291,66.737 C422.019,66.89 421.713,67.014 421.373,67.112 C421.054,67.203 420.739,67.219 420.428,67.157 L420.428,70.661 C420.428,71.711 420.258,72.53 419.918,73.115 C419.289,74.187 418.084,74.722 416.309,74.722 C414.532,74.722 413.328,74.187 412.69,73.115 C412.353,72.53 412.184,71.711 412.184,70.661 L412.184,64.593 L412.184,64.593 Z" id="Fill-42" fill="#004E2C" sketch:type="MSShapeGroup"></path>
            <path d="M429.187,64.593 L431.435,64.593 L435.506,71.478 L435.506,64.593 L437.503,64.593 L437.503,74.467 L435.359,74.467 L431.185,67.461 L431.185,74.467 L429.187,74.467 L429.187,64.593" id="Fill-43" fill="#004E2C" sketch:type="MSShapeGroup"></path>
            <path d="M442.305,70.736 L444.932,70.736 L443.636,66.851 L442.305,70.736 L442.305,70.736 Z M445.447,63.095 C445.036,63.42 444.471,63.582 443.759,63.582 C443.043,63.582 442.481,63.42 442.066,63.095 C441.654,62.769 441.418,62.266 441.357,61.579 L442.295,61.579 C442.363,61.989 442.584,62.27 442.965,62.416 C443.178,62.5 443.443,62.544 443.759,62.544 C444.073,62.544 444.338,62.5 444.551,62.416 C444.932,62.27 445.154,61.989 445.22,61.579 L446.159,61.579 C446.1,62.266 445.861,62.769 445.447,63.095 L445.447,63.095 Z M442.446,64.593 L444.872,64.593 L448.5,74.467 L446.176,74.467 L445.498,72.437 L441.721,72.437 L441.027,74.467 L438.784,74.467 L442.446,64.593 L442.446,64.593 Z" id="Fill-44" fill="#004E2C" sketch:type="MSShapeGroup"></path>
            <path d="M456.607,64.593 L459.691,64.593 L459.691,74.467 L457.695,74.467 L457.695,67.788 C457.695,67.596 457.698,67.327 457.702,66.982 C457.707,66.636 457.708,66.37 457.708,66.183 L455.766,74.467 L453.685,74.467 L451.752,66.183 C451.752,66.37 451.756,66.636 451.76,66.982 C451.765,67.327 451.768,67.596 451.768,67.788 L451.768,74.467 L449.77,74.467 L449.77,64.593 L452.889,64.593 L454.755,72.357 L456.607,64.593" id="Fill-45" fill="#004E2C" sketch:type="MSShapeGroup"></path>
            <path d="M465.536,67.769 L465.536,66.468 C466.16,66.442 466.599,66.402 466.849,66.35 C467.246,66.263 467.569,66.094 467.819,65.839 C467.992,65.666 468.12,65.434 468.209,65.143 C468.261,64.969 468.283,64.84 468.283,64.753 L469.94,64.753 L469.94,74.469 L467.909,74.469 L467.909,67.769 L465.536,67.769" id="Fill-46" fill="#004E2C" sketch:type="MSShapeGroup"></path>
            <path d="M477.172,69.498 C477.621,69.221 477.846,68.739 477.846,68.058 C477.846,67.506 477.712,67.071 477.446,66.752 C477.179,66.43 476.815,66.269 476.349,66.269 C476.013,66.269 475.723,66.36 475.479,66.543 C475.1,66.828 474.909,67.313 474.909,67.998 C474.909,68.573 475.031,69.003 475.273,69.293 C475.519,69.58 475.891,69.725 476.398,69.725 C476.671,69.725 476.931,69.649 477.172,69.498 M473.834,65.643 C474.458,64.996 475.269,64.673 476.265,64.673 C477.801,64.673 478.853,65.327 479.425,66.637 C479.748,67.378 479.911,68.354 479.911,69.562 C479.911,70.739 479.758,71.718 479.446,72.507 C478.852,74.001 477.762,74.75 476.175,74.75 C475.419,74.75 474.74,74.533 474.138,74.103 C473.535,73.672 473.187,73.043 473.1,72.217 L475.077,72.217 C475.121,72.501 475.249,72.734 475.451,72.913 C475.656,73.093 475.929,73.18 476.265,73.18 C476.921,73.18 477.379,72.834 477.644,72.137 C477.787,71.752 477.879,71.192 477.915,70.455 C477.733,70.674 477.541,70.843 477.338,70.957 C476.966,71.172 476.51,71.278 475.969,71.278 C475.164,71.278 474.453,71.011 473.832,70.476 C473.21,69.944 472.898,69.175 472.898,68.17 C472.898,67.13 473.211,66.287 473.834,65.643" id="Fill-47" fill="#004E2C" sketch:type="MSShapeGroup"></path>
            <path d="M487.913,66.376 C487.616,66.656 487.204,67.157 486.672,67.878 C486.144,68.599 485.7,69.346 485.342,70.114 C485.061,70.716 484.803,71.451 484.575,72.325 C484.349,73.195 484.233,73.911 484.233,74.467 L482.174,74.467 C482.234,72.727 482.829,70.915 483.957,69.035 C484.685,67.869 485.296,67.056 485.789,66.596 L480.761,66.596 L480.789,64.882 L487.913,64.882 L487.913,66.376" id="Fill-48" fill="#004E2C" sketch:type="MSShapeGroup"></path>
            <path d="M493.021,69.498 C493.473,69.221 493.697,68.739 493.697,68.058 C493.697,67.506 493.563,67.071 493.296,66.752 C493.029,66.43 492.665,66.269 492.2,66.269 C491.863,66.269 491.573,66.36 491.33,66.543 C490.95,66.828 490.761,67.313 490.761,67.998 C490.761,68.573 490.883,69.003 491.125,69.293 C491.369,69.58 491.742,69.725 492.249,69.725 C492.521,69.725 492.78,69.649 493.021,69.498 M489.686,65.643 C490.31,64.996 491.119,64.673 492.116,64.673 C493.65,64.673 494.704,65.327 495.274,66.637 C495.599,67.378 495.762,68.354 495.762,69.562 C495.762,70.739 495.607,71.718 495.298,72.507 C494.703,74.001 493.611,74.75 492.025,74.75 C491.269,74.75 490.59,74.533 489.988,74.103 C489.386,73.672 489.039,73.043 488.951,72.217 L490.928,72.217 C490.973,72.501 491.1,72.734 491.303,72.913 C491.508,73.093 491.778,73.18 492.116,73.18 C492.771,73.18 493.231,72.834 493.495,72.137 C493.639,71.752 493.729,71.192 493.766,70.455 C493.585,70.674 493.393,70.843 493.188,70.957 C492.817,71.172 492.359,71.278 491.818,71.278 C491.016,71.278 490.305,71.011 489.683,70.476 C489.06,69.944 488.748,69.175 488.748,68.17 C488.748,67.13 489.062,66.287 489.686,65.643" id="Fill-49" fill="#004E2C" sketch:type="MSShapeGroup"></path>
        </g>
    </g>
</svg>